  0
SECTION
  2
HEADER
  9
$ACADVER
  1
AC1014
  9
$HANDSEED
  5
FFFF
  9
$MEASUREMENT
 70
     1
  0
ENDSEC
  0
SECTION
  2
TABLES
  0
TABLE
  2
VPORT
  5
8
330
0
100
AcDbSymbolTable
 70
     4
  0
VPORT
  5
2E
330
8
100
AcDbSymbolTableRecord
100
AcDbViewportTableRecord
  2
*ACTIVE
 70
     0
 10
0.0
 20
0.0
 11
1.0
 21
1.0
 12
210.0
 22
148.5
 13
0.0
 23
0.0
 14
10.0
 24
10.0
 15
10.0
 25
10.0
 16
0.0
 26
0.0
 36
1.0
 17
0.0
 27
0.0
 37
0.0
 40
341.0
 41
1.24
 42
50.0
 43
0.0
 44
0.0
 50
0.0
 51
0.0
 71
     0
 72
   100
 73
     1
 74
     3
 75
     0
 76
     0
 77
     0
 78
     0
  0
ENDTAB
  0
TABLE
  2
LTYPE
  5
5
330
0
100
AcDbSymbolTable
 70
     1
  0
LTYPE
  5
14
330
5
100
AcDbSymbolTableRecord
100
AcDbLinetypeTableRecord
  2
BYBLOCK
 70
     0
  3

 72
    65
 73
     0
 40
0.0
  0
LTYPE
  5
15
330
5
100
AcDbSymbolTableRecord
100
AcDbLinetypeTableRecord
  2
BYLAYER
 70
     0
  3

 72
    65
 73
     0
 40
0.0
  0
LTYPE
  5
16
330
5
100
AcDbSymbolTableRecord
100
AcDbLinetypeTableRecord
  2
CONTINUOUS
 70
     0
  3
Solid line
 72
    65
 73
     0
 40
0.0
  0
ENDTAB
  0
TABLE
  2
LAYER
  5
2
100
AcDbSymbolTable
 70
2
  0
LAYER
  5
50
100
AcDbSymbolTableRecord
100
AcDbLayerTableRecord
  2
0
 70
0
  6
CONTINUOUS
  0
LAYER
  5
51
100
AcDbSymbolTableRecord
100
AcDbLayerTableRecord
  2
Capa_1
 70
0
  6
CONTINUOUS
  0
ENDTAB
  0
TABLE
  2
STYLE
  5
3
330
0
100
AcDbSymbolTable
 70
     1
  0
STYLE
  5
11
330
3
100
AcDbSymbolTableRecord
100
AcDbTextStyleTableRecord
  2
STANDARD
 70
     0
 40
0.0
 41
1.0
 50
0.0
 71
     0
 42
2.5
  3
txt
  4

  0
ENDTAB
  0
TABLE
  2
VIEW
  5
6
330
0
100
AcDbSymbolTable
 70
     0
  0
ENDTAB
  0
TABLE
  2
UCS
  5
7
330
0
100
AcDbSymbolTable
 70
     0
  0
ENDTAB
  0
TABLE
  2
APPID
  5
9
330
0
100
AcDbSymbolTable
 70
     2
  0
APPID
  5
12
330
9
100
AcDbSymbolTableRecord
100
AcDbRegAppTableRecord
  2
ACAD
 70
     0
  0
ENDTAB
  0
TABLE
  2
DIMSTYLE
  5
A
330
0
100
AcDbSymbolTable
 70
     1
  0
DIMSTYLE
105
27
330
A
100
AcDbSymbolTableRecord
100
AcDbDimStyleTableRecord
  2
ISO-25
 70
     0
  3

  4

  5

  6

  7

 40
1.0
 41
2.5
 42
0.625
 43
3.75
 44
1.25
 45
0.0
 46
0.0
 47
0.0
 48
0.0
140
2.5
141
2.5
142
0.0
143
0.03937007874016
144
1.0
145
0.0
146
1.0
147
0.625
 71
     0
 72
     0
 73
     0
 74
     0
 75
     0
 76
     0
 77
     1
 78
     8
170
     0
171
     3
172
     1
173
     0
174
     0
175
     0
176
     0
177
     0
178
     0
270
     2
271
     2
272
     2
273
     2
274
     3
340
11
275
     0
280
     0
281
     0
282
     0
283
     0
284
     8
285
     0
286
     0
287
     3
288
     0
  0
ENDTAB
  0
TABLE
  2
BLOCK_RECORD
  5
1
330
0
100
AcDbSymbolTable
 70
     1
  0
BLOCK_RECORD
  5
1F
330
1
100
AcDbSymbolTableRecord
100
AcDbBlockTableRecord
  2
*MODEL_SPACE
  0
BLOCK_RECORD
  5
1B
330
1
100
AcDbSymbolTableRecord
100
AcDbBlockTableRecord
  2
*PAPER_SPACE
  0
ENDTAB
  0
ENDSEC
  0
SECTION
  2
BLOCKS
  0
BLOCK
  5
20
330
1F
100
AcDbEntity
  8
0
100
AcDbBlockBegin
  2
*MODEL_SPACE
 70
     0
 10
0.0
 20
0.0
 30
0.0
  3
*MODEL_SPACE
  1

  0
ENDBLK
  5
21
330
1F
100
AcDbEntity
  8
0
100
AcDbBlockEnd
  0
BLOCK
  5
1C
330
1B
100
AcDbEntity
 67
     1
  8
0
100
AcDbBlockBegin
  2
*PAPER_SPACE
  1

  0
ENDBLK
  5
1D
330
1B
100
AcDbEntity
 67
     1
  8
0
100
AcDbBlockEnd
  0
ENDSEC
  0
SECTION
  2
ENTITIES
  0
SPLINE
  5
100
100
AcDbEntity
  8
Capa_1
 62
7
100
AcDbSpline
 70
8
 71
3
 72
8
 73
4
 74
0
 40
0
 40
0
 40
0
 40
0
 40
1
 40
1
 40
1
 40
1
 10
119.071968
 20
66.796738
 30
0.0
 10
119.071968
 20
65.536074
 30
0.0
 10
119.049088
 20
64.290658
 30
0.0
 10
119.003328
 20
63.060490
 30
0.0
  0
SPLINE
  5
101
100
AcDbEntity
  8
Capa_1
 62
7
100
AcDbSpline
 70
8
 71
3
 72
8
 73
4
 74
0
 40
0
 40
0
 40
0
 40
0
 40
1
 40
1
 40
1
 40
1
 10
119.003328
 20
63.060490
 30
0.0
 10
118.957568
 20
61.830322
 30
0.0
 10
118.888952
 20
60.615402
 30
0.0
 10
118.797456
 20
59.415738
 30
0.0
  0
SPLINE
  5
102
100
AcDbEntity
  8
Capa_1
 62
7
100
AcDbSpline
 70
8
 71
3
 72
8
 73
4
 74
0
 40
0
 40
0
 40
0
 40
0
 40
1
 40
1
 40
1
 40
1
 10
118.797456
 20
59.415738
 30
0.0
 10
118.705952
 20
58.216074
 30
0.0
 10
118.591576
 20
57.031658
 30
0.0
 10
118.454328
 20
55.862490
 30
0.0
  0
SPLINE
  5
103
100
AcDbEntity
  8
Capa_1
 62
7
100
AcDbSpline
 70
8
 71
3
 72
8
 73
4
 74
0
 40
0
 40
0
 40
0
 40
0
 40
1
 40
1
 40
1
 40
1
 10
118.454328
 20
55.862490
 30
0.0
 10
118.317080
 20
54.693322
 30
0.0
 10
118.156952
 20
53.539402
 30
0.0
 10
117.973952
 20
52.400738
 30
0.0
  0
SPLINE
  5
104
100
AcDbEntity
  8
Capa_1
 62
7
100
AcDbSpline
 70
8
 71
3
 72
8
 73
4
 74
0
 40
0
 40
0
 40
0
 40
0
 40
1
 40
1
 40
1
 40
1
 10
117.973952
 20
52.400738
 30
0.0
 10
117.790952
 20
51.262074
 30
0.0
 10
117.585080
 20
50.138658
 30
0.0
 10
117.356328
 20
49.030490
 30
0.0
  0
SPLINE
  5
105
100
AcDbEntity
  8
Capa_1
 62
7
100
AcDbSpline
 70
8
 71
3
 72
8
 73
4
 74
0
 40
0
 40
0
 40
0
 40
0
 40
1
 40
1
 40
1
 40
1
 10
117.356328
 20
49.030490
 30
0.0
 10
117.127576
 20
47.922322
 30
0.0
 10
116.875952
 20
46.829402
 30
0.0
 10
116.601456
 20
45.751738
 30
0.0
  0
SPLINE
  5
106
100
AcDbEntity
  8
Capa_1
 62
7
100
AcDbSpline
 70
8
 71
3
 72
8
 73
4
 74
0
 40
0
 40
0
 40
0
 40
0
 40
1
 40
1
 40
1
 40
1
 10
116.601456
 20
45.751738
 30
0.0
 10
116.326952
 20
44.674074
 30
0.0
 10
116.029576
 20
43.611658
 30
0.0
 10
115.709328
 20
42.564490
 30
0.0
  0
SPLINE
  5
107
100
AcDbEntity
  8
Capa_1
 62
7
100
AcDbSpline
 70
8
 71
3
 72
8
 73
4
 74
0
 40
0
 40
0
 40
0
 40
0
 40
1
 40
1
 40
1
 40
1
 10
115.709328
 20
42.564490
 30
0.0
 10
115.389080
 20
41.517322
 30
0.0
 10
115.045952
 20
40.485402
 30
0.0
 10
114.679952
 20
39.468738
 30
0.0
  0
SPLINE
  5
108
100
AcDbEntity
  8
Capa_1
 62
7
100
AcDbSpline
 70
8
 71
3
 72
8
 73
4
 74
0
 40
0
 40
0
 40
0
 40
0
 40
1
 40
1
 40
1
 40
1
 10
114.679952
 20
39.468738
 30
0.0
 10
114.313952
 20
38.452074
 30
0.0
 10
113.928888
 20
37.453194
 30
0.0
 10
113.524768
 20
36.472114
 30
0.0
  0
SPLINE
  5
109
100
AcDbEntity
  8
Capa_1
 62
7
100
AcDbSpline
 70
8
 71
3
 72
8
 73
4
 74
0
 40
0
 40
0
 40
0
 40
0
 40
1
 40
1
 40
1
 40
1
 10
113.524768
 20
36.472114
 30
0.0
 10
113.120648
 20
35.491026
 30
0.0
 10
112.697456
 20
34.527738
 30
0.0
 10
112.255216
 20
33.582242
 30
0.0
  0
SPLINE
  5
10a
100
AcDbEntity
  8
Capa_1
 62
7
100
AcDbSpline
 70
8
 71
3
 72
8
 73
4
 74
0
 40
0
 40
0
 40
0
 40
0
 40
1
 40
1
 40
1
 40
1
 10
112.255216
 20
33.582242
 30
0.0
 10
111.812968
 20
32.636738
 30
0.0
 10
111.351664
 20
31.709026
 30
0.0
 10
110.871288
 20
30.799114
 30
0.0
  0
SPLINE
  5
10b
100
AcDbEntity
  8
Capa_1
 62
7
100
AcDbSpline
 70
8
 71
3
 72
8
 73
4
 74
0
 40
0
 40
0
 40
0
 40
0
 40
1
 40
1
 40
1
 40
1
 10
110.871288
 20
30.799114
 30
0.0
 10
110.390920
 20
29.889194
 30
0.0
 10
109.891488
 20
28.997074
 30
0.0
 10
109.373000
 20
28.122738
 30
0.0
  0
SPLINE
  5
10c
100
AcDbEntity
  8
Capa_1
 62
7
100
AcDbSpline
 70
8
 71
3
 72
8
 73
4
 74
0
 40
0
 40
0
 40
0
 40
0
 40
1
 40
1
 40
1
 40
1
 10
109.373000
 20
28.122738
 30
0.0
 10
108.854504
 20
27.248402
 30
0.0
 10
108.316952
 20
26.391866
 30
0.0
 10
107.760336
 20
25.553114
 30
0.0
  0
SPLINE
  5
10d
100
AcDbEntity
  8
Capa_1
 62
7
100
AcDbSpline
 70
8
 71
3
 72
8
 73
4
 74
0
 40
0
 40
0
 40
0
 40
0
 40
1
 40
1
 40
1
 40
1
 10
107.760336
 20
25.553114
 30
0.0
 10
107.203728
 20
24.714362
 30
0.0
 10
106.628048
 20
23.893402
 30
0.0
 10
106.033312
 20
23.090234
 30
0.0
  0
SPLINE
  5
10e
100
AcDbEntity
  8
Capa_1
 62
7
100
AcDbSpline
 70
8
 71
3
 72
8
 73
4
 74
0
 40
0
 40
0
 40
0
 40
0
 40
1
 40
1
 40
1
 40
1
 10
106.033312
 20
23.090234
 30
0.0
 10
105.438568
 20
22.287074
 30
0.0
 10
104.824776
 20
21.501698
 30
0.0
 10
104.191912
 20
20.734114
 30
0.0
  0
SPLINE
  5
10f
100
AcDbEntity
  8
Capa_1
 62
7
100
AcDbSpline
 70
8
 71
3
 72
8
 73
4
 74
0
 40
0
 40
0
 40
0
 40
0
 40
1
 40
1
 40
1
 40
1
 10
104.191912
 20
20.734114
 30
0.0
 10
103.559048
 20
19.966530
 30
0.0
 10
102.907120
 20
19.216738
 30
0.0
 10
102.236160
 20
18.484738
 30
0.0
  0
SPLINE
  5
110
100
AcDbEntity
  8
Capa_1
 62
7
100
AcDbSpline
 70
8
 71
3
 72
8
 73
4
 74
0
 40
0
 40
0
 40
0
 40
0
 40
1
 40
1
 40
1
 40
1
 10
102.236160
 20
18.484738
 30
0.0
 10
101.585520
 20
17.752738
 30
0.0
 10
100.918320
 20
17.041074
 30
0.0
 10
100.234560
 20
16.349738
 30
0.0
  0
SPLINE
  5
111
100
AcDbEntity
  8
Capa_1
 62
7
100
AcDbSpline
 70
8
 71
3
 72
8
 73
4
 74
0
 40
0
 40
0
 40
0
 40
0
 40
1
 40
1
 40
1
 40
1
 10
100.234560
 20
16.349738
 30
0.0
 10
99.550880
 20
15.658402
 30
0.0
 10
98.850640
 20
14.987402
 30
0.0
 10
98.133920
 20
14.336738
 30
0.0
  0
SPLINE
  5
112
100
AcDbEntity
  8
Capa_1
 62
7
100
AcDbSpline
 70
8
 71
3
 72
8
 73
4
 74
0
 40
0
 40
0
 40
0
 40
0
 40
1
 40
1
 40
1
 40
1
 10
98.133920
 20
14.336738
 30
0.0
 10
97.417200
 20
13.686074
 30
0.0
 10
96.683920
 20
13.055738
 30
0.0
 10
95.934080
 20
12.445738
 30
0.0
  0
SPLINE
  5
113
100
AcDbEntity
  8
Capa_1
 62
7
100
AcDbSpline
 70
8
 71
3
 72
8
 73
4
 74
0
 40
0
 40
0
 40
0
 40
0
 40
1
 40
1
 40
1
 40
1
 10
95.934080
 20
12.445738
 30
0.0
 10
95.184320
 20
11.835738
 30
0.0
 10
94.418000
 20
11.246074
 30
0.0
 10
93.635120
 20
10.676738
 30
0.0
  0
SPLINE
  5
114
100
AcDbEntity
  8
Capa_1
 62
7
100
AcDbSpline
 70
8
 71
3
 72
8
 73
4
 74
0
 40
0
 40
0
 40
0
 40
0
 40
1
 40
1
 40
1
 40
1
 10
93.635120
 20
10.676738
 30
0.0
 10
92.852320
 20
10.107402
 30
0.0
 10
92.052960
 20
9.558402
 30
0.0
 10
91.237120
 20
9.029738
 30
0.0
  0
SPLINE
  5
115
100
AcDbEntity
  8
Capa_1
 62
7
100
AcDbSpline
 70
8
 71
3
 72
8
 73
4
 74
0
 40
0
 40
0
 40
0
 40
0
 40
1
 40
1
 40
1
 40
1
 10
91.237120
 20
9.029738
 30
0.0
 10
90.421200
 20
8.501074
 30
0.0
 10
89.588800
 20
7.992738
 30
0.0
 10
88.739920
 20
7.504738
 30
0.0
  0
SPLINE
  5
116
100
AcDbEntity
  8
Capa_1
 62
7
100
AcDbSpline
 70
8
 71
3
 72
8
 73
4
 74
0
 40
0
 40
0
 40
0
 40
0
 40
1
 40
1
 40
1
 40
1
 10
88.739920
 20
7.504738
 30
0.0
 10
87.890960
 20
7.016738
 30
0.0
 10
87.025520
 20
6.549074
 30
0.0
 10
86.143600
 20
6.101738
 30
0.0
  0
SPLINE
  5
117
100
AcDbEntity
  8
Capa_1
 62
7
100
AcDbSpline
 70
8
 71
3
 72
8
 73
4
 74
0
 40
0
 40
0
 40
0
 40
0
 40
1
 40
1
 40
1
 40
1
 10
86.143600
 20
6.101738
 30
0.0
 10
85.261600
 20
5.654402
 30
0.0
 10
84.363200
 20
5.227402
 30
0.0
 10
83.448160
 20
4.820738
 30
0.0
  0
SPLINE
  5
118
100
AcDbEntity
  8
Capa_1
 62
7
100
AcDbSpline
 70
8
 71
3
 72
8
 73
4
 74
0
 40
0
 40
0
 40
0
 40
0
 40
1
 40
1
 40
1
 40
1
 10
83.448160
 20
4.820738
 30
0.0
 10
82.533200
 20
4.434402
 30
0.0
 10
81.608000
 20
4.072218
 30
0.0
 10
80.672640
 20
3.734178
 30
0.0
  0
SPLINE
  5
119
100
AcDbEntity
  8
Capa_1
 62
7
100
AcDbSpline
 70
8
 71
3
 72
8
 73
4
 74
0
 40
0
 40
0
 40
0
 40
0
 40
1
 40
1
 40
1
 40
1
 10
80.672640
 20
3.734178
 30
0.0
 10
79.737360
 20
3.396130
 30
0.0
 10
78.791840
 20
3.082242
 30
0.0
 10
77.836160
 20
2.792490
 30
0.0
  0
SPLINE
  5
11a
100
AcDbEntity
  8
Capa_1
 62
7
100
AcDbSpline
 70
8
 71
3
 72
8
 73
4
 74
0
 40
0
 40
0
 40
0
 40
0
 40
1
 40
1
 40
1
 40
1
 10
77.836160
 20
2.792490
 30
0.0
 10
76.880480
 20
2.502738
 30
0.0
 10
75.914640
 20
2.237130
 30
0.0
 10
74.938640
 20
1.995674
 30
0.0
  0
SPLINE
  5
11b
100
AcDbEntity
  8
Capa_1
 62
7
100
AcDbSpline
 70
8
 71
3
 72
8
 73
4
 74
0
 40
0
 40
0
 40
0
 40
0
 40
1
 40
1
 40
1
 40
1
 10
74.938640
 20
1.995674
 30
0.0
 10
73.962640
 20
1.754218
 30
0.0
 10
72.976480
 20
1.536906
 30
0.0
 10
71.980160
 20
1.343738
 30
0.0
  0
SPLINE
  5
11c
100
AcDbEntity
  8
Capa_1
 62
7
100
AcDbSpline
 70
8
 71
3
 72
8
 73
4
 74
0
 40
0
 40
0
 40
0
 40
0
 40
1
 40
1
 40
1
 40
1
 10
71.980160
 20
1.343738
 30
0.0
 10
70.983840
 20
1.150570
 30
0.0
 10
69.977360
 20
0.981554
 30
0.0
 10
68.960640
 20
0.836674
 30
0.0
  0
SPLINE
  5
11d
100
AcDbEntity
  8
Capa_1
 62
7
100
AcDbSpline
 70
8
 71
3
 72
8
 73
4
 74
0
 40
0
 40
0
 40
0
 40
0
 40
1
 40
1
 40
1
 40
1
 10
68.960640
 20
0.836674
 30
0.0
 10
67.944000
 20
0.691802
 30
0.0
 10
66.917120
 20
0.571074
 30
0.0
 10
65.880160
 20
0.474490
 30
0.0
  0
SPLINE
  5
11e
100
AcDbEntity
  8
Capa_1
 62
7
100
AcDbSpline
 70
8
 71
3
 72
8
 73
4
 74
0
 40
0
 40
0
 40
0
 40
0
 40
1
 40
1
 40
1
 40
1
 10
65.880160
 20
0.474490
 30
0.0
 10
64.843120
 20
0.377906
 30
0.0
 10
63.796000
 20
0.305466
 30
0.0
 10
62.738640
 20
0.257178
 30
0.0
  0
SPLINE
  5
11f
100
AcDbEntity
  8
Capa_1
 62
7
100
AcDbSpline
 70
8
 71
3
 72
8
 73
4
 74
0
 40
0
 40
0
 40
0
 40
0
 40
1
 40
1
 40
1
 40
1
 10
62.738640
 20
0.257178
 30
0.0
 10
61.681360
 20
0.208858
 30
0.0
 10
60.613840
 20
0.184698
 30
0.0
 10
59.536160
 20
0.184698
 30
0.0
  0
SPLINE
  5
120
100
AcDbEntity
  8
Capa_1
 62
7
100
AcDbSpline
 70
8
 71
3
 72
8
 73
4
 74
0
 40
0
 40
0
 40
0
 40
0
 40
1
 40
1
 40
1
 40
1
 10
59.536160
 20
0.184698
 30
0.0
 10
58.458480
 20
0.184698
 30
0.0
 10
57.390960
 20
0.208858
 30
0.0
 10
56.333680
 20
0.257178
 30
0.0
  0
SPLINE
  5
121
100
AcDbEntity
  8
Capa_1
 62
7
100
AcDbSpline
 70
8
 71
3
 72
8
 73
4
 74
0
 40
0
 40
0
 40
0
 40
0
 40
1
 40
1
 40
1
 40
1
 10
56.333680
 20
0.257178
 30
0.0
 10
55.276320
 20
0.305498
 30
0.0
 10
54.229120
 20
0.377906
 30
0.0
 10
53.192160
 20
0.474490
 30
0.0
  0
SPLINE
  5
122
100
AcDbEntity
  8
Capa_1
 62
7
100
AcDbSpline
 70
8
 71
3
 72
8
 73
4
 74
0
 40
0
 40
0
 40
0
 40
0
 40
1
 40
1
 40
1
 40
1
 10
53.192160
 20
0.474490
 30
0.0
 10
52.155120
 20
0.571074
 30
0.0
 10
51.128320
 20
0.691802
 30
0.0
 10
50.111680
 20
0.836674
 30
0.0
  0
SPLINE
  5
123
100
AcDbEntity
  8
Capa_1
 62
7
100
AcDbSpline
 70
8
 71
3
 72
8
 73
4
 74
0
 40
0
 40
0
 40
0
 40
0
 40
1
 40
1
 40
1
 40
1
 10
50.111680
 20
0.836674
 30
0.0
 10
49.094960
 20
0.981554
 30
0.0
 10
48.088480
 20
1.150570
 30
0.0
 10
47.092160
 20
1.343738
 30
0.0
  0
SPLINE
  5
124
100
AcDbEntity
  8
Capa_1
 62
7
100
AcDbSpline
 70
8
 71
3
 72
8
 73
4
 74
0
 40
0
 40
0
 40
0
 40
0
 40
1
 40
1
 40
1
 40
1
 10
47.092160
 20
1.343738
 30
0.0
 10
46.095840
 20
1.536906
 30
0.0
 10
45.109680
 20
1.754218
 30
0.0
 10
44.133680
 20
1.995674
 30
0.0
  0
SPLINE
  5
125
100
AcDbEntity
  8
Capa_1
 62
7
100
AcDbSpline
 70
8
 71
3
 72
8
 73
4
 74
0
 40
0
 40
0
 40
0
 40
0
 40
1
 40
1
 40
1
 40
1
 10
44.133680
 20
1.995674
 30
0.0
 10
43.157680
 20
2.237130
 30
0.0
 10
42.191840
 20
2.502738
 30
0.0
 10
41.236160
 20
2.792490
 30
0.0
  0
SPLINE
  5
126
100
AcDbEntity
  8
Capa_1
 62
7
100
AcDbSpline
 70
8
 71
3
 72
8
 73
4
 74
0
 40
0
 40
0
 40
0
 40
0
 40
1
 40
1
 40
1
 40
1
 10
41.236160
 20
2.792490
 30
0.0
 10
40.280480
 20
3.082234
 30
0.0
 10
39.334960
 20
3.396130
 30
0.0
 10
38.399680
 20
3.734178
 30
0.0
  0
SPLINE
  5
127
100
AcDbEntity
  8
Capa_1
 62
7
100
AcDbSpline
 70
8
 71
3
 72
8
 73
4
 74
0
 40
0
 40
0
 40
0
 40
0
 40
1
 40
1
 40
1
 40
1
 10
38.399680
 20
3.734178
 30
0.0
 10
37.464320
 20
4.072218
 30
0.0
 10
36.539120
 20
4.434402
 30
0.0
 10
35.624160
 20
4.820738
 30
0.0
  0
SPLINE
  5
128
100
AcDbEntity
  8
Capa_1
 62
7
100
AcDbSpline
 70
8
 71
3
 72
8
 73
4
 74
0
 40
0
 40
0
 40
0
 40
0
 40
1
 40
1
 40
1
 40
1
 10
35.624160
 20
4.820738
 30
0.0
 10
34.709120
 20
5.227402
 30
0.0
 10
33.809440
 20
5.654402
 30
0.0
 10
32.924880
 20
6.101738
 30
0.0
  0
SPLINE
  5
129
100
AcDbEntity
  8
Capa_1
 62
7
100
AcDbSpline
 70
8
 71
3
 72
8
 73
4
 74
0
 40
0
 40
0
 40
0
 40
0
 40
1
 40
1
 40
1
 40
1
 10
32.924880
 20
6.101738
 30
0.0
 10
32.040400
 20
6.549074
 30
0.0
 10
31.171120
 20
7.016738
 30
0.0
 10
30.317200
 20
7.504738
 30
0.0
  0
SPLINE
  5
12a
100
AcDbEntity
  8
Capa_1
 62
7
100
AcDbSpline
 70
8
 71
3
 72
8
 73
4
 74
0
 40
0
 40
0
 40
0
 40
0
 40
1
 40
1
 40
1
 40
1
 10
30.317200
 20
7.504738
 30
0.0
 10
29.463200
 20
7.992738
 30
0.0
 10
28.624400
 20
8.501074
 30
0.0
 10
27.800880
 20
9.029738
 30
0.0
  0
SPLINE
  5
12b
100
AcDbEntity
  8
Capa_1
 62
7
100
AcDbSpline
 70
8
 71
3
 72
8
 73
4
 74
0
 40
0
 40
0
 40
0
 40
0
 40
1
 40
1
 40
1
 40
1
 10
27.800880
 20
9.029738
 30
0.0
 10
26.977440
 20
9.558402
 30
0.0
 10
26.169120
 20
10.107402
 30
0.0
 10
25.376160
 20
10.676738
 30
0.0
  0
SPLINE
  5
12c
100
AcDbEntity
  8
Capa_1
 62
7
100
AcDbSpline
 70
8
 71
3
 72
8
 73
4
 74
0
 40
0
 40
0
 40
0
 40
0
 40
1
 40
1
 40
1
 40
1
 10
25.376160
 20
10.676738
 30
0.0
 10
24.583120
 20
11.246074
 30
0.0
 10
23.805440
 20
11.835738
 30
0.0
 10
23.042880
 20
12.445738
 30
0.0
  0
SPLINE
  5
12d
100
AcDbEntity
  8
Capa_1
 62
7
100
AcDbSpline
 70
8
 71
3
 72
8
 73
4
 74
0
 40
0
 40
0
 40
0
 40
0
 40
1
 40
1
 40
1
 40
1
 10
23.042880
 20
12.445738
 30
0.0
 10
22.280400
 20
13.055738
 30
0.0
 10
21.533120
 20
13.686074
 30
0.0
 10
20.801120
 20
14.336738
 30
0.0
  0
SPLINE
  5
12e
100
AcDbEntity
  8
Capa_1
 62
7
100
AcDbSpline
 70
8
 71
3
 72
8
 73
4
 74
0
 40
0
 40
0
 40
0
 40
0
 40
1
 40
1
 40
1
 40
1
 10
20.801120
 20
14.336738
 30
0.0
 10
20.069120
 20
14.987402
 30
0.0
 10
19.352400
 20
15.658402
 30
0.0
 10
18.650880
 20
16.349738
 30
0.0
  0
SPLINE
  5
12f
100
AcDbEntity
  8
Capa_1
 62
7
100
AcDbSpline
 70
8
 71
3
 72
8
 73
4
 74
0
 40
0
 40
0
 40
0
 40
0
 40
1
 40
1
 40
1
 40
1
 10
18.650880
 20
16.349738
 30
0.0
 10
17.949440
 20
17.041074
 30
0.0
 10
17.263120
 20
17.752738
 30
0.0
 10
16.592160
 20
18.484738
 30
0.0
  0
SPLINE
  5
130
100
AcDbEntity
  8
Capa_1
 62
7
100
AcDbSpline
 70
8
 71
3
 72
8
 73
4
 74
0
 40
0
 40
0
 40
0
 40
0
 40
1
 40
1
 40
1
 40
1
 10
16.592160
 20
18.484738
 30
0.0
 10
15.941520
 20
19.216738
 30
0.0
 10
15.308640
 20
19.966530
 30
0.0
 10
14.693520
 20
20.734114
 30
0.0
  0
SPLINE
  5
131
100
AcDbEntity
  8
Capa_1
 62
7
100
AcDbSpline
 70
8
 71
3
 72
8
 73
4
 74
0
 40
0
 40
0
 40
0
 40
0
 40
1
 40
1
 40
1
 40
1
 10
14.693520
 20
20.734114
 30
0.0
 10
14.078480
 20
21.501698
 30
0.0
 10
13.481120
 20
22.287074
 30
0.0
 10
12.901680
 20
23.090242
 30
0.0
  0
SPLINE
  5
132
100
AcDbEntity
  8
Capa_1
 62
7
100
AcDbSpline
 70
8
 71
3
 72
8
 73
4
 74
0
 40
0
 40
0
 40
0
 40
0
 40
1
 40
1
 40
1
 40
1
 10
12.901680
 20
23.090242
 30
0.0
 10
12.322160
 20
23.893402
 30
0.0
 10
11.760480
 20
24.714362
 30
0.0
 10
11.216560
 20
25.553114
 30
0.0
  0
SPLINE
  5
133
100
AcDbEntity
  8
Capa_1
 62
7
100
AcDbSpline
 70
8
 71
3
 72
8
 73
4
 74
0
 40
0
 40
0
 40
0
 40
0
 40
1
 40
1
 40
1
 40
1
 10
11.216560
 20
25.553114
 30
0.0
 10
10.672640
 20
26.391866
 30
0.0
 10
10.146480
 20
27.248402
 30
0.0
 10
9.638160
 20
28.122738
 30
0.0
  0
SPLINE
  5
134
100
AcDbEntity
  8
Capa_1
 62
7
100
AcDbSpline
 70
8
 71
3
 72
8
 73
4
 74
0
 40
0
 40
0
 40
0
 40
0
 40
1
 40
1
 40
1
 40
1
 10
9.638160
 20
28.122738
 30
0.0
 10
9.129840
 20
28.997074
 30
0.0
 10
8.639280
 20
29.889194
 30
0.0
 10
8.166560
 20
30.799114
 30
0.0
  0
SPLINE
  5
135
100
AcDbEntity
  8
Capa_1
 62
7
100
AcDbSpline
 70
8
 71
3
 72
8
 73
4
 74
0
 40
0
 40
0
 40
0
 40
0
 40
1
 40
1
 40
1
 40
1
 10
8.166560
 20
30.799114
 30
0.0
 10
7.693760
 20
31.709026
 30
0.0
 10
7.238800
 20
32.636738
 30
0.0
 10
6.801680
 20
33.582234
 30
0.0
  0
SPLINE
  5
136
100
AcDbEntity
  8
Capa_1
 62
7
100
AcDbSpline
 70
8
 71
3
 72
8
 73
4
 74
0
 40
0
 40
0
 40
0
 40
0
 40
1
 40
1
 40
1
 40
1
 10
6.801680
 20
33.582234
 30
0.0
 10
6.364480
 20
34.527738
 30
0.0
 10
5.945120
 20
35.491026
 30
0.0
 10
5.543520
 20
36.472114
 30
0.0
  0
SPLINE
  5
137
100
AcDbEntity
  8
Capa_1
 62
7
100
AcDbSpline
 70
8
 71
3
 72
8
 73
4
 74
0
 40
0
 40
0
 40
0
 40
0
 40
1
 40
1
 40
1
 40
1
 10
5.543520
 20
36.472114
 30
0.0
 10
5.141920
 20
37.453194
 30
0.0
 10
4.758160
 20
38.452074
 30
0.0
 10
4.392160
 20
39.468738
 30
0.0
  0
SPLINE
  5
138
100
AcDbEntity
  8
Capa_1
 62
7
100
AcDbSpline
 70
8
 71
3
 72
8
 73
4
 74
0
 40
0
 40
0
 40
0
 40
0
 40
1
 40
1
 40
1
 40
1
 10
4.392160
 20
39.468738
 30
0.0
 10
4.026160
 20
40.485402
 30
0.0
 10
3.683040
 20
41.517322
 30
0.0
 10
3.362800
 20
42.564490
 30
0.0
  0
SPLINE
  5
139
100
AcDbEntity
  8
Capa_1
 62
7
100
AcDbSpline
 70
8
 71
3
 72
8
 73
4
 74
0
 40
0
 40
0
 40
0
 40
0
 40
1
 40
1
 40
1
 40
1
 10
3.362800
 20
42.564490
 30
0.0
 10
3.042560
 20
43.611658
 30
0.0
 10
2.745200
 20
44.674074
 30
0.0
 10
2.470640
 20
45.751738
 30
0.0
  0
SPLINE
  5
13a
100
AcDbEntity
  8
Capa_1
 62
7
100
AcDbSpline
 70
8
 71
3
 72
8
 73
4
 74
0
 40
0
 40
0
 40
0
 40
0
 40
1
 40
1
 40
1
 40
1
 10
2.470640
 20
45.751738
 30
0.0
 10
2.196160
 20
46.829402
 30
0.0
 10
1.944560
 20
47.922322
 30
0.0
 10
1.715760
 20
49.030490
 30
0.0
  0
SPLINE
  5
13b
100
AcDbEntity
  8
Capa_1
 62
7
100
AcDbSpline
 70
8
 71
3
 72
8
 73
4
 74
0
 40
0
 40
0
 40
0
 40
0
 40
1
 40
1
 40
1
 40
1
 10
1.715760
 20
49.030490
 30
0.0
 10
1.487040
 20
50.138658
 30
0.0
 10
1.281120
 20
51.262074
 30
0.0
 10
1.098160
 20
52.400738
 30
0.0
  0
SPLINE
  5
13c
100
AcDbEntity
  8
Capa_1
 62
7
100
AcDbSpline
 70
8
 71
3
 72
8
 73
4
 74
0
 40
0
 40
0
 40
0
 40
0
 40
1
 40
1
 40
1
 40
1
 10
1.098160
 20
52.400738
 30
0.0
 10
0.915120
 20
53.539402
 30
0.0
 10
0.755040
 20
54.693322
 30
0.0
 10
0.617760
 20
55.862490
 30
0.0
  0
SPLINE
  5
13d
100
AcDbEntity
  8
Capa_1
 62
7
100
AcDbSpline
 70
8
 71
3
 72
8
 73
4
 74
0
 40
0
 40
0
 40
0
 40
0
 40
1
 40
1
 40
1
 40
1
 10
0.617760
 20
55.862490
 30
0.0
 10
0.480560
 20
57.031658
 30
0.0
 10
0.366160
 20
58.216074
 30
0.0
 10
0.274640
 20
59.415738
 30
0.0
  0
SPLINE
  5
13e
100
AcDbEntity
  8
Capa_1
 62
7
100
AcDbSpline
 70
8
 71
3
 72
8
 73
4
 74
0
 40
0
 40
0
 40
0
 40
0
 40
1
 40
1
 40
1
 40
1
 10
0.274640
 20
59.415738
 30
0.0
 10
0.183120
 20
60.615402
 30
0.0
 10
0.114560
 20
61.830322
 30
0.0
 10
0.068800
 20
63.060490
 30
0.0
  0
SPLINE
  5
13f
100
AcDbEntity
  8
Capa_1
 62
7
100
AcDbSpline
 70
8
 71
3
 72
8
 73
4
 74
0
 40
0
 40
0
 40
0
 40
0
 40
1
 40
1
 40
1
 40
1
 10
0.068800
 20
63.060490
 30
0.0
 10
0.023200
 20
64.290658
 30
0.0
 10
0.000000
 20
65.536074
 30
0.0
 10
0.000000
 20
66.796738
 30
0.0
  0
SPLINE
  5
140
100
AcDbEntity
  8
Capa_1
 62
7
100
AcDbSpline
 70
8
 71
3
 72
8
 73
4
 74
0
 40
0
 40
0
 40
0
 40
0
 40
1
 40
1
 40
1
 40
1
 10
0.000000
 20
66.796738
 30
0.0
 10
0.000000
 20
68.037074
 30
0.0
 10
0.023200
 20
69.263426
 30
0.0
 10
0.068800
 20
70.475802
 30
0.0
  0
SPLINE
  5
141
100
AcDbEntity
  8
Capa_1
 62
7
100
AcDbSpline
 70
8
 71
3
 72
8
 73
4
 74
0
 40
0
 40
0
 40
0
 40
0
 40
1
 40
1
 40
1
 40
1
 10
0.068800
 20
70.475802
 30
0.0
 10
0.114400
 20
71.688178
 30
0.0
 10
0.183120
 20
72.886570
 30
0.0
 10
0.274640
 20
74.070986
 30
0.0
  0
SPLINE
  5
142
100
AcDbEntity
  8
Capa_1
 62
7
100
AcDbSpline
 70
8
 71
3
 72
8
 73
4
 74
0
 40
0
 40
0
 40
0
 40
0
 40
1
 40
1
 40
1
 40
1
 10
0.274640
 20
74.070986
 30
0.0
 10
0.366160
 20
75.255402
 30
0.0
 10
0.480560
 20
76.425842
 30
0.0
 10
0.617760
 20
77.582298
 30
0.0
  0
SPLINE
  5
143
100
AcDbEntity
  8
Capa_1
 62
7
100
AcDbSpline
 70
8
 71
3
 72
8
 73
4
 74
0
 40
0
 40
0
 40
0
 40
0
 40
1
 40
1
 40
1
 40
1
 10
0.617760
 20
77.582298
 30
0.0
 10
0.755040
 20
78.738762
 30
0.0
 10
0.915120
 20
79.881234
 30
0.0
 10
1.098160
 20
81.009738
 30
0.0
  0
SPLINE
  5
144
100
AcDbEntity
  8
Capa_1
 62
7
100
AcDbSpline
 70
8
 71
3
 72
8
 73
4
 74
0
 40
0
 40
0
 40
0
 40
0
 40
1
 40
1
 40
1
 40
1
 10
1.098160
 20
81.009738
 30
0.0
 10
1.281120
 20
82.138242
 30
0.0
 10
1.487040
 20
83.252762
 30
0.0
 10
1.715760
 20
84.353298
 30
0.0
  0
SPLINE
  5
145
100
AcDbEntity
  8
Capa_1
 62
7
100
AcDbSpline
 70
8
 71
3
 72
8
 73
4
 74
0
 40
0
 40
0
 40
0
 40
0
 40
1
 40
1
 40
1
 40
1
 10
1.715760
 20
84.353298
 30
0.0
 10
1.944560
 20
85.453842
 30
0.0
 10
2.196160
 20
86.540402
 30
0.0
 10
2.470640
 20
87.612986
 30
0.0
  0
SPLINE
  5
146
100
AcDbEntity
  8
Capa_1
 62
7
100
AcDbSpline
 70
8
 71
3
 72
8
 73
4
 74
0
 40
0
 40
0
 40
0
 40
0
 40
1
 40
1
 40
1
 40
1
 10
2.470640
 20
87.612986
 30
0.0
 10
2.745200
 20
88.685570
 30
0.0
 10
3.042560
 20
89.744178
 30
0.0
 10
3.362800
 20
90.788802
 30
0.0
  0
SPLINE
  5
147
100
AcDbEntity
  8
Capa_1
 62
7
100
AcDbSpline
 70
8
 71
3
 72
8
 73
4
 74
0
 40
0
 40
0
 40
0
 40
0
 40
1
 40
1
 40
1
 40
1
 10
3.362800
 20
90.788802
 30
0.0
 10
3.683040
 20
91.833426
 30
0.0
 10
4.026160
 20
92.864074
 30
0.0
 10
4.392160
 20
93.880738
 30
0.0
  0
SPLINE
  5
148
100
AcDbEntity
  8
Capa_1
 62
7
100
AcDbSpline
 70
8
 71
3
 72
8
 73
4
 74
0
 40
0
 40
0
 40
0
 40
0
 40
1
 40
1
 40
1
 40
1
 10
4.392160
 20
93.880738
 30
0.0
 10
4.758160
 20
94.917738
 30
0.0
 10
5.141920
 20
95.935674
 30
0.0
 10
5.543520
 20
96.934554
 30
0.0
  0
SPLINE
  5
149
100
AcDbEntity
  8
Capa_1
 62
7
100
AcDbSpline
 70
8
 71
3
 72
8
 73
4
 74
0
 40
0
 40
0
 40
0
 40
0
 40
1
 40
1
 40
1
 40
1
 10
5.543520
 20
96.934554
 30
0.0
 10
5.945120
 20
97.933426
 30
0.0
 10
6.364480
 20
98.913242
 30
0.0
 10
6.801680
 20
99.873986
 30
0.0
  0
SPLINE
  5
14a
100
AcDbEntity
  8
Capa_1
 62
7
100
AcDbSpline
 70
8
 71
3
 72
8
 73
4
 74
0
 40
0
 40
0
 40
0
 40
0
 40
1
 40
1
 40
1
 40
1
 10
6.801680
 20
99.873986
 30
0.0
 10
7.238800
 20
100.834738
 30
0.0
 10
7.693760
 20
101.776426
 30
0.0
 10
8.166560
 20
102.699050
 30
0.0
  0
SPLINE
  5
14b
100
AcDbEntity
  8
Capa_1
 62
7
100
AcDbSpline
 70
8
 71
3
 72
8
 73
4
 74
0
 40
0
 40
0
 40
0
 40
0
 40
1
 40
1
 40
1
 40
1
 10
8.166560
 20
102.699050
 30
0.0
 10
8.639280
 20
103.621674
 30
0.0
 10
9.129840
 20
104.525242
 30
0.0
 10
9.638160
 20
105.409738
 30
0.0
  0
SPLINE
  5
14c
100
AcDbEntity
  8
Capa_1
 62
7
100
AcDbSpline
 70
8
 71
3
 72
8
 73
4
 74
0
 40
0
 40
0
 40
0
 40
0
 40
1
 40
1
 40
1
 40
1
 10
9.638160
 20
105.409738
 30
0.0
 10
10.146480
 20
106.294234
 30
0.0
 10
10.672640
 20
107.159674
 30
0.0
 10
11.216560
 20
108.006050
 30
0.0
  0
SPLINE
  5
14d
100
AcDbEntity
  8
Capa_1
 62
7
100
AcDbSpline
 70
8
 71
3
 72
8
 73
4
 74
0
 40
0
 40
0
 40
0
 40
0
 40
1
 40
1
 40
1
 40
1
 10
11.216560
 20
108.006050
 30
0.0
 10
11.760480
 20
108.852426
 30
0.0
 10
12.322160
 20
109.679738
 30
0.0
 10
12.901680
 20
110.487986
 30
0.0
  0
SPLINE
  5
14e
100
AcDbEntity
  8
Capa_1
 62
7
100
AcDbSpline
 70
8
 71
3
 72
8
 73
4
 74
0
 40
0
 40
0
 40
0
 40
0
 40
1
 40
1
 40
1
 40
1
 10
12.901680
 20
110.487986
 30
0.0
 10
13.481120
 20
111.296234
 30
0.0
 10
14.078480
 20
112.085426
 30
0.0
 10
14.693520
 20
112.855554
 30
0.0
  0
SPLINE
  5
14f
100
AcDbEntity
  8
Capa_1
 62
7
100
AcDbSpline
 70
8
 71
3
 72
8
 73
4
 74
0
 40
0
 40
0
 40
0
 40
0
 40
1
 40
1
 40
1
 40
1
 10
14.693520
 20
112.855554
 30
0.0
 10
15.308640
 20
113.625674
 30
0.0
 10
15.941520
 20
114.376738
 30
0.0
 10
16.592160
 20
115.108738
 30
0.0
  0
SPLINE
  5
150
100
AcDbEntity
  8
Capa_1
 62
7
100
AcDbSpline
 70
8
 71
3
 72
8
 73
4
 74
0
 40
0
 40
0
 40
0
 40
0
 40
1
 40
1
 40
1
 40
1
 10
16.592160
 20
115.108738
 30
0.0
 10
17.263120
 20
115.840738
 30
0.0
 10
17.949440
 20
116.551130
 30
0.0
 10
18.650880
 20
117.239922
 30
0.0
  0
SPLINE
  5
151
100
AcDbEntity
  8
Capa_1
 62
7
100
AcDbSpline
 70
8
 71
3
 72
8
 73
4
 74
0
 40
0
 40
0
 40
0
 40
0
 40
1
 40
1
 40
1
 40
1
 10
18.650880
 20
117.239922
 30
0.0
 10
19.352400
 20
117.928714
 30
0.0
 10
20.069120
 20
118.595906
 30
0.0
 10
20.801120
 20
119.241490
 30
0.0
  0
SPLINE
  5
152
100
AcDbEntity
  8
Capa_1
 62
7
100
AcDbSpline
 70
8
 71
3
 72
8
 73
4
 74
0
 40
0
 40
0
 40
0
 40
0
 40
1
 40
1
 40
1
 40
1
 10
20.801120
 20
119.241490
 30
0.0
 10
21.533120
 20
119.887074
 30
0.0
 10
22.280400
 20
120.511050
 30
0.0
 10
23.042880
 20
121.113426
 30
0.0
  0
SPLINE
  5
153
100
AcDbEntity
  8
Capa_1
 62
7
100
AcDbSpline
 70
8
 71
3
 72
8
 73
4
 74
0
 40
0
 40
0
 40
0
 40
0
 40
1
 40
1
 40
1
 40
1
 10
23.042880
 20
121.113426
 30
0.0
 10
23.805440
 20
121.715802
 30
0.0
 10
24.583120
 20
122.296570
 30
0.0
 10
25.376160
 20
122.855738
 30
0.0
  0
SPLINE
  5
154
100
AcDbEntity
  8
Capa_1
 62
7
100
AcDbSpline
 70
8
 71
3
 72
8
 73
4
 74
0
 40
0
 40
0
 40
0
 40
0
 40
1
 40
1
 40
1
 40
1
 10
25.376160
 20
122.855738
 30
0.0
 10
26.169120
 20
123.414906
 30
0.0
 10
26.977440
 20
123.952466
 30
0.0
 10
27.800880
 20
124.468426
 30
0.0
  0
SPLINE
  5
155
100
AcDbEntity
  8
Capa_1
 62
7
100
AcDbSpline
 70
8
 71
3
 72
8
 73
4
 74
0
 40
0
 40
0
 40
0
 40
0
 40
1
 40
1
 40
1
 40
1
 10
27.800880
 20
124.468426
 30
0.0
 10
28.624400
 20
124.984386
 30
0.0
 10
29.463200
 20
125.478738
 30
0.0
 10
30.317200
 20
125.951490
 30
0.0
  0
SPLINE
  5
156
100
AcDbEntity
  8
Capa_1
 62
7
100
AcDbSpline
 70
8
 71
3
 72
8
 73
4
 74
0
 40
0
 40
0
 40
0
 40
0
 40
1
 40
1
 40
1
 40
1
 10
30.317200
 20
125.951490
 30
0.0
 10
31.171120
 20
126.424242
 30
0.0
 10
32.040400
 20
126.875386
 30
0.0
 10
32.924880
 20
127.304922
 30
0.0
  0
SPLINE
  5
157
100
AcDbEntity
  8
Capa_1
 62
7
100
AcDbSpline
 70
8
 71
3
 72
8
 73
4
 74
0
 40
0
 40
0
 40
0
 40
0
 40
1
 40
1
 40
1
 40
1
 10
32.924880
 20
127.304922
 30
0.0
 10
33.809440
 20
127.734466
 30
0.0
 10
34.709120
 20
128.142402
 30
0.0
 10
35.624160
 20
128.528738
 30
0.0
  0
SPLINE
  5
158
100
AcDbEntity
  8
Capa_1
 62
7
100
AcDbSpline
 70
8
 71
3
 72
8
 73
4
 74
0
 40
0
 40
0
 40
0
 40
0
 40
1
 40
1
 40
1
 40
1
 10
35.624160
 20
128.528738
 30
0.0
 10
36.539120
 20
128.935402
 30
0.0
 10
37.464320
 20
129.316658
 30
0.0
 10
38.399680
 20
129.672490
 30
0.0
  0
SPLINE
  5
159
100
AcDbEntity
  8
Capa_1
 62
7
100
AcDbSpline
 70
8
 71
3
 72
8
 73
4
 74
0
 40
0
 40
0
 40
0
 40
0
 40
1
 40
1
 40
1
 40
1
 10
38.399680
 20
129.672490
 30
0.0
 10
39.334960
 20
130.028322
 30
0.0
 10
40.280480
 20
130.358738
 30
0.0
 10
41.236160
 20
130.663738
 30
0.0
  0
SPLINE
  5
15a
100
AcDbEntity
  8
Capa_1
 62
7
100
AcDbSpline
 70
8
 71
3
 72
8
 73
4
 74
0
 40
0
 40
0
 40
0
 40
0
 40
1
 40
1
 40
1
 40
1
 10
41.236160
 20
130.663738
 30
0.0
 10
42.191840
 20
130.968738
 30
0.0
 10
43.157680
 20
131.248322
 30
0.0
 10
44.133680
 20
131.502490
 30
0.0
  0
SPLINE
  5
15b
100
AcDbEntity
  8
Capa_1
 62
7
100
AcDbSpline
 70
8
 71
3
 72
8
 73
4
 74
0
 40
0
 40
0
 40
0
 40
0
 40
1
 40
1
 40
1
 40
1
 10
44.133680
 20
131.502490
 30
0.0
 10
45.109680
 20
131.756658
 30
0.0
 10
46.095840
 20
131.985402
 30
0.0
 10
47.092160
 20
132.188738
 30
0.0
  0
SPLINE
  5
15c
100
AcDbEntity
  8
Capa_1
 62
7
100
AcDbSpline
 70
8
 71
3
 72
8
 73
4
 74
0
 40
0
 40
0
 40
0
 40
0
 40
1
 40
1
 40
1
 40
1
 10
47.092160
 20
132.188738
 30
0.0
 10
48.088480
 20
132.392074
 30
0.0
 10
49.094960
 20
132.569986
 30
0.0
 10
50.111680
 20
132.722490
 30
0.0
  0
SPLINE
  5
15d
100
AcDbEntity
  8
Capa_1
 62
7
100
AcDbSpline
 70
8
 71
3
 72
8
 73
4
 74
0
 40
0
 40
0
 40
0
 40
0
 40
1
 40
1
 40
1
 40
1
 10
50.111680
 20
132.722490
 30
0.0
 10
51.128320
 20
132.874986
 30
0.0
 10
52.155120
 20
133.002074
 30
0.0
 10
53.192160
 20
133.103738
 30
0.0
  0
SPLINE
  5
15e
100
AcDbEntity
  8
Capa_1
 62
7
100
AcDbSpline
 70
8
 71
3
 72
8
 73
4
 74
0
 40
0
 40
0
 40
0
 40
0
 40
1
 40
1
 40
1
 40
1
 10
53.192160
 20
133.103738
 30
0.0
 10
54.229120
 20
133.205402
 30
0.0
 10
55.276320
 20
133.281658
 30
0.0
 10
56.333680
 20
133.332490
 30
0.0
  0
SPLINE
  5
15f
100
AcDbEntity
  8
Capa_1
 62
7
100
AcDbSpline
 70
8
 71
3
 72
8
 73
4
 74
0
 40
0
 40
0
 40
0
 40
0
 40
1
 40
1
 40
1
 40
1
 10
56.333680
 20
133.332490
 30
0.0
 10
57.390960
 20
133.383290
 30
0.0
 10
58.458480
 20
133.408730
 30
0.0
 10
59.536160
 20
133.408730
 30
0.0
  0
SPLINE
  5
160
100
AcDbEntity
  8
Capa_1
 62
7
100
AcDbSpline
 70
8
 71
3
 72
8
 73
4
 74
0
 40
0
 40
0
 40
0
 40
0
 40
1
 40
1
 40
1
 40
1
 10
59.536160
 20
133.408730
 30
0.0
 10
60.613840
 20
133.408730
 30
0.0
 10
61.681360
 20
133.383290
 30
0.0
 10
62.738640
 20
133.332490
 30
0.0
  0
SPLINE
  5
161
100
AcDbEntity
  8
Capa_1
 62
7
100
AcDbSpline
 70
8
 71
3
 72
8
 73
4
 74
0
 40
0
 40
0
 40
0
 40
0
 40
1
 40
1
 40
1
 40
1
 10
62.738640
 20
133.332490
 30
0.0
 10
63.796000
 20
133.281690
 30
0.0
 10
64.843120
 20
133.205402
 30
0.0
 10
65.880160
 20
133.103738
 30
0.0
  0
SPLINE
  5
162
100
AcDbEntity
  8
Capa_1
 62
7
100
AcDbSpline
 70
8
 71
3
 72
8
 73
4
 74
0
 40
0
 40
0
 40
0
 40
0
 40
1
 40
1
 40
1
 40
1
 10
65.880160
 20
133.103738
 30
0.0
 10
66.917120
 20
133.002074
 30
0.0
 10
67.944000
 20
132.874986
 30
0.0
 10
68.960640
 20
132.722490
 30
0.0
  0
SPLINE
  5
163
100
AcDbEntity
  8
Capa_1
 62
7
100
AcDbSpline
 70
8
 71
3
 72
8
 73
4
 74
0
 40
0
 40
0
 40
0
 40
0
 40
1
 40
1
 40
1
 40
1
 10
68.960640
 20
132.722490
 30
0.0
 10
69.977360
 20
132.569986
 30
0.0
 10
70.983840
 20
132.392074
 30
0.0
 10
71.980160
 20
132.188738
 30
0.0
  0
SPLINE
  5
164
100
AcDbEntity
  8
Capa_1
 62
7
100
AcDbSpline
 70
8
 71
3
 72
8
 73
4
 74
0
 40
0
 40
0
 40
0
 40
0
 40
1
 40
1
 40
1
 40
1
 10
71.980160
 20
132.188738
 30
0.0
 10
72.976480
 20
131.985402
 30
0.0
 10
73.962640
 20
131.756658
 30
0.0
 10
74.938640
 20
131.502490
 30
0.0
  0
SPLINE
  5
165
100
AcDbEntity
  8
Capa_1
 62
7
100
AcDbSpline
 70
8
 71
3
 72
8
 73
4
 74
0
 40
0
 40
0
 40
0
 40
0
 40
1
 40
1
 40
1
 40
1
 10
74.938640
 20
131.502490
 30
0.0
 10
75.914640
 20
131.248322
 30
0.0
 10
76.880480
 20
130.968738
 30
0.0
 10
77.836160
 20
130.663738
 30
0.0
  0
SPLINE
  5
166
100
AcDbEntity
  8
Capa_1
 62
7
100
AcDbSpline
 70
8
 71
3
 72
8
 73
4
 74
0
 40
0
 40
0
 40
0
 40
0
 40
1
 40
1
 40
1
 40
1
 10
77.836160
 20
130.663738
 30
0.0
 10
78.791840
 20
130.358738
 30
0.0
 10
79.737360
 20
130.028322
 30
0.0
 10
80.672640
 20
129.672490
 30
0.0
  0
SPLINE
  5
167
100
AcDbEntity
  8
Capa_1
 62
7
100
AcDbSpline
 70
8
 71
3
 72
8
 73
4
 74
0
 40
0
 40
0
 40
0
 40
0
 40
1
 40
1
 40
1
 40
1
 10
80.672640
 20
129.672490
 30
0.0
 10
81.608000
 20
129.316658
 30
0.0
 10
82.533200
 20
128.935402
 30
0.0
 10
83.448160
 20
128.528738
 30
0.0
  0
SPLINE
  5
168
100
AcDbEntity
  8
Capa_1
 62
7
100
AcDbSpline
 70
8
 71
3
 72
8
 73
4
 74
0
 40
0
 40
0
 40
0
 40
0
 40
1
 40
1
 40
1
 40
1
 10
83.448160
 20
128.528738
 30
0.0
 10
84.363200
 20
128.142402
 30
0.0
 10
85.261600
 20
127.734466
 30
0.0
 10
86.143600
 20
127.304922
 30
0.0
  0
SPLINE
  5
169
100
AcDbEntity
  8
Capa_1
 62
7
100
AcDbSpline
 70
8
 71
3
 72
8
 73
4
 74
0
 40
0
 40
0
 40
0
 40
0
 40
1
 40
1
 40
1
 40
1
 10
86.143600
 20
127.304922
 30
0.0
 10
87.025520
 20
126.875386
 30
0.0
 10
87.890960
 20
126.424234
 30
0.0
 10
88.739920
 20
125.951490
 30
0.0
  0
SPLINE
  5
16a
100
AcDbEntity
  8
Capa_1
 62
7
100
AcDbSpline
 70
8
 71
3
 72
8
 73
4
 74
0
 40
0
 40
0
 40
0
 40
0
 40
1
 40
1
 40
1
 40
1
 10
88.739920
 20
125.951490
 30
0.0
 10
89.588800
 20
125.478738
 30
0.0
 10
90.421200
 20
124.984386
 30
0.0
 10
91.237120
 20
124.468426
 30
0.0
  0
SPLINE
  5
16b
100
AcDbEntity
  8
Capa_1
 62
7
100
AcDbSpline
 70
8
 71
3
 72
8
 73
4
 74
0
 40
0
 40
0
 40
0
 40
0
 40
1
 40
1
 40
1
 40
1
 10
91.237120
 20
124.468426
 30
0.0
 10
92.052960
 20
123.952466
 30
0.0
 10
92.852320
 20
123.414906
 30
0.0
 10
93.635200
 20
122.855738
 30
0.0
  0
SPLINE
  5
16c
100
AcDbEntity
  8
Capa_1
 62
7
100
AcDbSpline
 70
8
 71
3
 72
8
 73
4
 74
0
 40
0
 40
0
 40
0
 40
0
 40
1
 40
1
 40
1
 40
1
 10
93.635200
 20
122.855738
 30
0.0
 10
94.418000
 20
122.296570
 30
0.0
 10
95.184320
 20
121.715802
 30
0.0
 10
95.934080
 20
121.113426
 30
0.0
  0
SPLINE
  5
16d
100
AcDbEntity
  8
Capa_1
 62
7
100
AcDbSpline
 70
8
 71
3
 72
8
 73
4
 74
0
 40
0
 40
0
 40
0
 40
0
 40
1
 40
1
 40
1
 40
1
 10
95.934080
 20
121.113426
 30
0.0
 10
96.683920
 20
120.511050
 30
0.0
 10
97.417120
 20
119.887074
 30
0.0
 10
98.133920
 20
119.241490
 30
0.0
  0
SPLINE
  5
16e
100
AcDbEntity
  8
Capa_1
 62
7
100
AcDbSpline
 70
8
 71
3
 72
8
 73
4
 74
0
 40
0
 40
0
 40
0
 40
0
 40
1
 40
1
 40
1
 40
1
 10
98.133920
 20
119.241490
 30
0.0
 10
98.850640
 20
118.595906
 30
0.0
 10
99.550880
 20
117.928714
 30
0.0
 10
100.234560
 20
117.239922
 30
0.0
  0
SPLINE
  5
16f
100
AcDbEntity
  8
Capa_1
 62
7
100
AcDbSpline
 70
8
 71
3
 72
8
 73
4
 74
0
 40
0
 40
0
 40
0
 40
0
 40
1
 40
1
 40
1
 40
1
 10
100.234560
 20
117.239922
 30
0.0
 10
100.918320
 20
116.551130
 30
0.0
 10
101.585520
 20
115.840738
 30
0.0
 10
102.236160
 20
115.108738
 30
0.0
  0
SPLINE
  5
170
100
AcDbEntity
  8
Capa_1
 62
7
100
AcDbSpline
 70
8
 71
3
 72
8
 73
4
 74
0
 40
0
 40
0
 40
0
 40
0
 40
1
 40
1
 40
1
 40
1
 10
102.236160
 20
115.108738
 30
0.0
 10
102.907120
 20
114.376738
 30
0.0
 10
103.559048
 20
113.625674
 30
0.0
 10
104.191912
 20
112.855554
 30
0.0
  0
SPLINE
  5
171
100
AcDbEntity
  8
Capa_1
 62
7
100
AcDbSpline
 70
8
 71
3
 72
8
 73
4
 74
0
 40
0
 40
0
 40
0
 40
0
 40
1
 40
1
 40
1
 40
1
 10
104.191912
 20
112.855554
 30
0.0
 10
104.824776
 20
112.085426
 30
0.0
 10
105.438576
 20
111.296234
 30
0.0
 10
106.033312
 20
110.487986
 30
0.0
  0
SPLINE
  5
172
100
AcDbEntity
  8
Capa_1
 62
7
100
AcDbSpline
 70
8
 71
3
 72
8
 73
4
 74
0
 40
0
 40
0
 40
0
 40
0
 40
1
 40
1
 40
1
 40
1
 10
106.033312
 20
110.487986
 30
0.0
 10
106.628048
 20
109.679738
 30
0.0
 10
107.203728
 20
108.852426
 30
0.0
 10
107.760336
 20
108.006050
 30
0.0
  0
SPLINE
  5
173
100
AcDbEntity
  8
Capa_1
 62
7
100
AcDbSpline
 70
8
 71
3
 72
8
 73
4
 74
0
 40
0
 40
0
 40
0
 40
0
 40
1
 40
1
 40
1
 40
1
 10
107.760336
 20
108.006050
 30
0.0
 10
108.316952
 20
107.159674
 30
0.0
 10
108.854512
 20
106.294234
 30
0.0
 10
109.373000
 20
105.409738
 30
0.0
  0
SPLINE
  5
174
100
AcDbEntity
  8
Capa_1
 62
7
100
AcDbSpline
 70
8
 71
3
 72
8
 73
4
 74
0
 40
0
 40
0
 40
0
 40
0
 40
1
 40
1
 40
1
 40
1
 10
109.373000
 20
105.409738
 30
0.0
 10
109.891496
 20
104.525242
 30
0.0
 10
110.390920
 20
103.621674
 30
0.0
 10
110.871288
 20
102.699050
 30
0.0
  0
SPLINE
  5
175
100
AcDbEntity
  8
Capa_1
 62
7
100
AcDbSpline
 70
8
 71
3
 72
8
 73
4
 74
0
 40
0
 40
0
 40
0
 40
0
 40
1
 40
1
 40
1
 40
1
 10
110.871288
 20
102.699050
 30
0.0
 10
111.351664
 20
101.776426
 30
0.0
 10
111.812968
 20
100.834738
 30
0.0
 10
112.255216
 20
99.873986
 30
0.0
  0
SPLINE
  5
176
100
AcDbEntity
  8
Capa_1
 62
7
100
AcDbSpline
 70
8
 71
3
 72
8
 73
4
 74
0
 40
0
 40
0
 40
0
 40
0
 40
1
 40
1
 40
1
 40
1
 10
112.255216
 20
99.873986
 30
0.0
 10
112.697464
 20
98.913234
 30
0.0
 10
113.120648
 20
97.933426
 30
0.0
 10
113.524768
 20
96.934554
 30
0.0
  0
SPLINE
  5
177
100
AcDbEntity
  8
Capa_1
 62
7
100
AcDbSpline
 70
8
 71
3
 72
8
 73
4
 74
0
 40
0
 40
0
 40
0
 40
0
 40
1
 40
1
 40
1
 40
1
 10
113.524768
 20
96.934554
 30
0.0
 10
113.928888
 20
95.935674
 30
0.0
 10
114.313952
 20
94.917738
 30
0.0
 10
114.679952
 20
93.880738
 30
0.0
  0
SPLINE
  5
178
100
AcDbEntity
  8
Capa_1
 62
7
100
AcDbSpline
 70
8
 71
3
 72
8
 73
4
 74
0
 40
0
 40
0
 40
0
 40
0
 40
1
 40
1
 40
1
 40
1
 10
114.679952
 20
93.880738
 30
0.0
 10
115.045952
 20
92.864074
 30
0.0
 10
115.389080
 20
91.833426
 30
0.0
 10
115.709328
 20
90.788802
 30
0.0
  0
SPLINE
  5
179
100
AcDbEntity
  8
Capa_1
 62
7
100
AcDbSpline
 70
8
 71
3
 72
8
 73
4
 74
0
 40
0
 40
0
 40
0
 40
0
 40
1
 40
1
 40
1
 40
1
 10
115.709328
 20
90.788802
 30
0.0
 10
116.029576
 20
89.744178
 30
0.0
 10
116.326952
 20
88.685570
 30
0.0
 10
116.601456
 20
87.612986
 30
0.0
  0
SPLINE
  5
17a
100
AcDbEntity
  8
Capa_1
 62
7
100
AcDbSpline
 70
8
 71
3
 72
8
 73
4
 74
0
 40
0
 40
0
 40
0
 40
0
 40
1
 40
1
 40
1
 40
1
 10
116.601456
 20
87.612986
 30
0.0
 10
116.875952
 20
86.540402
 30
0.0
 10
117.127576
 20
85.453842
 30
0.0
 10
117.356328
 20
84.353298
 30
0.0
  0
SPLINE
  5
17b
100
AcDbEntity
  8
Capa_1
 62
7
100
AcDbSpline
 70
8
 71
3
 72
8
 73
4
 74
0
 40
0
 40
0
 40
0
 40
0
 40
1
 40
1
 40
1
 40
1
 10
117.356328
 20
84.353298
 30
0.0
 10
117.585080
 20
83.252762
 30
0.0
 10
117.790952
 20
82.138234
 30
0.0
 10
117.973952
 20
81.009738
 30
0.0
  0
SPLINE
  5
17c
100
AcDbEntity
  8
Capa_1
 62
7
100
AcDbSpline
 70
8
 71
3
 72
8
 73
4
 74
0
 40
0
 40
0
 40
0
 40
0
 40
1
 40
1
 40
1
 40
1
 10
117.973952
 20
81.009738
 30
0.0
 10
118.156952
 20
79.881234
 30
0.0
 10
118.317080
 20
78.738762
 30
0.0
 10
118.454328
 20
77.582298
 30
0.0
  0
SPLINE
  5
17d
100
AcDbEntity
  8
Capa_1
 62
7
100
AcDbSpline
 70
8
 71
3
 72
8
 73
4
 74
0
 40
0
 40
0
 40
0
 40
0
 40
1
 40
1
 40
1
 40
1
 10
118.454328
 20
77.582298
 30
0.0
 10
118.591576
 20
76.425842
 30
0.0
 10
118.705952
 20
75.255402
 30
0.0
 10
118.797456
 20
74.070986
 30
0.0
  0
SPLINE
  5
17e
100
AcDbEntity
  8
Capa_1
 62
7
100
AcDbSpline
 70
8
 71
3
 72
8
 73
4
 74
0
 40
0
 40
0
 40
0
 40
0
 40
1
 40
1
 40
1
 40
1
 10
118.797456
 20
74.070986
 30
0.0
 10
118.888952
 20
72.886570
 30
0.0
 10
118.957576
 20
71.688178
 30
0.0
 10
119.003328
 20
70.475802
 30
0.0
  0
SPLINE
  5
17f
100
AcDbEntity
  8
Capa_1
 62
7
100
AcDbSpline
 70
8
 71
3
 72
8
 73
4
 74
0
 40
0
 40
0
 40
0
 40
0
 40
1
 40
1
 40
1
 40
1
 10
119.003328
 20
70.475802
 30
0.0
 10
119.049088
 20
69.263426
 30
0.0
 10
119.071968
 20
68.037074
 30
0.0
 10
119.071968
 20
66.796738
 30
0.0
  0
SPLINE
  5
180
100
AcDbEntity
  8
Capa_1
 62
7
100
AcDbSpline
 70
8
 71
3
 72
8
 73
4
 74
0
 40
0
 40
0
 40
0
 40
0
 40
1
 40
1
 40
1
 40
1
 10
95.404160
 20
66.796738
 30
0.0
 10
95.404160
 20
68.586074
 30
0.0
 10
95.353760
 20
70.328386
 30
0.0
 10
95.251680
 20
72.023674
 30
0.0
  0
SPLINE
  5
181
100
AcDbEntity
  8
Capa_1
 62
7
100
AcDbSpline
 70
8
 71
3
 72
8
 73
4
 74
0
 40
0
 40
0
 40
0
 40
0
 40
1
 40
1
 40
1
 40
1
 10
95.251680
 20
72.023674
 30
0.0
 10
95.150000
 20
73.718970
 30
0.0
 10
94.997520
 20
75.367242
 30
0.0
 10
94.794160
 20
76.968490
 30
0.0
  0
SPLINE
  5
182
100
AcDbEntity
  8
Capa_1
 62
7
100
AcDbSpline
 70
8
 71
3
 72
8
 73
4
 74
0
 40
0
 40
0
 40
0
 40
0
 40
1
 40
1
 40
1
 40
1
 10
94.794160
 20
76.968490
 30
0.0
 10
94.590800
 20
78.569738
 30
0.0
 10
94.336640
 20
80.123970
 30
0.0
 10
94.031680
 20
81.631178
 30
0.0
  0
SPLINE
  5
183
100
AcDbEntity
  8
Capa_1
 62
7
100
AcDbSpline
 70
8
 71
3
 72
8
 73
4
 74
0
 40
0
 40
0
 40
0
 40
0
 40
1
 40
1
 40
1
 40
1
 10
94.031680
 20
81.631178
 30
0.0
 10
93.726640
 20
83.138386
 30
0.0
 10
93.370800
 20
84.598570
 30
0.0
 10
92.964160
 20
86.011738
 30
0.0
  0
SPLINE
  5
184
100
AcDbEntity
  8
Capa_1
 62
7
100
AcDbSpline
 70
8
 71
3
 72
8
 73
4
 74
0
 40
0
 40
0
 40
0
 40
0
 40
1
 40
1
 40
1
 40
1
 10
92.964160
 20
86.011738
 30
0.0
 10
92.557520
 20
87.424906
 30
0.0
 10
92.100000
 20
88.791050
 30
0.0
 10
91.591680
 20
90.110178
 30
0.0
  0
SPLINE
  5
185
100
AcDbEntity
  8
Capa_1
 62
7
100
AcDbSpline
 70
8
 71
3
 72
8
 73
4
 74
0
 40
0
 40
0
 40
0
 40
0
 40
1
 40
1
 40
1
 40
1
 10
91.591680
 20
90.110178
 30
0.0
 10
91.083360
 20
91.429298
 30
0.0
 10
90.524160
 20
92.701402
 30
0.0
 10
89.914160
 20
93.926490
 30
0.0
  0
SPLINE
  5
186
100
AcDbEntity
  8
Capa_1
 62
7
100
AcDbSpline
 70
8
 71
3
 72
8
 73
4
 74
0
 40
0
 40
0
 40
0
 40
0
 40
1
 40
1
 40
1
 40
1
 10
89.914160
 20
93.926490
 30
0.0
 10
89.304160
 20
95.151570
 30
0.0
 10
88.643360
 20
96.329634
 30
0.0
 10
87.931680
 20
97.460674
 30
0.0
  0
SPLINE
  5
187
100
AcDbEntity
  8
Capa_1
 62
7
100
AcDbSpline
 70
8
 71
3
 72
8
 73
4
 74
0
 40
0
 40
0
 40
0
 40
0
 40
1
 40
1
 40
1
 40
1
 10
87.931680
 20
97.460674
 30
0.0
 10
87.220000
 20
98.591714
 30
0.0
 10
86.457520
 20
99.675738
 30
0.0
 10
85.644160
 20
100.712738
 30
0.0
  0
SPLINE
  5
188
100
AcDbEntity
  8
Capa_1
 62
7
100
AcDbSpline
 70
8
 71
3
 72
8
 73
4
 74
0
 40
0
 40
0
 40
0
 40
0
 40
1
 40
1
 40
1
 40
1
 10
85.644160
 20
100.712738
 30
0.0
 10
84.851120
 20
101.770074
 30
0.0
 10
84.021280
 20
102.761322
 30
0.0
 10
83.154560
 20
103.686490
 30
0.0
  0
SPLINE
  5
189
100
AcDbEntity
  8
Capa_1
 62
7
100
AcDbSpline
 70
8
 71
3
 72
8
 73
4
 74
0
 40
0
 40
0
 40
0
 40
0
 40
1
 40
1
 40
1
 40
1
 10
83.154560
 20
103.686490
 30
0.0
 10
82.287920
 20
104.611658
 30
0.0
 10
81.384320
 20
105.470738
 30
0.0
 10
80.443920
 20
106.263738
 30
0.0
  0
SPLINE
  5
18a
100
AcDbEntity
  8
Capa_1
 62
7
100
AcDbSpline
 70
8
 71
3
 72
8
 73
4
 74
0
 40
0
 40
0
 40
0
 40
0
 40
1
 40
1
 40
1
 40
1
 10
80.443920
 20
106.263738
 30
0.0
 10
79.503520
 20
107.056738
 30
0.0
 10
78.526240
 20
107.783658
 30
0.0
 10
77.512080
 20
108.444490
 30
0.0
  0
SPLINE
  5
18b
100
AcDbEntity
  8
Capa_1
 62
7
100
AcDbSpline
 70
8
 71
3
 72
8
 73
4
 74
0
 40
0
 40
0
 40
0
 40
0
 40
1
 40
1
 40
1
 40
1
 10
77.512080
 20
108.444490
 30
0.0
 10
76.498000
 20
109.105322
 30
0.0
 10
75.446960
 20
109.700074
 30
0.0
 10
74.359120
 20
110.228738
 30
0.0
  0
SPLINE
  5
18c
100
AcDbEntity
  8
Capa_1
 62
7
100
AcDbSpline
 70
8
 71
3
 72
8
 73
4
 74
0
 40
0
 40
0
 40
0
 40
0
 40
1
 40
1
 40
1
 40
1
 10
74.359120
 20
110.228738
 30
0.0
 10
73.271360
 20
110.757402
 30
0.0
 10
72.146640
 20
111.219986
 30
0.0
 10
70.985120
 20
111.616490
 30
0.0
  0
SPLINE
  5
18d
100
AcDbEntity
  8
Capa_1
 62
7
100
AcDbSpline
 70
8
 71
3
 72
8
 73
4
 74
0
 40
0
 40
0
 40
0
 40
0
 40
1
 40
1
 40
1
 40
1
 10
70.985120
 20
111.616490
 30
0.0
 10
69.823520
 20
112.012986
 30
0.0
 10
68.625120
 20
112.343402
 30
0.0
 10
67.389920
 20
112.607738
 30
0.0
  0
SPLINE
  5
18e
100
AcDbEntity
  8
Capa_1
 62
7
100
AcDbSpline
 70
8
 71
3
 72
8
 73
4
 74
0
 40
0
 40
0
 40
0
 40
0
 40
1
 40
1
 40
1
 40
1
 10
67.389920
 20
112.607738
 30
0.0
 10
66.154640
 20
112.872074
 30
0.0
 10
64.882560
 20
113.070322
 30
0.0
 10
63.573600
 20
113.202490
 30
0.0
  0
SPLINE
  5
18f
100
AcDbEntity
  8
Capa_1
 62
7
100
AcDbSpline
 70
8
 71
3
 72
8
 73
4
 74
0
 40
0
 40
0
 40
0
 40
0
 40
1
 40
1
 40
1
 40
1
 10
63.573600
 20
113.202490
 30
0.0
 10
62.264640
 20
113.334658
 30
0.0
 10
60.918800
 20
113.400738
 30
0.0
 10
59.536160
 20
113.400738
 30
0.0
  0
SPLINE
  5
190
100
AcDbEntity
  8
Capa_1
 62
7
100
AcDbSpline
 70
8
 71
3
 72
8
 73
4
 74
0
 40
0
 40
0
 40
0
 40
0
 40
1
 40
1
 40
1
 40
1
 10
59.536160
 20
113.400738
 30
0.0
 10
58.153520
 20
113.400738
 30
0.0
 10
56.806400
 20
113.334658
 30
0.0
 10
55.494880
 20
113.202490
 30
0.0
  0
SPLINE
  5
191
100
AcDbEntity
  8
Capa_1
 62
7
100
AcDbSpline
 70
8
 71
3
 72
8
 73
4
 74
0
 40
0
 40
0
 40
0
 40
0
 40
1
 40
1
 40
1
 40
1
 10
55.494880
 20
113.202490
 30
0.0
 10
54.183440
 20
113.070322
 30
0.0
 10
52.907520
 20
112.872074
 30
0.0
 10
51.667120
 20
112.607738
 30
0.0
  0
SPLINE
  5
192
100
AcDbEntity
  8
Capa_1
 62
7
100
AcDbSpline
 70
8
 71
3
 72
8
 73
4
 74
0
 40
0
 40
0
 40
0
 40
0
 40
1
 40
1
 40
1
 40
1
 10
51.667120
 20
112.607738
 30
0.0
 10
50.426800
 20
112.343402
 30
0.0
 10
49.222080
 20
112.012986
 30
0.0
 10
48.052880
 20
111.616490
 30
0.0
  0
SPLINE
  5
193
100
AcDbEntity
  8
Capa_1
 62
7
100
AcDbSpline
 70
8
 71
3
 72
8
 73
4
 74
0
 40
0
 40
0
 40
0
 40
0
 40
1
 40
1
 40
1
 40
1
 10
48.052880
 20
111.616490
 30
0.0
 10
46.883760
 20
111.219986
 30
0.0
 10
45.750160
 20
110.757402
 30
0.0
 10
44.652160
 20
110.228738
 30
0.0
  0
SPLINE
  5
194
100
AcDbEntity
  8
Capa_1
 62
7
100
AcDbSpline
 70
8
 71
3
 72
8
 73
4
 74
0
 40
0
 40
0
 40
0
 40
0
 40
1
 40
1
 40
1
 40
1
 10
44.652160
 20
110.228738
 30
0.0
 10
43.554160
 20
109.700074
 30
0.0
 10
42.491760
 20
109.105322
 30
0.0
 10
41.464880
 20
108.444490
 30
0.0
  0
SPLINE
  5
195
100
AcDbEntity
  8
Capa_1
 62
7
100
AcDbSpline
 70
8
 71
3
 72
8
 73
4
 74
0
 40
0
 40
0
 40
0
 40
0
 40
1
 40
1
 40
1
 40
1
 10
41.464880
 20
108.444490
 30
0.0
 10
40.438080
 20
107.783658
 30
0.0
 10
39.446800
 20
107.056738
 30
0.0
 10
38.491120
 20
106.263738
 30
0.0
  0
SPLINE
  5
196
100
AcDbEntity
  8
Capa_1
 62
7
100
AcDbSpline
 70
8
 71
3
 72
8
 73
4
 74
0
 40
0
 40
0
 40
0
 40
0
 40
1
 40
1
 40
1
 40
1
 10
38.491120
 20
106.263738
 30
0.0
 10
37.535520
 20
105.470738
 30
0.0
 10
36.615440
 20
104.611658
 30
0.0
 10
35.730880
 20
103.686490
 30
0.0
  0
SPLINE
  5
197
100
AcDbEntity
  8
Capa_1
 62
7
100
AcDbSpline
 70
8
 71
3
 72
8
 73
4
 74
0
 40
0
 40
0
 40
0
 40
0
 40
1
 40
1
 40
1
 40
1
 10
35.730880
 20
103.686490
 30
0.0
 10
34.846400
 20
102.761322
 30
0.0
 10
33.997520
 20
101.770074
 30
0.0
 10
33.184160
 20
100.712738
 30
0.0
  0
SPLINE
  5
198
100
AcDbEntity
  8
Capa_1
 62
7
100
AcDbSpline
 70
8
 71
3
 72
8
 73
4
 74
0
 40
0
 40
0
 40
0
 40
0
 40
1
 40
1
 40
1
 40
1
 10
33.184160
 20
100.712738
 30
0.0
 10
32.391120
 20
99.675738
 30
0.0
 10
31.647760
 20
98.591714
 30
0.0
 10
30.953840
 20
97.460674
 30
0.0
  0
SPLINE
  5
199
100
AcDbEntity
  8
Capa_1
 62
7
100
AcDbSpline
 70
8
 71
3
 72
8
 73
4
 74
0
 40
0
 40
0
 40
0
 40
0
 40
1
 40
1
 40
1
 40
1
 10
30.953840
 20
97.460674
 30
0.0
 10
30.260000
 20
96.329634
 30
0.0
 10
29.615680
 20
95.151570
 30
0.0
 10
29.020880
 20
93.926490
 30
0.0
  0
SPLINE
  5
19a
100
AcDbEntity
  8
Capa_1
 62
7
100
AcDbSpline
 70
8
 71
3
 72
8
 73
4
 74
0
 40
0
 40
0
 40
0
 40
0
 40
1
 40
1
 40
1
 40
1
 10
29.020880
 20
93.926490
 30
0.0
 10
28.426160
 20
92.701402
 30
0.0
 10
27.880960
 20
91.429298
 30
0.0
 10
27.385360
 20
90.110178
 30
0.0
  0
SPLINE
  5
19b
100
AcDbEntity
  8
Capa_1
 62
7
100
AcDbSpline
 70
8
 71
3
 72
8
 73
4
 74
0
 40
0
 40
0
 40
0
 40
0
 40
1
 40
1
 40
1
 40
1
 10
27.385360
 20
90.110178
 30
0.0
 10
26.889760
 20
88.791050
 30
0.0
 10
26.443680
 20
87.424906
 30
0.0
 10
26.047120
 20
86.011738
 30
0.0
  0
SPLINE
  5
19c
100
AcDbEntity
  8
Capa_1
 62
7
100
AcDbSpline
 70
8
 71
3
 72
8
 73
4
 74
0
 40
0
 40
0
 40
0
 40
0
 40
1
 40
1
 40
1
 40
1
 10
26.047120
 20
86.011738
 30
0.0
 10
25.650640
 20
84.598570
 30
0.0
 10
25.303760
 20
83.138386
 30
0.0
 10
25.006320
 20
81.631178
 30
0.0
  0
SPLINE
  5
19d
100
AcDbEntity
  8
Capa_1
 62
7
100
AcDbSpline
 70
8
 71
3
 72
8
 73
4
 74
0
 40
0
 40
0
 40
0
 40
0
 40
1
 40
1
 40
1
 40
1
 10
25.006320
 20
81.631178
 30
0.0
 10
24.708960
 20
80.123970
 30
0.0
 10
24.461120
 20
78.569738
 30
0.0
 10
24.262880
 20
76.968490
 30
0.0
  0
SPLINE
  5
19e
100
AcDbEntity
  8
Capa_1
 62
7
100
AcDbSpline
 70
8
 71
3
 72
8
 73
4
 74
0
 40
0
 40
0
 40
0
 40
0
 40
1
 40
1
 40
1
 40
1
 10
24.262880
 20
76.968490
 30
0.0
 10
24.064640
 20
75.367242
 30
0.0
 10
23.916000
 20
73.718970
 30
0.0
 10
23.816880
 20
72.023674
 30
0.0
  0
SPLINE
  5
19f
100
AcDbEntity
  8
Capa_1
 62
7
100
AcDbSpline
 70
8
 71
3
 72
8
 73
4
 74
0
 40
0
 40
0
 40
0
 40
0
 40
1
 40
1
 40
1
 40
1
 10
23.816880
 20
72.023674
 30
0.0
 10
23.717760
 20
70.328386
 30
0.0
 10
23.668160
 20
68.586074
 30
0.0
 10
23.668160
 20
66.796738
 30
0.0
  0
SPLINE
  5
1a0
100
AcDbEntity
  8
Capa_1
 62
7
100
AcDbSpline
 70
8
 71
3
 72
8
 73
4
 74
0
 40
0
 40
0
 40
0
 40
0
 40
1
 40
1
 40
1
 40
1
 10
23.668160
 20
66.796738
 30
0.0
 10
23.668160
 20
65.007402
 30
0.0
 10
23.717760
 20
63.263818
 30
0.0
 10
23.816880
 20
61.565986
 30
0.0
  0
SPLINE
  5
1a1
100
AcDbEntity
  8
Capa_1
 62
7
100
AcDbSpline
 70
8
 71
3
 72
8
 73
4
 74
0
 40
0
 40
0
 40
0
 40
0
 40
1
 40
1
 40
1
 40
1
 10
23.816880
 20
61.565986
 30
0.0
 10
23.916000
 20
59.868154
 30
0.0
 10
24.064640
 20
58.216074
 30
0.0
 10
24.262880
 20
56.609738
 30
0.0
  0
SPLINE
  5
1a2
100
AcDbEntity
  8
Capa_1
 62
7
100
AcDbSpline
 70
8
 71
3
 72
8
 73
4
 74
0
 40
0
 40
0
 40
0
 40
0
 40
1
 40
1
 40
1
 40
1
 10
24.262880
 20
56.609738
 30
0.0
 10
24.461120
 20
55.003402
 30
0.0
 10
24.708960
 20
53.442818
 30
0.0
 10
25.006320
 20
51.927986
 30
0.0
  0
SPLINE
  5
1a3
100
AcDbEntity
  8
Capa_1
 62
7
100
AcDbSpline
 70
8
 71
3
 72
8
 73
4
 74
0
 40
0
 40
0
 40
0
 40
0
 40
1
 40
1
 40
1
 40
1
 10
25.006320
 20
51.927986
 30
0.0
 10
25.303760
 20
50.413154
 30
0.0
 10
25.650640
 20
48.944074
 30
0.0
 10
26.047120
 20
47.520738
 30
0.0
  0
SPLINE
  5
1a4
100
AcDbEntity
  8
Capa_1
 62
7
100
AcDbSpline
 70
8
 71
3
 72
8
 73
4
 74
0
 40
0
 40
0
 40
0
 40
0
 40
1
 40
1
 40
1
 40
1
 10
26.047120
 20
47.520738
 30
0.0
 10
26.443680
 20
46.097402
 30
0.0
 10
26.889760
 20
44.719818
 30
0.0
 10
27.385360
 20
43.387986
 30
0.0
  0
SPLINE
  5
1a5
100
AcDbEntity
  8
Capa_1
 62
7
100
AcDbSpline
 70
8
 71
3
 72
8
 73
4
 74
0
 40
0
 40
0
 40
0
 40
0
 40
1
 40
1
 40
1
 40
1
 10
27.385360
 20
43.387986
 30
0.0
 10
27.880960
 20
42.056154
 30
0.0
 10
28.426160
 20
40.770074
 30
0.0
 10
29.020880
 20
39.529738
 30
0.0
  0
SPLINE
  5
1a6
100
AcDbEntity
  8
Capa_1
 62
7
100
AcDbSpline
 70
8
 71
3
 72
8
 73
4
 74
0
 40
0
 40
0
 40
0
 40
0
 40
1
 40
1
 40
1
 40
1
 10
29.020880
 20
39.529738
 30
0.0
 10
29.615680
 20
38.289402
 30
0.0
 10
30.260000
 20
37.094818
 30
0.0
 10
30.953840
 20
35.945986
 30
0.0
  0
SPLINE
  5
1a7
100
AcDbEntity
  8
Capa_1
 62
7
100
AcDbSpline
 70
8
 71
3
 72
8
 73
4
 74
0
 40
0
 40
0
 40
0
 40
0
 40
1
 40
1
 40
1
 40
1
 10
30.953840
 20
35.945986
 30
0.0
 10
31.647760
 20
34.797154
 30
0.0
 10
32.391120
 20
33.694074
 30
0.0
 10
33.184160
 20
32.636738
 30
0.0
  0
SPLINE
  5
1a8
100
AcDbEntity
  8
Capa_1
 62
7
100
AcDbSpline
 70
8
 71
3
 72
8
 73
4
 74
0
 40
0
 40
0
 40
0
 40
0
 40
1
 40
1
 40
1
 40
1
 10
33.184160
 20
32.636738
 30
0.0
 10
33.997520
 20
31.599738
 30
0.0
 10
34.846400
 20
30.627554
 30
0.0
 10
35.730880
 20
29.720178
 30
0.0
  0
SPLINE
  5
1a9
100
AcDbEntity
  8
Capa_1
 62
7
100
AcDbSpline
 70
8
 71
3
 72
8
 73
4
 74
0
 40
0
 40
0
 40
0
 40
0
 40
1
 40
1
 40
1
 40
1
 10
35.730880
 20
29.720178
 30
0.0
 10
36.615440
 20
28.812802
 30
0.0
 10
37.535520
 20
27.970242
 30
0.0
 10
38.491120
 20
27.192490
 30
0.0
  0
SPLINE
  5
1aa
100
AcDbEntity
  8
Capa_1
 62
7
100
AcDbSpline
 70
8
 71
3
 72
8
 73
4
 74
0
 40
0
 40
0
 40
0
 40
0
 40
1
 40
1
 40
1
 40
1
 10
38.491120
 20
27.192490
 30
0.0
 10
39.446800
 20
26.414738
 30
0.0
 10
40.438080
 20
25.701802
 30
0.0
 10
41.464880
 20
25.053674
 30
0.0
  0
SPLINE
  5
1ab
100
AcDbEntity
  8
Capa_1
 62
7
100
AcDbSpline
 70
8
 71
3
 72
8
 73
4
 74
0
 40
0
 40
0
 40
0
 40
0
 40
1
 40
1
 40
1
 40
1
 10
41.464880
 20
25.053674
 30
0.0
 10
42.491760
 20
24.405554
 30
0.0
 10
43.554160
 20
23.822234
 30
0.0
 10
44.652160
 20
23.303738
 30
0.0
  0
SPLINE
  5
1ac
100
AcDbEntity
  8
Capa_1
 62
7
100
AcDbSpline
 70
8
 71
3
 72
8
 73
4
 74
0
 40
0
 40
0
 40
0
 40
0
 40
1
 40
1
 40
1
 40
1
 10
44.652160
 20
23.303738
 30
0.0
 10
45.750160
 20
22.785242
 30
0.0
 10
46.883760
 20
22.331554
 30
0.0
 10
48.052880
 20
21.942674
 30
0.0
  0
SPLINE
  5
1ad
100
AcDbEntity
  8
Capa_1
 62
7
100
AcDbSpline
 70
8
 71
3
 72
8
 73
4
 74
0
 40
0
 40
0
 40
0
 40
0
 40
1
 40
1
 40
1
 40
1
 10
48.052880
 20
21.942674
 30
0.0
 10
49.222080
 20
21.553802
 30
0.0
 10
50.426800
 20
21.229738
 30
0.0
 10
51.667120
 20
20.970490
 30
0.0
  0
SPLINE
  5
1ae
100
AcDbEntity
  8
Capa_1
 62
7
100
AcDbSpline
 70
8
 71
3
 72
8
 73
4
 74
0
 40
0
 40
0
 40
0
 40
0
 40
1
 40
1
 40
1
 40
1
 10
51.667120
 20
20.970490
 30
0.0
 10
52.907520
 20
20.711242
 30
0.0
 10
54.183440
 20
20.516802
 30
0.0
 10
55.494880
 20
20.387178
 30
0.0
  0
SPLINE
  5
1af
100
AcDbEntity
  8
Capa_1
 62
7
100
AcDbSpline
 70
8
 71
3
 72
8
 73
4
 74
0
 40
0
 40
0
 40
0
 40
0
 40
1
 40
1
 40
1
 40
1
 10
55.494880
 20
20.387178
 30
0.0
 10
56.806400
 20
20.257554
 30
0.0
 10
58.153520
 20
20.192738
 30
0.0
 10
59.536160
 20
20.192738
 30
0.0
  0
SPLINE
  5
1b0
100
AcDbEntity
  8
Capa_1
 62
7
100
AcDbSpline
 70
8
 71
3
 72
8
 73
4
 74
0
 40
0
 40
0
 40
0
 40
0
 40
1
 40
1
 40
1
 40
1
 10
59.536160
 20
20.192738
 30
0.0
 10
60.918800
 20
20.192738
 30
0.0
 10
62.264640
 20
20.257538
 30
0.0
 10
63.573600
 20
20.387178
 30
0.0
  0
SPLINE
  5
1b1
100
AcDbEntity
  8
Capa_1
 62
7
100
AcDbSpline
 70
8
 71
3
 72
8
 73
4
 74
0
 40
0
 40
0
 40
0
 40
0
 40
1
 40
1
 40
1
 40
1
 10
63.573600
 20
20.387178
 30
0.0
 10
64.882560
 20
20.516802
 30
0.0
 10
66.154640
 20
20.711234
 30
0.0
 10
67.389920
 20
20.970490
 30
0.0
  0
SPLINE
  5
1b2
100
AcDbEntity
  8
Capa_1
 62
7
100
AcDbSpline
 70
8
 71
3
 72
8
 73
4
 74
0
 40
0
 40
0
 40
0
 40
0
 40
1
 40
1
 40
1
 40
1
 10
67.389920
 20
20.970490
 30
0.0
 10
68.625120
 20
21.229738
 30
0.0
 10
69.823520
 20
21.553802
 30
0.0
 10
70.985120
 20
21.942674
 30
0.0
  0
SPLINE
  5
1b3
100
AcDbEntity
  8
Capa_1
 62
7
100
AcDbSpline
 70
8
 71
3
 72
8
 73
4
 74
0
 40
0
 40
0
 40
0
 40
0
 40
1
 40
1
 40
1
 40
1
 10
70.985120
 20
21.942674
 30
0.0
 10
72.146640
 20
22.331554
 30
0.0
 10
73.271360
 20
22.785234
 30
0.0
 10
74.359120
 20
23.303738
 30
0.0
  0
SPLINE
  5
1b4
100
AcDbEntity
  8
Capa_1
 62
7
100
AcDbSpline
 70
8
 71
3
 72
8
 73
4
 74
0
 40
0
 40
0
 40
0
 40
0
 40
1
 40
1
 40
1
 40
1
 10
74.359120
 20
23.303738
 30
0.0
 10
75.446960
 20
23.822242
 30
0.0
 10
76.498000
 20
24.405554
 30
0.0
 10
77.512080
 20
25.053674
 30
0.0
  0
SPLINE
  5
1b5
100
AcDbEntity
  8
Capa_1
 62
7
100
AcDbSpline
 70
8
 71
3
 72
8
 73
4
 74
0
 40
0
 40
0
 40
0
 40
0
 40
1
 40
1
 40
1
 40
1
 10
77.512080
 20
25.053674
 30
0.0
 10
78.526240
 20
25.701802
 30
0.0
 10
79.503520
 20
26.414738
 30
0.0
 10
80.443920
 20
27.192490
 30
0.0
  0
SPLINE
  5
1b6
100
AcDbEntity
  8
Capa_1
 62
7
100
AcDbSpline
 70
8
 71
3
 72
8
 73
4
 74
0
 40
0
 40
0
 40
0
 40
0
 40
1
 40
1
 40
1
 40
1
 10
80.443920
 20
27.192490
 30
0.0
 10
81.384320
 20
27.970242
 30
0.0
 10
82.287920
 20
28.812802
 30
0.0
 10
83.154560
 20
29.720178
 30
0.0
  0
SPLINE
  5
1b7
100
AcDbEntity
  8
Capa_1
 62
7
100
AcDbSpline
 70
8
 71
3
 72
8
 73
4
 74
0
 40
0
 40
0
 40
0
 40
0
 40
1
 40
1
 40
1
 40
1
 10
83.154560
 20
29.720178
 30
0.0
 10
84.021280
 20
30.627554
 30
0.0
 10
84.851120
 20
31.599738
 30
0.0
 10
85.644160
 20
32.636738
 30
0.0
  0
SPLINE
  5
1b8
100
AcDbEntity
  8
Capa_1
 62
7
100
AcDbSpline
 70
8
 71
3
 72
8
 73
4
 74
0
 40
0
 40
0
 40
0
 40
0
 40
1
 40
1
 40
1
 40
1
 10
85.644160
 20
32.636738
 30
0.0
 10
86.457520
 20
33.694074
 30
0.0
 10
87.220000
 20
34.797154
 30
0.0
 10
87.931680
 20
35.945986
 30
0.0
  0
SPLINE
  5
1b9
100
AcDbEntity
  8
Capa_1
 62
7
100
AcDbSpline
 70
8
 71
3
 72
8
 73
4
 74
0
 40
0
 40
0
 40
0
 40
0
 40
1
 40
1
 40
1
 40
1
 10
87.931680
 20
35.945986
 30
0.0
 10
88.643360
 20
37.094818
 30
0.0
 10
89.304160
 20
38.289402
 30
0.0
 10
89.914160
 20
39.529738
 30
0.0
  0
SPLINE
  5
1ba
100
AcDbEntity
  8
Capa_1
 62
7
100
AcDbSpline
 70
8
 71
3
 72
8
 73
4
 74
0
 40
0
 40
0
 40
0
 40
0
 40
1
 40
1
 40
1
 40
1
 10
89.914160
 20
39.529738
 30
0.0
 10
90.524160
 20
40.770074
 30
0.0
 10
91.083360
 20
42.056154
 30
0.0
 10
91.591680
 20
43.387986
 30
0.0
  0
SPLINE
  5
1bb
100
AcDbEntity
  8
Capa_1
 62
7
100
AcDbSpline
 70
8
 71
3
 72
8
 73
4
 74
0
 40
0
 40
0
 40
0
 40
0
 40
1
 40
1
 40
1
 40
1
 10
91.591680
 20
43.387986
 30
0.0
 10
92.100000
 20
44.719818
 30
0.0
 10
92.557520
 20
46.097402
 30
0.0
 10
92.964160
 20
47.520738
 30
0.0
  0
SPLINE
  5
1bc
100
AcDbEntity
  8
Capa_1
 62
7
100
AcDbSpline
 70
8
 71
3
 72
8
 73
4
 74
0
 40
0
 40
0
 40
0
 40
0
 40
1
 40
1
 40
1
 40
1
 10
92.964160
 20
47.520738
 30
0.0
 10
93.370800
 20
48.944074
 30
0.0
 10
93.726640
 20
50.413154
 30
0.0
 10
94.031680
 20
51.927986
 30
0.0
  0
SPLINE
  5
1bd
100
AcDbEntity
  8
Capa_1
 62
7
100
AcDbSpline
 70
8
 71
3
 72
8
 73
4
 74
0
 40
0
 40
0
 40
0
 40
0
 40
1
 40
1
 40
1
 40
1
 10
94.031680
 20
51.927986
 30
0.0
 10
94.336640
 20
53.442818
 30
0.0
 10
94.590800
 20
55.003402
 30
0.0
 10
94.794160
 20
56.609738
 30
0.0
  0
SPLINE
  5
1be
100
AcDbEntity
  8
Capa_1
 62
7
100
AcDbSpline
 70
8
 71
3
 72
8
 73
4
 74
0
 40
0
 40
0
 40
0
 40
0
 40
1
 40
1
 40
1
 40
1
 10
94.794160
 20
56.609738
 30
0.0
 10
94.997520
 20
58.216074
 30
0.0
 10
95.150000
 20
59.868154
 30
0.0
 10
95.251680
 20
61.565986
 30
0.0
  0
SPLINE
  5
1bf
100
AcDbEntity
  8
Capa_1
 62
7
100
AcDbSpline
 70
8
 71
3
 72
8
 73
4
 74
0
 40
0
 40
0
 40
0
 40
0
 40
1
 40
1
 40
1
 40
1
 10
95.251680
 20
61.565986
 30
0.0
 10
95.353360
 20
63.263818
 30
0.0
 10
95.404160
 20
65.007402
 30
0.0
 10
95.404160
 20
66.796738
 30
0.0
  0
LWPOLYLINE
  5
1c0
100
AcDbEntity
  8
Capa_1
 62
7
100
AcDbPolyline
 90
2
 70
1
 10
119.071968
 20
66.796738
 30
0.0
 10
119.071968
 20
66.796738
 30
0.0
  0
SPLINE
  5
1c1
100
AcDbEntity
  8
Capa_1
 62
7
100
AcDbSpline
 70
8
 71
3
 72
8
 73
4
 74
0
 40
0
 40
0
 40
0
 40
0
 40
1
 40
1
 40
1
 40
1
 10
151.756968
 20
19.276042
 30
0.0
 10
152.915968
 20
19.276042
 30
0.0
 10
154.036840
 20
19.295082
 30
0.0
 10
155.119592
 20
19.333242
 30
0.0
  0
SPLINE
  5
1c2
100
AcDbEntity
  8
Capa_1
 62
7
100
AcDbSpline
 70
8
 71
3
 72
8
 73
4
 74
0
 40
0
 40
0
 40
0
 40
0
 40
1
 40
1
 40
1
 40
1
 10
155.119592
 20
19.333242
 30
0.0
 10
156.202344
 20
19.371402
 30
0.0
 10
157.246968
 20
19.428554
 30
0.0
 10
158.253464
 20
19.504810
 30
0.0
  0
SPLINE
  5
1c3
100
AcDbEntity
  8
Capa_1
 62
7
100
AcDbSpline
 70
8
 71
3
 72
8
 73
4
 74
0
 40
0
 40
0
 40
0
 40
0
 40
1
 40
1
 40
1
 40
1
 10
158.253464
 20
19.504810
 30
0.0
 10
159.259968
 20
19.581050
 30
0.0
 10
160.228344
 20
19.676370
 30
0.0
 10
161.158592
 20
19.790746
 30
0.0
  0
SPLINE
  5
1c4
100
AcDbEntity
  8
Capa_1
 62
7
100
AcDbSpline
 70
8
 71
3
 72
8
 73
4
 74
0
 40
0
 40
0
 40
0
 40
0
 40
1
 40
1
 40
1
 40
1
 10
161.158592
 20
19.790746
 30
0.0
 10
162.088840
 20
19.905122
 30
0.0
 10
162.980968
 20
20.038554
 30
0.0
 10
163.834968
 20
20.191058
 30
0.0
  0
SPLINE
  5
1c5
100
AcDbEntity
  8
Capa_1
 62
7
100
AcDbSpline
 70
8
 71
3
 72
8
 73
4
 74
0
 40
0
 40
0
 40
0
 40
0
 40
1
 40
1
 40
1
 40
1
 10
163.834968
 20
20.191058
 30
0.0
 10
164.688968
 20
20.343562
 30
0.0
 10
165.504840
 20
20.515122
 30
0.0
 10
166.282592
 20
20.705746
 30
0.0
  0
SPLINE
  5
1c6
100
AcDbEntity
  8
Capa_1
 62
7
100
AcDbSpline
 70
8
 71
3
 72
8
 73
4
 74
0
 40
0
 40
0
 40
0
 40
0
 40
1
 40
1
 40
1
 40
1
 10
166.282592
 20
20.705746
 30
0.0
 10
167.060344
 20
20.896370
 30
0.0
 10
167.799968
 20
21.106058
 30
0.0
 10
168.501472
 20
21.334810
 30
0.0
  0
SPLINE
  5
1c7
100
AcDbEntity
  8
Capa_1
 62
7
100
AcDbSpline
 70
8
 71
3
 72
8
 73
4
 74
0
 40
0
 40
0
 40
0
 40
0
 40
1
 40
1
 40
1
 40
1
 10
168.501472
 20
21.334810
 30
0.0
 10
169.202968
 20
21.563554
 30
0.0
 10
169.866344
 20
21.811370
 30
0.0
 10
170.491592
 20
22.078242
 30
0.0
  0
SPLINE
  5
1c8
100
AcDbEntity
  8
Capa_1
 62
7
100
AcDbSpline
 70
8
 71
3
 72
8
 73
4
 74
0
 40
0
 40
0
 40
0
 40
0
 40
1
 40
1
 40
1
 40
1
 10
170.491592
 20
22.078242
 30
0.0
 10
171.116840
 20
22.345122
 30
0.0
 10
171.703968
 20
22.631058
 30
0.0
 10
172.252968
 20
22.936058
 30
0.0
  0
SPLINE
  5
1c9
100
AcDbEntity
  8
Capa_1
 62
7
100
AcDbSpline
 70
8
 71
3
 72
8
 73
4
 74
0
 40
0
 40
0
 40
0
 40
0
 40
1
 40
1
 40
1
 40
1
 10
172.252968
 20
22.936058
 30
0.0
 10
172.822304
 20
23.241058
 30
0.0
 10
173.356048
 20
23.568930
 30
0.0
 10
173.854216
 20
23.919682
 30
0.0
  0
SPLINE
  5
1ca
100
AcDbEntity
  8
Capa_1
 62
7
100
AcDbSpline
 70
8
 71
3
 72
8
 73
4
 74
0
 40
0
 40
0
 40
0
 40
0
 40
1
 40
1
 40
1
 40
1
 10
173.854216
 20
23.919682
 30
0.0
 10
174.352384
 20
24.270434
 30
0.0
 10
174.814968
 20
24.644058
 30
0.0
 10
175.241968
 20
25.040554
 30
0.0
  0
SPLINE
  5
1cb
100
AcDbEntity
  8
Capa_1
 62
7
100
AcDbSpline
 70
8
 71
3
 72
8
 73
4
 74
0
 40
0
 40
0
 40
0
 40
0
 40
1
 40
1
 40
1
 40
1
 10
175.241968
 20
25.040554
 30
0.0
 10
175.668968
 20
25.437058
 30
0.0
 10
176.060384
 20
25.856434
 30
0.0
 10
176.416216
 20
26.298682
 30
0.0
  0
SPLINE
  5
1cc
100
AcDbEntity
  8
Capa_1
 62
7
100
AcDbSpline
 70
8
 71
3
 72
8
 73
4
 74
0
 40
0
 40
0
 40
0
 40
0
 40
1
 40
1
 40
1
 40
1
 10
176.416216
 20
26.298682
 30
0.0
 10
176.772048
 20
26.740930
 30
0.0
 10
177.092304
 20
27.206058
 30
0.0
 10
177.376968
 20
27.694058
 30
0.0
  0
SPLINE
  5
1cd
100
AcDbEntity
  8
Capa_1
 62
7
100
AcDbSpline
 70
8
 71
3
 72
8
 73
4
 74
0
 40
0
 40
0
 40
0
 40
0
 40
1
 40
1
 40
1
 40
1
 10
177.376968
 20
27.694058
 30
0.0
 10
177.661632
 20
28.182058
 30
0.0
 10
177.910720
 20
28.692930
 30
0.0
 10
178.124216
 20
29.226682
 30
0.0
  0
SPLINE
  5
1ce
100
AcDbEntity
  8
Capa_1
 62
7
100
AcDbSpline
 70
8
 71
3
 72
8
 73
4
 74
0
 40
0
 40
0
 40
0
 40
0
 40
1
 40
1
 40
1
 40
1
 10
178.124216
 20
29.226682
 30
0.0
 10
178.337720
 20
29.760434
 30
0.0
 10
178.515632
 20
30.317058
 30
0.0
 10
178.657968
 20
30.896554
 30
0.0
  0
SPLINE
  5
1cf
100
AcDbEntity
  8
Capa_1
 62
7
100
AcDbSpline
 70
8
 71
3
 72
8
 73
4
 74
0
 40
0
 40
0
 40
0
 40
0
 40
1
 40
1
 40
1
 40
1
 10
178.657968
 20
30.896554
 30
0.0
 10
178.800304
 20
31.476058
 30
0.0
 10
178.907048
 20
32.078434
 30
0.0
 10
178.978216
 20
32.703682
 30
0.0
  0
SPLINE
  5
1d0
100
AcDbEntity
  8
Capa_1
 62
7
100
AcDbSpline
 70
8
 71
3
 72
8
 73
4
 74
0
 40
0
 40
0
 40
0
 40
0
 40
1
 40
1
 40
1
 40
1
 10
178.978216
 20
32.703682
 30
0.0
 10
179.049416
 20
33.328930
 30
0.0
 10
179.084968
 20
33.977058
 30
0.0
 10
179.084968
 20
34.648058
 30
0.0
  0
SPLINE
  5
1d1
100
AcDbEntity
  8
Capa_1
 62
7
100
AcDbSpline
 70
8
 71
3
 72
8
 73
4
 74
0
 40
0
 40
0
 40
0
 40
0
 40
1
 40
1
 40
1
 40
1
 10
179.084968
 20
34.648058
 30
0.0
 10
179.084968
 20
35.339394
 30
0.0
 10
179.050648
 20
36.012930
 30
0.0
 10
178.982032
 20
36.668682
 30
0.0
  0
SPLINE
  5
1d2
100
AcDbEntity
  8
Capa_1
 62
7
100
AcDbSpline
 70
8
 71
3
 72
8
 73
4
 74
0
 40
0
 40
0
 40
0
 40
0
 40
1
 40
1
 40
1
 40
1
 10
178.982032
 20
36.668682
 30
0.0
 10
178.913392
 20
37.324434
 30
0.0
 10
178.810472
 20
37.962394
 30
0.0
 10
178.673216
 20
38.582554
 30
0.0
  0
SPLINE
  5
1d3
100
AcDbEntity
  8
Capa_1
 62
7
100
AcDbSpline
 70
8
 71
3
 72
8
 73
4
 74
0
 40
0
 40
0
 40
0
 40
0
 40
1
 40
1
 40
1
 40
1
 10
178.673216
 20
38.582554
 30
0.0
 10
178.535968
 20
39.202722
 30
0.0
 10
178.364408
 20
39.805098
 30
0.0
 10
178.158528
 20
40.389682
 30
0.0
  0
SPLINE
  5
1d4
100
AcDbEntity
  8
Capa_1
 62
7
100
AcDbSpline
 70
8
 71
3
 72
8
 73
4
 74
0
 40
0
 40
0
 40
0
 40
0
 40
1
 40
1
 40
1
 40
1
 10
178.158528
 20
40.389682
 30
0.0
 10
177.952656
 20
40.974266
 30
0.0
 10
177.712464
 20
41.541058
 30
0.0
 10
177.437968
 20
42.090058
 30
0.0
  0
SPLINE
  5
1d5
100
AcDbEntity
  8
Capa_1
 62
7
100
AcDbSpline
 70
8
 71
3
 72
8
 73
4
 74
0
 40
0
 40
0
 40
0
 40
0
 40
1
 40
1
 40
1
 40
1
 10
177.437968
 20
42.090058
 30
0.0
 10
177.163464
 20
42.639058
 30
0.0
 10
176.854656
 20
43.170266
 30
0.0
 10
176.511528
 20
43.683682
 30
0.0
  0
SPLINE
  5
1d6
100
AcDbEntity
  8
Capa_1
 62
7
100
AcDbSpline
 70
8
 71
3
 72
8
 73
4
 74
0
 40
0
 40
0
 40
0
 40
0
 40
1
 40
1
 40
1
 40
1
 10
176.511528
 20
43.683682
 30
0.0
 10
176.168408
 20
44.197098
 30
0.0
 10
175.790968
 20
44.692722
 30
0.0
 10
175.379216
 20
45.170554
 30
0.0
  0
SPLINE
  5
1d7
100
AcDbEntity
  8
Capa_1
 62
7
100
AcDbSpline
 70
8
 71
3
 72
8
 73
4
 74
0
 40
0
 40
0
 40
0
 40
0
 40
1
 40
1
 40
1
 40
1
 10
175.379216
 20
45.170554
 30
0.0
 10
174.967464
 20
45.648394
 30
0.0
 10
174.521408
 20
46.108434
 30
0.0
 10
174.041032
 20
46.550682
 30
0.0
  0
SPLINE
  5
1d8
100
AcDbEntity
  8
Capa_1
 62
7
100
AcDbSpline
 70
8
 71
3
 72
8
 73
4
 74
0
 40
0
 40
0
 40
0
 40
0
 40
1
 40
1
 40
1
 40
1
 10
174.041032
 20
46.550682
 30
0.0
 10
173.560656
 20
46.992930
 30
0.0
 10
173.045968
 20
47.417394
 30
0.0
 10
172.496968
 20
47.824058
 30
0.0
  0
SPLINE
  5
1d9
100
AcDbEntity
  8
Capa_1
 62
7
100
AcDbSpline
 70
8
 71
3
 72
8
 73
4
 74
0
 40
0
 40
0
 40
0
 40
0
 40
1
 40
1
 40
1
 40
1
 10
172.496968
 20
47.824058
 30
0.0
 10
171.947968
 20
48.230722
 30
0.0
 10
171.354488
 20
48.643746
 30
0.0
 10
170.716528
 20
49.063122
 30
0.0
  0
SPLINE
  5
1da
100
AcDbEntity
  8
Capa_1
 62
7
100
AcDbSpline
 70
8
 71
3
 72
8
 73
4
 74
0
 40
0
 40
0
 40
0
 40
0
 40
1
 40
1
 40
1
 40
1
 10
170.716528
 20
49.063122
 30
0.0
 10
170.078576
 20
49.482498
 30
0.0
 10
169.396136
 20
49.908226
 30
0.0
 10
168.669216
 20
50.340306
 30
0.0
  0
SPLINE
  5
1db
100
AcDbEntity
  8
Capa_1
 62
7
100
AcDbSpline
 70
8
 71
3
 72
8
 73
4
 74
0
 40
0
 40
0
 40
0
 40
0
 40
1
 40
1
 40
1
 40
1
 10
168.669216
 20
50.340306
 30
0.0
 10
167.942304
 20
50.772394
 30
0.0
 10
167.170904
 20
51.210826
 30
0.0
 10
166.355032
 20
51.655618
 30
0.0
  0
SPLINE
  5
1dc
100
AcDbEntity
  8
Capa_1
 62
7
100
AcDbSpline
 70
8
 71
3
 72
8
 73
4
 74
0
 40
0
 40
0
 40
0
 40
0
 40
1
 40
1
 40
1
 40
1
 10
166.355032
 20
51.655618
 30
0.0
 10
165.539152
 20
52.100410
 30
0.0
 10
164.678800
 20
52.551562
 30
0.0
 10
163.773968
 20
53.009058
 30
0.0
  0
SPLINE
  5
1dd
100
AcDbEntity
  8
Capa_1
 62
7
100
AcDbSpline
 70
8
 71
3
 72
8
 73
4
 74
0
 40
0
 40
0
 40
0
 40
0
 40
1
 40
1
 40
1
 40
1
 10
163.773968
 20
53.009058
 30
0.0
 10
162.869136
 20
53.466554
 30
0.0
 10
161.919824
 20
53.930410
 30
0.0
 10
160.926032
 20
54.400618
 30
0.0
  0
SPLINE
  5
1de
100
AcDbEntity
  8
Capa_1
 62
7
100
AcDbSpline
 70
8
 71
3
 72
8
 73
4
 74
0
 40
0
 40
0
 40
0
 40
0
 40
1
 40
1
 40
1
 40
1
 10
160.926032
 20
54.400618
 30
0.0
 10
159.932240
 20
54.870826
 30
0.0
 10
158.893968
 20
55.347394
 30
0.0
 10
157.811216
 20
55.830306
 30
0.0
  0
SPLINE
  5
1df
100
AcDbEntity
  8
Capa_1
 62
7
100
AcDbSpline
 70
8
 71
3
 72
8
 73
4
 74
0
 40
0
 40
0
 40
0
 40
0
 40
1
 40
1
 40
1
 40
1
 10
157.811216
 20
55.830306
 30
0.0
 10
156.728472
 20
56.313226
 30
0.0
 10
155.601240
 20
56.802498
 30
0.0
 10
154.429528
 20
57.298122
 30
0.0
  0
SPLINE
  5
1e0
100
AcDbEntity
  8
Capa_1
 62
7
100
AcDbSpline
 70
8
 71
3
 72
8
 73
4
 74
0
 40
0
 40
0
 40
0
 40
0
 40
1
 40
1
 40
1
 40
1
 10
154.429528
 20
57.298122
 30
0.0
 10
153.257824
 20
57.793746
 30
0.0
 10
152.041632
 20
58.295722
 30
0.0
 10
150.780968
 20
58.804058
 30
0.0
  0
SPLINE
  5
1e1
100
AcDbEntity
  8
Capa_1
 62
7
100
AcDbSpline
 70
8
 71
3
 72
8
 73
4
 74
0
 40
0
 40
0
 40
0
 40
0
 40
1
 40
1
 40
1
 40
1
 10
150.780968
 20
58.804058
 30
0.0
 10
150.170968
 20
59.048058
 30
0.0
 10
149.563512
 20
59.292058
 30
0.0
 10
148.958600
 20
59.536058
 30
0.0
  0
SPLINE
  5
1e2
100
AcDbEntity
  8
Capa_1
 62
7
100
AcDbSpline
 70
8
 71
3
 72
8
 73
4
 74
0
 40
0
 40
0
 40
0
 40
0
 40
1
 40
1
 40
1
 40
1
 10
148.958600
 20
59.536058
 30
0.0
 10
148.353680
 20
59.780058
 30
0.0
 10
147.751312
 20
60.024058
 30
0.0
 10
147.151488
 20
60.268058
 30
0.0
  0
SPLINE
  5
1e3
100
AcDbEntity
  8
Capa_1
 62
7
100
AcDbSpline
 70
8
 71
3
 72
8
 73
4
 74
0
 40
0
 40
0
 40
0
 40
0
 40
1
 40
1
 40
1
 40
1
 10
147.151488
 20
60.268058
 30
0.0
 10
146.551656
 20
60.512058
 30
0.0
 10
145.954376
 20
60.756058
 30
0.0
 10
145.359632
 20
61.000058
 30
0.0
  0
SPLINE
  5
1e4
100
AcDbEntity
  8
Capa_1
 62
7
100
AcDbSpline
 70
8
 71
3
 72
8
 73
4
 74
0
 40
0
 40
0
 40
0
 40
0
 40
1
 40
1
 40
1
 40
1
 10
145.359632
 20
61.000058
 30
0.0
 10
144.764888
 20
61.244058
 30
0.0
 10
144.172696
 20
61.488058
 30
0.0
 10
143.583040
 20
61.732058
 30
0.0
  0
SPLINE
  5
1e5
100
AcDbEntity
  8
Capa_1
 62
7
100
AcDbSpline
 70
8
 71
3
 72
8
 73
4
 74
0
 40
0
 40
0
 40
0
 40
0
 40
1
 40
1
 40
1
 40
1
 10
143.583040
 20
61.732058
 30
0.0
 10
142.993384
 20
61.976058
 30
0.0
 10
142.406272
 20
62.220058
 30
0.0
 10
141.821704
 20
62.464058
 30
0.0
  0
SPLINE
  5
1e6
100
AcDbEntity
  8
Capa_1
 62
7
100
AcDbSpline
 70
8
 71
3
 72
8
 73
4
 74
0
 40
0
 40
0
 40
0
 40
0
 40
1
 40
1
 40
1
 40
1
 10
141.821704
 20
62.464058
 30
0.0
 10
141.237136
 20
62.708058
 30
0.0
 10
140.655112
 20
62.952058
 30
0.0
 10
140.075624
 20
63.196058
 30
0.0
  0
SPLINE
  5
1e7
100
AcDbEntity
  8
Capa_1
 62
7
100
AcDbSpline
 70
8
 71
3
 72
8
 73
4
 74
0
 40
0
 40
0
 40
0
 40
0
 40
1
 40
1
 40
1
 40
1
 10
140.075624
 20
63.196058
 30
0.0
 10
139.496144
 20
63.440058
 30
0.0
 10
138.919200
 20
63.684058
 30
0.0
 10
138.344808
 20
63.928058
 30
0.0
  0
SPLINE
  5
1e8
100
AcDbEntity
  8
Capa_1
 62
7
100
AcDbSpline
 70
8
 71
3
 72
8
 73
4
 74
0
 40
0
 40
0
 40
0
 40
0
 40
1
 40
1
 40
1
 40
1
 10
138.344808
 20
63.928058
 30
0.0
 10
137.770408
 20
64.172058
 30
0.0
 10
137.198560
 20
64.416058
 30
0.0
 10
136.629248
 20
64.660058
 30
0.0
  0
SPLINE
  5
1e9
100
AcDbEntity
  8
Capa_1
 62
7
100
AcDbSpline
 70
8
 71
3
 72
8
 73
4
 74
0
 40
0
 40
0
 40
0
 40
0
 40
1
 40
1
 40
1
 40
1
 10
136.629248
 20
64.660058
 30
0.0
 10
136.080264
 20
64.924394
 30
0.0
 10
135.540176
 20
65.193810
 30
0.0
 10
135.008976
 20
65.468306
 30
0.0
  0
SPLINE
  5
1ea
100
AcDbEntity
  8
Capa_1
 62
7
100
AcDbSpline
 70
8
 71
3
 72
8
 73
4
 74
0
 40
0
 40
0
 40
0
 40
0
 40
1
 40
1
 40
1
 40
1
 10
135.008976
 20
65.468306
 30
0.0
 10
134.477784
 20
65.742810
 30
0.0
 10
133.955480
 20
66.022394
 30
0.0
 10
133.442072
 20
66.307058
 30
0.0
  0
SPLINE
  5
1eb
100
AcDbEntity
  8
Capa_1
 62
7
100
AcDbSpline
 70
8
 71
3
 72
8
 73
4
 74
0
 40
0
 40
0
 40
0
 40
0
 40
1
 40
1
 40
1
 40
1
 10
133.442072
 20
66.307058
 30
0.0
 10
132.928664
 20
66.591722
 30
0.0
 10
132.424152
 20
66.881474
 30
0.0
 10
131.928536
 20
67.176306
 30
0.0
  0
SPLINE
  5
1ec
100
AcDbEntity
  8
Capa_1
 62
7
100
AcDbSpline
 70
8
 71
3
 72
8
 73
4
 74
0
 40
0
 40
0
 40
0
 40
0
 40
1
 40
1
 40
1
 40
1
 10
131.928536
 20
67.176306
 30
0.0
 10
131.432912
 20
67.471138
 30
0.0
 10
130.946192
 20
67.771058
 30
0.0
 10
130.468360
 20
68.076058
 30
0.0
  0
SPLINE
  5
1ed
100
AcDbEntity
  8
Capa_1
 62
7
100
AcDbSpline
 70
8
 71
3
 72
8
 73
4
 74
0
 40
0
 40
0
 40
0
 40
0
 40
1
 40
1
 40
1
 40
1
 10
130.468360
 20
68.076058
 30
0.0
 10
129.990536
 20
68.381058
 30
0.0
 10
129.521600
 20
68.691138
 30
0.0
 10
129.061560
 20
69.006306
 30
0.0
  0
SPLINE
  5
1ee
100
AcDbEntity
  8
Capa_1
 62
7
100
AcDbSpline
 70
8
 71
3
 72
8
 73
4
 74
0
 40
0
 40
0
 40
0
 40
0
 40
1
 40
1
 40
1
 40
1
 10
129.061560
 20
69.006306
 30
0.0
 10
128.601512
 20
69.321474
 30
0.0
 10
128.150368
 20
69.641722
 30
0.0
 10
127.708120
 20
69.967058
 30
0.0
  0
SPLINE
  5
1ef
100
AcDbEntity
  8
Capa_1
 62
7
100
AcDbSpline
 70
8
 71
3
 72
8
 73
4
 74
0
 40
0
 40
0
 40
0
 40
0
 40
1
 40
1
 40
1
 40
1
 10
127.708120
 20
69.967058
 30
0.0
 10
127.265864
 20
70.292394
 30
0.0
 10
126.832504
 20
70.622810
 30
0.0
 10
126.408040
 20
70.958306
 30
0.0
  0
SPLINE
  5
1f0
100
AcDbEntity
  8
Capa_1
 62
7
100
AcDbSpline
 70
8
 71
3
 72
8
 73
4
 74
0
 40
0
 40
0
 40
0
 40
0
 40
1
 40
1
 40
1
 40
1
 10
126.408040
 20
70.958306
 30
0.0
 10
125.983576
 20
71.293810
 30
0.0
 10
125.568008
 20
71.634394
 30
0.0
 10
125.161336
 20
71.980058
 30
0.0
  0
SPLINE
  5
1f1
100
AcDbEntity
  8
Capa_1
 62
7
100
AcDbSpline
 70
8
 71
3
 72
8
 73
4
 74
0
 40
0
 40
0
 40
0
 40
0
 40
1
 40
1
 40
1
 40
1
 10
125.161336
 20
71.980058
 30
0.0
 10
124.754664
 20
72.325722
 30
0.0
 10
124.358168
 20
72.680282
 30
0.0
 10
123.971832
 20
73.043738
 30
0.0
  0
SPLINE
  5
1f2
100
AcDbEntity
  8
Capa_1
 62
7
100
AcDbSpline
 70
8
 71
3
 72
8
 73
4
 74
0
 40
0
 40
0
 40
0
 40
0
 40
1
 40
1
 40
1
 40
1
 10
123.971832
 20
73.043738
 30
0.0
 10
123.585504
 20
73.407186
 30
0.0
 10
123.209336
 20
73.779546
 30
0.0
 10
122.843336
 20
74.160794
 30
0.0
  0
SPLINE
  5
1f3
100
AcDbEntity
  8
Capa_1
 62
7
100
AcDbSpline
 70
8
 71
3
 72
8
 73
4
 74
0
 40
0
 40
0
 40
0
 40
0
 40
1
 40
1
 40
1
 40
1
 10
122.843336
 20
74.160794
 30
0.0
 10
122.477344
 20
74.542042
 30
0.0
 10
122.121512
 20
74.932186
 30
0.0
 10
121.775848
 20
75.331226
 30
0.0
  0
SPLINE
  5
1f4
100
AcDbEntity
  8
Capa_1
 62
7
100
AcDbSpline
 70
8
 71
3
 72
8
 73
4
 74
0
 40
0
 40
0
 40
0
 40
0
 40
1
 40
1
 40
1
 40
1
 10
121.775848
 20
75.331226
 30
0.0
 10
121.430192
 20
75.730274
 30
0.0
 10
121.094696
 20
76.138210
 30
0.0
 10
120.769368
 20
76.555042
 30
0.0
  0
SPLINE
  5
1f5
100
AcDbEntity
  8
Capa_1
 62
7
100
AcDbSpline
 70
8
 71
3
 72
8
 73
4
 74
0
 40
0
 40
0
 40
0
 40
0
 40
1
 40
1
 40
1
 40
1
 10
120.769368
 20
76.555042
 30
0.0
 10
120.444040
 20
76.971874
 30
0.0
 10
120.128880
 20
77.397610
 30
0.0
 10
119.823888
 20
77.832234
 30
0.0
  0
SPLINE
  5
1f6
100
AcDbEntity
  8
Capa_1
 62
7
100
AcDbSpline
 70
8
 71
3
 72
8
 73
4
 74
0
 40
0
 40
0
 40
0
 40
0
 40
1
 40
1
 40
1
 40
1
 10
119.823888
 20
77.832234
 30
0.0
 10
119.518896
 20
78.266858
 30
0.0
 10
119.224072
 20
78.710386
 30
0.0
 10
118.939416
 20
79.162802
 30
0.0
  0
SPLINE
  5
1f7
100
AcDbEntity
  8
Capa_1
 62
7
100
AcDbSpline
 70
8
 71
3
 72
8
 73
4
 74
0
 40
0
 40
0
 40
0
 40
0
 40
1
 40
1
 40
1
 40
1
 10
118.939416
 20
79.162802
 30
0.0
 10
118.654752
 20
79.615218
 30
0.0
 10
118.380264
 20
80.076538
 30
0.0
 10
118.115936
 20
80.546746
 30
0.0
  0
SPLINE
  5
1f8
100
AcDbEntity
  8
Capa_1
 62
7
100
AcDbSpline
 70
8
 71
3
 72
8
 73
4
 74
0
 40
0
 40
0
 40
0
 40
0
 40
1
 40
1
 40
1
 40
1
 10
118.115936
 20
80.546746
 30
0.0
 10
117.851616
 20
81.016954
 30
0.0
 10
117.597456
 20
81.496058
 30
0.0
 10
117.353464
 20
81.984058
 30
0.0
  0
SPLINE
  5
1f9
100
AcDbEntity
  8
Capa_1
 62
7
100
AcDbSpline
 70
8
 71
3
 72
8
 73
4
 74
0
 40
0
 40
0
 40
0
 40
0
 40
1
 40
1
 40
1
 40
1
 10
117.353464
 20
81.984058
 30
0.0
 10
117.109464
 20
82.472058
 30
0.0
 10
116.880712
 20
82.974034
 30
0.0
 10
116.667216
 20
83.489994
 30
0.0
  0
SPLINE
  5
1fa
100
AcDbEntity
  8
Capa_1
 62
7
100
AcDbSpline
 70
8
 71
3
 72
8
 73
4
 74
0
 40
0
 40
0
 40
0
 40
0
 40
1
 40
1
 40
1
 40
1
 10
116.667216
 20
83.489994
 30
0.0
 10
116.453712
 20
84.005954
 30
0.0
 10
116.255464
 20
84.535890
 30
0.0
 10
116.072464
 20
85.079810
 30
0.0
  0
SPLINE
  5
1fb
100
AcDbEntity
  8
Capa_1
 62
7
100
AcDbSpline
 70
8
 71
3
 72
8
 73
4
 74
0
 40
0
 40
0
 40
0
 40
0
 40
1
 40
1
 40
1
 40
1
 10
116.072464
 20
85.079810
 30
0.0
 10
115.889464
 20
85.623722
 30
0.0
 10
115.721712
 20
86.181618
 30
0.0
 10
115.569216
 20
86.753498
 30
0.0
  0
SPLINE
  5
1fc
100
AcDbEntity
  8
Capa_1
 62
7
100
AcDbSpline
 70
8
 71
3
 72
8
 73
4
 74
0
 40
0
 40
0
 40
0
 40
0
 40
1
 40
1
 40
1
 40
1
 10
115.569216
 20
86.753498
 30
0.0
 10
115.416712
 20
87.325370
 30
0.0
 10
115.279464
 20
87.911226
 30
0.0
 10
115.157464
 20
88.511058
 30
0.0
  0
SPLINE
  5
1fd
100
AcDbEntity
  8
Capa_1
 62
7
100
AcDbSpline
 70
8
 71
3
 72
8
 73
4
 74
0
 40
0
 40
0
 40
0
 40
0
 40
1
 40
1
 40
1
 40
1
 10
115.157464
 20
88.511058
 30
0.0
 10
115.035464
 20
89.110890
 30
0.0
 10
114.928712
 20
89.724706
 30
0.0
 10
114.837216
 20
90.352498
 30
0.0
  0
SPLINE
  5
1fe
100
AcDbEntity
  8
Capa_1
 62
7
100
AcDbSpline
 70
8
 71
3
 72
8
 73
4
 74
0
 40
0
 40
0
 40
0
 40
0
 40
1
 40
1
 40
1
 40
1
 10
114.837216
 20
90.352498
 30
0.0
 10
114.745712
 20
90.980290
 30
0.0
 10
114.669464
 20
91.622058
 30
0.0
 10
114.608464
 20
92.277810
 30
0.0
  0
SPLINE
  5
1ff
100
AcDbEntity
  8
Capa_1
 62
7
100
AcDbSpline
 70
8
 71
3
 72
8
 73
4
 74
0
 40
0
 40
0
 40
0
 40
0
 40
1
 40
1
 40
1
 40
1
 10
114.608464
 20
92.277810
 30
0.0
 10
114.547504
 20
92.933562
 30
0.0
 10
114.501712
 20
93.603290
 30
0.0
 10
114.471216
 20
94.286994
 30
0.0
  0
SPLINE
  5
200
100
AcDbEntity
  8
Capa_1
 62
7
100
AcDbSpline
 70
8
 71
3
 72
8
 73
4
 74
0
 40
0
 40
0
 40
0
 40
0
 40
1
 40
1
 40
1
 40
1
 10
114.471216
 20
94.286994
 30
0.0
 10
114.440736
 20
94.970706
 30
0.0
 10
114.425456
 20
95.668394
 30
0.0
 10
114.425456
 20
96.380058
 30
0.0
  0
SPLINE
  5
201
100
AcDbEntity
  8
Capa_1
 62
7
100
AcDbSpline
 70
8
 71
3
 72
8
 73
4
 74
0
 40
0
 40
0
 40
0
 40
0
 40
1
 40
1
 40
1
 40
1
 10
114.425456
 20
96.380058
 30
0.0
 10
114.425456
 20
97.783058
 30
0.0
 10
114.490256
 20
99.149202
 30
0.0
 10
114.619896
 20
100.478498
 30
0.0
  0
SPLINE
  5
202
100
AcDbEntity
  8
Capa_1
 62
7
100
AcDbSpline
 70
8
 71
3
 72
8
 73
4
 74
0
 40
0
 40
0
 40
0
 40
0
 40
1
 40
1
 40
1
 40
1
 10
114.619896
 20
100.478498
 30
0.0
 10
114.749520
 20
101.807786
 30
0.0
 10
114.943960
 20
103.100226
 30
0.0
 10
115.203208
 20
104.355810
 30
0.0
  0
SPLINE
  5
203
100
AcDbEntity
  8
Capa_1
 62
7
100
AcDbSpline
 70
8
 71
3
 72
8
 73
4
 74
0
 40
0
 40
0
 40
0
 40
0
 40
1
 40
1
 40
1
 40
1
 10
115.203208
 20
104.355810
 30
0.0
 10
115.462456
 20
105.611394
 30
0.0
 10
115.786520
 20
106.830122
 30
0.0
 10
116.175392
 20
108.011994
 30
0.0
  0
SPLINE
  5
204
100
AcDbEntity
  8
Capa_1
 62
7
100
AcDbSpline
 70
8
 71
3
 72
8
 73
4
 74
0
 40
0
 40
0
 40
0
 40
0
 40
1
 40
1
 40
1
 40
1
 10
116.175392
 20
108.011994
 30
0.0
 10
116.564272
 20
109.193874
 30
0.0
 10
117.017960
 20
110.338890
 30
0.0
 10
117.536456
 20
111.447058
 30
0.0
  0
SPLINE
  5
205
100
AcDbEntity
  8
Capa_1
 62
7
100
AcDbSpline
 70
8
 71
3
 72
8
 73
4
 74
0
 40
0
 40
0
 40
0
 40
0
 40
1
 40
1
 40
1
 40
1
 10
117.536456
 20
111.447058
 30
0.0
 10
118.054952
 20
112.555226
 30
0.0
 10
118.638272
 20
113.626538
 30
0.0
 10
119.286392
 20
114.660994
 30
0.0
  0
SPLINE
  5
206
100
AcDbEntity
  8
Capa_1
 62
7
100
AcDbSpline
 70
8
 71
3
 72
8
 73
4
 74
0
 40
0
 40
0
 40
0
 40
0
 40
1
 40
1
 40
1
 40
1
 10
119.286392
 20
114.660994
 30
0.0
 10
119.934520
 20
115.695450
 30
0.0
 10
120.647456
 20
116.693058
 30
0.0
 10
121.425208
 20
117.653810
 30
0.0
  0
SPLINE
  5
207
100
AcDbEntity
  8
Capa_1
 62
7
100
AcDbSpline
 70
8
 71
3
 72
8
 73
4
 74
0
 40
0
 40
0
 40
0
 40
0
 40
1
 40
1
 40
1
 40
1
 10
121.425208
 20
117.653810
 30
0.0
 10
122.202952
 20
118.614554
 30
0.0
 10
123.045520
 20
119.538450
 30
0.0
 10
123.952896
 20
120.425498
 30
0.0
  0
SPLINE
  5
208
100
AcDbEntity
  8
Capa_1
 62
7
100
AcDbSpline
 70
8
 71
3
 72
8
 73
4
 74
0
 40
0
 40
0
 40
0
 40
0
 40
1
 40
1
 40
1
 40
1
 10
123.952896
 20
120.425498
 30
0.0
 10
124.860272
 20
121.312538
 30
0.0
 10
125.832456
 20
122.162722
 30
0.0
 10
126.869456
 20
122.976058
 30
0.0
  0
SPLINE
  5
209
100
AcDbEntity
  8
Capa_1
 62
7
100
AcDbSpline
 70
8
 71
3
 72
8
 73
4
 74
0
 40
0
 40
0
 40
0
 40
0
 40
1
 40
1
 40
1
 40
1
 10
126.869456
 20
122.976058
 30
0.0
 10
127.906416
 20
123.809722
 30
0.0
 10
128.990400
 20
124.591290
 30
0.0
 10
130.121408
 20
125.320746
 30
0.0
  0
SPLINE
  5
20a
100
AcDbEntity
  8
Capa_1
 62
7
100
AcDbSpline
 70
8
 71
3
 72
8
 73
4
 74
0
 40
0
 40
0
 40
0
 40
0
 40
1
 40
1
 40
1
 40
1
 10
130.121408
 20
125.320746
 30
0.0
 10
131.252408
 20
126.050202
 30
0.0
 10
132.430440
 20
126.727562
 30
0.0
 10
133.655496
 20
127.352810
 30
0.0
  0
SPLINE
  5
20b
100
AcDbEntity
  8
Capa_1
 62
7
100
AcDbSpline
 70
8
 71
3
 72
8
 73
4
 74
0
 40
0
 40
0
 40
0
 40
0
 40
1
 40
1
 40
1
 40
1
 10
133.655496
 20
127.352810
 30
0.0
 10
134.880544
 20
127.978058
 30
0.0
 10
136.152624
 20
128.551202
 30
0.0
 10
137.471720
 20
129.072242
 30
0.0
  0
SPLINE
  5
20c
100
AcDbEntity
  8
Capa_1
 62
7
100
AcDbSpline
 70
8
 71
3
 72
8
 73
4
 74
0
 40
0
 40
0
 40
0
 40
0
 40
1
 40
1
 40
1
 40
1
 10
137.471720
 20
129.072242
 30
0.0
 10
138.790816
 20
129.593290
 30
0.0
 10
140.156944
 20
130.062226
 30
0.0
 10
141.570088
 20
130.479058
 30
0.0
  0
SPLINE
  5
20d
100
AcDbEntity
  8
Capa_1
 62
7
100
AcDbSpline
 70
8
 71
3
 72
8
 73
4
 74
0
 40
0
 40
0
 40
0
 40
0
 40
1
 40
1
 40
1
 40
1
 10
141.570088
 20
130.479058
 30
0.0
 10
142.983232
 20
130.895890
 30
0.0
 10
144.443400
 20
131.260618
 30
0.0
 10
145.950600
 20
131.573242
 30
0.0
  0
SPLINE
  5
20e
100
AcDbEntity
  8
Capa_1
 62
7
100
AcDbSpline
 70
8
 71
3
 72
8
 73
4
 74
0
 40
0
 40
0
 40
0
 40
0
 40
1
 40
1
 40
1
 40
1
 10
145.950600
 20
131.573242
 30
0.0
 10
147.457792
 20
131.885874
 30
0.0
 10
149.012008
 20
132.146394
 30
0.0
 10
150.613248
 20
132.354810
 30
0.0
  0
SPLINE
  5
20f
100
AcDbEntity
  8
Capa_1
 62
7
100
AcDbSpline
 70
8
 71
3
 72
8
 73
4
 74
0
 40
0
 40
0
 40
0
 40
0
 40
1
 40
1
 40
1
 40
1
 10
150.613248
 20
132.354810
 30
0.0
 10
152.214480
 20
132.563226
 30
0.0
 10
153.862744
 20
132.719538
 30
0.0
 10
155.558032
 20
132.823746
 30
0.0
  0
SPLINE
  5
210
100
AcDbEntity
  8
Capa_1
 62
7
100
AcDbSpline
 70
8
 71
3
 72
8
 73
4
 74
0
 40
0
 40
0
 40
0
 40
0
 40
1
 40
1
 40
1
 40
1
 10
155.558032
 20
132.823746
 30
0.0
 10
157.253320
 20
132.927954
 30
0.0
 10
158.995624
 20
132.980058
 30
0.0
 10
160.784960
 20
132.980058
 30
0.0
  0
SPLINE
  5
211
100
AcDbEntity
  8
Capa_1
 62
7
100
AcDbSpline
 70
8
 71
3
 72
8
 73
4
 74
0
 40
0
 40
0
 40
0
 40
0
 40
1
 40
1
 40
1
 40
1
 10
160.784960
 20
132.980058
 30
0.0
 10
161.232296
 20
132.980058
 30
0.0
 10
161.679624
 20
132.976058
 30
0.0
 10
162.126960
 20
132.968618
 30
0.0
  0
SPLINE
  5
212
100
AcDbEntity
  8
Capa_1
 62
7
100
AcDbSpline
 70
8
 71
3
 72
8
 73
4
 74
0
 40
0
 40
0
 40
0
 40
0
 40
1
 40
1
 40
1
 40
1
 10
162.126960
 20
132.968618
 30
0.0
 10
162.574296
 20
132.960618
 30
0.0
 10
163.021624
 20
132.949578
 30
0.0
 10
163.468960
 20
132.934298
 30
0.0
  0
SPLINE
  5
213
100
AcDbEntity
  8
Capa_1
 62
7
100
AcDbSpline
 70
8
 71
3
 72
8
 73
4
 74
0
 40
0
 40
0
 40
0
 40
0
 40
1
 40
1
 40
1
 40
1
 10
163.468960
 20
132.934298
 30
0.0
 10
163.916296
 20
132.919018
 30
0.0
 10
164.363624
 20
132.899978
 30
0.0
 10
164.810960
 20
132.877098
 30
0.0
  0
SPLINE
  5
214
100
AcDbEntity
  8
Capa_1
 62
7
100
AcDbSpline
 70
8
 71
3
 72
8
 73
4
 74
0
 40
0
 40
0
 40
0
 40
0
 40
1
 40
1
 40
1
 40
1
 10
164.810960
 20
132.877098
 30
0.0
 10
165.258296
 20
132.854218
 30
0.0
 10
165.705624
 20
132.827498
 30
0.0
 10
166.152960
 20
132.797034
 30
0.0
  0
SPLINE
  5
215
100
AcDbEntity
  8
Capa_1
 62
7
100
AcDbSpline
 70
8
 71
3
 72
8
 73
4
 74
0
 40
0
 40
0
 40
0
 40
0
 40
1
 40
1
 40
1
 40
1
 10
166.152960
 20
132.797034
 30
0.0
 10
166.600296
 20
132.766554
 30
0.0
 10
167.047624
 20
132.732234
 30
0.0
 10
167.494960
 20
132.694098
 30
0.0
  0
SPLINE
  5
216
100
AcDbEntity
  8
Capa_1
 62
7
100
AcDbSpline
 70
8
 71
3
 72
8
 73
4
 74
0
 40
0
 40
0
 40
0
 40
0
 40
1
 40
1
 40
1
 40
1
 10
167.494960
 20
132.694098
 30
0.0
 10
167.942296
 20
132.655938
 30
0.0
 10
168.389624
 20
132.614034
 30
0.0
 10
168.836960
 20
132.568282
 30
0.0
  0
SPLINE
  5
217
100
AcDbEntity
  8
Capa_1
 62
7
100
AcDbSpline
 70
8
 71
3
 72
8
 73
4
 74
0
 40
0
 40
0
 40
0
 40
0
 40
1
 40
1
 40
1
 40
1
 10
168.836960
 20
132.568282
 30
0.0
 10
169.284296
 20
132.522522
 30
0.0
 10
169.731624
 20
132.472970
 30
0.0
 10
170.178960
 20
132.419594
 30
0.0
  0
SPLINE
  5
218
100
AcDbEntity
  8
Capa_1
 62
7
100
AcDbSpline
 70
8
 71
3
 72
8
 73
4
 74
0
 40
0
 40
0
 40
0
 40
0
 40
1
 40
1
 40
1
 40
1
 10
170.178960
 20
132.419594
 30
0.0
 10
170.626296
 20
132.366234
 30
0.0
 10
171.073624
 20
132.309034
 30
0.0
 10
171.520960
 20
132.248034
 30
0.0
  0
SPLINE
  5
219
100
AcDbEntity
  8
Capa_1
 62
7
100
AcDbSpline
 70
8
 71
3
 72
8
 73
4
 74
0
 40
0
 40
0
 40
0
 40
0
 40
1
 40
1
 40
1
 40
1
 10
171.520960
 20
132.248034
 30
0.0
 10
171.968296
 20
132.207394
 30
0.0
 10
172.411816
 20
132.164162
 30
0.0
 10
172.851520
 20
132.118410
 30
0.0
  0
SPLINE
  5
21a
100
AcDbEntity
  8
Capa_1
 62
7
100
AcDbSpline
 70
8
 71
3
 72
8
 73
4
 74
0
 40
0
 40
0
 40
0
 40
0
 40
1
 40
1
 40
1
 40
1
 10
172.851520
 20
132.118410
 30
0.0
 10
173.291232
 20
132.072650
 30
0.0
 10
173.727128
 20
132.024370
 30
0.0
 10
174.159208
 20
131.973530
 30
0.0
  0
SPLINE
  5
21b
100
AcDbEntity
  8
Capa_1
 62
7
100
AcDbSpline
 70
8
 71
3
 72
8
 73
4
 74
0
 40
0
 40
0
 40
0
 40
0
 40
1
 40
1
 40
1
 40
1
 10
174.159208
 20
131.973530
 30
0.0
 10
174.591296
 20
131.922730
 30
0.0
 10
175.019568
 20
131.869322
 30
0.0
 10
175.444024
 20
131.813410
 30
0.0
  0
SPLINE
  5
21c
100
AcDbEntity
  8
Capa_1
 62
7
100
AcDbSpline
 70
8
 71
3
 72
8
 73
4
 74
0
 40
0
 40
0
 40
0
 40
0
 40
1
 40
1
 40
1
 40
1
 10
175.444024
 20
131.813410
 30
0.0
 10
175.868480
 20
131.757490
 30
0.0
 10
176.289128
 20
131.699034
 30
0.0
 10
176.705960
 20
131.638034
 30
0.0
  0
SPLINE
  5
21d
100
AcDbEntity
  8
Capa_1
 62
7
100
AcDbSpline
 70
8
 71
3
 72
8
 73
4
 74
0
 40
0
 40
0
 40
0
 40
0
 40
1
 40
1
 40
1
 40
1
 10
176.705960
 20
131.638034
 30
0.0
 10
177.122792
 20
131.577074
 30
0.0
 10
177.535816
 20
131.513490
 30
0.0
 10
177.945024
 20
131.447410
 30
0.0
  0
SPLINE
  5
21e
100
AcDbEntity
  8
Capa_1
 62
7
100
AcDbSpline
 70
8
 71
3
 72
8
 73
4
 74
0
 40
0
 40
0
 40
0
 40
0
 40
1
 40
1
 40
1
 40
1
 10
177.945024
 20
131.447410
 30
0.0
 10
178.354232
 20
131.381330
 30
0.0
 10
178.759624
 20
131.312698
 30
0.0
 10
179.161208
 20
131.241530
 30
0.0
  0
SPLINE
  5
21f
100
AcDbEntity
  8
Capa_1
 62
7
100
AcDbSpline
 70
8
 71
3
 72
8
 73
4
 74
0
 40
0
 40
0
 40
0
 40
0
 40
1
 40
1
 40
1
 40
1
 10
179.161208
 20
131.241530
 30
0.0
 10
179.562792
 20
131.170330
 30
0.0
 10
179.960568
 20
131.096658
 30
0.0
 10
180.354520
 20
131.020410
 30
0.0
  0
SPLINE
  5
220
100
AcDbEntity
  8
Capa_1
 62
7
100
AcDbSpline
 70
8
 71
3
 72
8
 73
4
 74
0
 40
0
 40
0
 40
0
 40
0
 40
1
 40
1
 40
1
 40
1
 10
180.354520
 20
131.020410
 30
0.0
 10
180.748480
 20
130.944170
 30
0.0
 10
181.138624
 20
130.865370
 30
0.0
 10
181.524960
 20
130.784034
 30
0.0
  0
SPLINE
  5
221
100
AcDbEntity
  8
Capa_1
 62
7
100
AcDbSpline
 70
8
 71
3
 72
8
 73
4
 74
0
 40
0
 40
0
 40
0
 40
0
 40
1
 40
1
 40
1
 40
1
 10
181.524960
 20
130.784034
 30
0.0
 10
181.911296
 20
130.723074
 30
0.0
 10
182.291272
 20
130.660762
 30
0.0
 10
182.664896
 20
130.597218
 30
0.0
  0
SPLINE
  5
222
100
AcDbEntity
  8
Capa_1
 62
7
100
AcDbSpline
 70
8
 71
3
 72
8
 73
4
 74
0
 40
0
 40
0
 40
0
 40
0
 40
1
 40
1
 40
1
 40
1
 10
182.664896
 20
130.597218
 30
0.0
 10
183.038520
 20
130.533698
 30
0.0
 10
183.405792
 20
130.468866
 30
0.0
 10
183.766712
 20
130.402786
 30
0.0
  0
SPLINE
  5
223
100
AcDbEntity
  8
Capa_1
 62
7
100
AcDbSpline
 70
8
 71
3
 72
8
 73
4
 74
0
 40
0
 40
0
 40
0
 40
0
 40
1
 40
1
 40
1
 40
1
 10
183.766712
 20
130.402786
 30
0.0
 10
184.127624
 20
130.336706
 30
0.0
 10
184.482192
 20
130.269346
 30
0.0
 10
184.830400
 20
130.200722
 30
0.0
  0
SPLINE
  5
224
100
AcDbEntity
  8
Capa_1
 62
7
100
AcDbSpline
 70
8
 71
3
 72
8
 73
4
 74
0
 40
0
 40
0
 40
0
 40
0
 40
1
 40
1
 40
1
 40
1
 10
184.830400
 20
130.200722
 30
0.0
 10
185.178608
 20
130.132082
 30
0.0
 10
185.520456
 20
130.062202
 30
0.0
 10
185.855960
 20
129.991034
 30
0.0
  0
SPLINE
  5
225
100
AcDbEntity
  8
Capa_1
 62
7
100
AcDbSpline
 70
8
 71
3
 72
8
 73
4
 74
0
 40
0
 40
0
 40
0
 40
0
 40
1
 40
1
 40
1
 40
1
 10
185.855960
 20
129.991034
 30
0.0
 10
186.191456
 20
129.919834
 30
0.0
 10
186.520608
 20
129.847426
 30
0.0
 10
186.843400
 20
129.773722
 30
0.0
  0
SPLINE
  5
226
100
AcDbEntity
  8
Capa_1
 62
7
100
AcDbSpline
 70
8
 71
3
 72
8
 73
4
 74
0
 40
0
 40
0
 40
0
 40
0
 40
1
 40
1
 40
1
 40
1
 10
186.843400
 20
129.773722
 30
0.0
 10
187.166192
 20
129.700042
 30
0.0
 10
187.482624
 20
129.625034
 30
0.0
 10
187.792712
 20
129.548786
 30
0.0
  0
SPLINE
  5
227
100
AcDbEntity
  8
Capa_1
 62
7
100
AcDbSpline
 70
8
 71
3
 72
8
 73
4
 74
0
 40
0
 40
0
 40
0
 40
0
 40
1
 40
1
 40
1
 40
1
 10
187.792712
 20
129.548786
 30
0.0
 10
188.102792
 20
129.472546
 30
0.0
 10
188.406520
 20
129.395010
 30
0.0
 10
188.703896
 20
129.316218
 30
0.0
  0
SPLINE
  5
228
100
AcDbEntity
  8
Capa_1
 62
7
100
AcDbSpline
 70
8
 71
3
 72
8
 73
4
 74
0
 40
0
 40
0
 40
0
 40
0
 40
1
 40
1
 40
1
 40
1
 10
188.703896
 20
129.316218
 30
0.0
 10
189.001272
 20
129.237418
 30
0.0
 10
189.292296
 20
129.157370
 30
0.0
 10
189.576960
 20
129.076034
 30
0.0
  0
SPLINE
  5
229
100
AcDbEntity
  8
Capa_1
 62
7
100
AcDbSpline
 70
8
 71
3
 72
8
 73
4
 74
0
 40
0
 40
0
 40
0
 40
0
 40
1
 40
1
 40
1
 40
1
 10
189.576960
 20
129.076034
 30
0.0
 10
189.881960
 20
128.994698
 30
0.0
 10
190.178064
 20
128.914642
 30
0.0
 10
190.465272
 20
128.835850
 30
0.0
  0
SPLINE
  5
22a
100
AcDbEntity
  8
Capa_1
 62
7
100
AcDbSpline
 70
8
 71
3
 72
8
 73
4
 74
0
 40
0
 40
0
 40
0
 40
0
 40
1
 40
1
 40
1
 40
1
 10
190.465272
 20
128.835850
 30
0.0
 10
190.752480
 20
128.757050
 30
0.0
 10
191.030792
 20
128.679538
 30
0.0
 10
191.300208
 20
128.603282
 30
0.0
  0
SPLINE
  5
22b
100
AcDbEntity
  8
Capa_1
 62
7
100
AcDbSpline
 70
8
 71
3
 72
8
 73
4
 74
0
 40
0
 40
0
 40
0
 40
0
 40
1
 40
1
 40
1
 40
1
 10
191.300208
 20
128.603282
 30
0.0
 10
191.569624
 20
128.527042
 30
0.0
 10
191.830144
 20
128.452058
 30
0.0
 10
192.081776
 20
128.378346
 30
0.0
  0
SPLINE
  5
22c
100
AcDbEntity
  8
Capa_1
 62
7
100
AcDbSpline
 70
8
 71
3
 72
8
 73
4
 74
0
 40
0
 40
0
 40
0
 40
0
 40
1
 40
1
 40
1
 40
1
 10
192.081776
 20
128.378346
 30
0.0
 10
192.333400
 20
128.304666
 30
0.0
 10
192.576128
 20
128.232202
 30
0.0
 10
192.809960
 20
128.161034
 30
0.0
  0
SPLINE
  5
22d
100
AcDbEntity
  8
Capa_1
 62
7
100
AcDbSpline
 70
8
 71
3
 72
8
 73
4
 74
0
 40
0
 40
0
 40
0
 40
0
 40
1
 40
1
 40
1
 40
1
 10
192.809960
 20
128.161034
 30
0.0
 10
193.043792
 20
128.089834
 30
0.0
 10
193.268728
 20
128.019970
 30
0.0
 10
193.484776
 20
127.951346
 30
0.0
  0
SPLINE
  5
22e
100
AcDbEntity
  8
Capa_1
 62
7
100
AcDbSpline
 70
8
 71
3
 72
8
 73
4
 74
0
 40
0
 40
0
 40
0
 40
0
 40
1
 40
1
 40
1
 40
1
 10
193.484776
 20
127.951346
 30
0.0
 10
193.700816
 20
127.882706
 30
0.0
 10
193.907960
 20
127.815370
 30
0.0
 10
194.106208
 20
127.749282
 30
0.0
  0
SPLINE
  5
22f
100
AcDbEntity
  8
Capa_1
 62
7
100
AcDbSpline
 70
8
 71
3
 72
8
 73
4
 74
0
 40
0
 40
0
 40
0
 40
0
 40
1
 40
1
 40
1
 40
1
 10
194.106208
 20
127.749282
 30
0.0
 10
194.304456
 20
127.683202
 30
0.0
 10
194.493816
 20
127.618386
 30
0.0
 10
194.674272
 20
127.554850
 30
0.0
  0
SPLINE
  5
230
100
AcDbEntity
  8
Capa_1
 62
7
100
AcDbSpline
 70
8
 71
3
 72
8
 73
4
 74
0
 40
0
 40
0
 40
0
 40
0
 40
1
 40
1
 40
1
 40
1
 10
194.674272
 20
127.554850
 30
0.0
 10
194.854728
 20
127.491330
 30
0.0
 10
195.026296
 20
127.429034
 30
0.0
 10
195.188960
 20
127.368034
 30
0.0
  0
LWPOLYLINE
  5
231
100
AcDbEntity
  8
Capa_1
 62
7
100
AcDbPolyline
 90
2
 70
1
 10
95.404160
 20
66.796738
 30
0.0
 10
95.404160
 20
66.796738
 30
0.0
  0
SPLINE
  5
232
100
AcDbEntity
  8
Capa_1
 62
7
100
AcDbSpline
 70
8
 71
3
 72
8
 73
4
 74
0
 40
0
 40
0
 40
0
 40
0
 40
1
 40
1
 40
1
 40
1
 10
191.040960
 20
107.848034
 30
0.0
 10
190.735960
 20
108.010698
 30
0.0
 10
190.409352
 20
108.173370
 30
0.0
 10
190.061144
 20
108.336034
 30
0.0
  0
SPLINE
  5
233
100
AcDbEntity
  8
Capa_1
 62
7
100
AcDbSpline
 70
8
 71
3
 72
8
 73
4
 74
0
 40
0
 40
0
 40
0
 40
0
 40
1
 40
1
 40
1
 40
1
 10
190.061144
 20
108.336034
 30
0.0
 10
189.712936
 20
108.498698
 30
0.0
 10
189.343128
 20
108.661370
 30
0.0
 10
188.951712
 20
108.824034
 30
0.0
  0
SPLINE
  5
234
100
AcDbEntity
  8
Capa_1
 62
7
100
AcDbSpline
 70
8
 71
3
 72
8
 73
4
 74
0
 40
0
 40
0
 40
0
 40
0
 40
1
 40
1
 40
1
 40
1
 10
188.951712
 20
108.824034
 30
0.0
 10
188.560296
 20
108.986698
 30
0.0
 10
188.147272
 20
109.149370
 30
0.0
 10
187.712648
 20
109.312034
 30
0.0
  0
SPLINE
  5
235
100
AcDbEntity
  8
Capa_1
 62
7
100
AcDbSpline
 70
8
 71
3
 72
8
 73
4
 74
0
 40
0
 40
0
 40
0
 40
0
 40
1
 40
1
 40
1
 40
1
 10
187.712648
 20
109.312034
 30
0.0
 10
187.278024
 20
109.474698
 30
0.0
 10
186.821792
 20
109.637370
 30
0.0
 10
186.343960
 20
109.800034
 30
0.0
  0
SPLINE
  5
236
100
AcDbEntity
  8
Capa_1
 62
7
100
AcDbSpline
 70
8
 71
3
 72
8
 73
4
 74
0
 40
0
 40
0
 40
0
 40
0
 40
1
 40
1
 40
1
 40
1
 10
186.343960
 20
109.800034
 30
0.0
 10
185.866128
 20
109.962698
 30
0.0
 10
185.366688
 20
110.125370
 30
0.0
 10
184.845648
 20
110.288034
 30
0.0
  0
SPLINE
  5
237
100
AcDbEntity
  8
Capa_1
 62
7
100
AcDbSpline
 70
8
 71
3
 72
8
 73
4
 74
0
 40
0
 40
0
 40
0
 40
0
 40
1
 40
1
 40
1
 40
1
 10
184.845648
 20
110.288034
 30
0.0
 10
184.324608
 20
110.450698
 30
0.0
 10
183.781960
 20
110.613370
 30
0.0
 10
183.217712
 20
110.776034
 30
0.0
  0
SPLINE
  5
238
100
AcDbEntity
  8
Capa_1
 62
7
100
AcDbSpline
 70
8
 71
3
 72
8
 73
4
 74
0
 40
0
 40
0
 40
0
 40
0
 40
1
 40
1
 40
1
 40
1
 10
183.217712
 20
110.776034
 30
0.0
 10
182.653456
 20
110.938698
 30
0.0
 10
182.067608
 20
111.101370
 30
0.0
 10
181.460144
 20
111.264034
 30
0.0
  0
SPLINE
  5
239
100
AcDbEntity
  8
Capa_1
 62
7
100
AcDbSpline
 70
8
 71
3
 72
8
 73
4
 74
0
 40
0
 40
0
 40
0
 40
0
 40
1
 40
1
 40
1
 40
1
 10
181.460144
 20
111.264034
 30
0.0
 10
180.852688
 20
111.426698
 30
0.0
 10
180.223624
 20
111.589370
 30
0.0
 10
179.572960
 20
111.752034
 30
0.0
  0
SPLINE
  5
23a
100
AcDbEntity
  8
Capa_1
 62
7
100
AcDbSpline
 70
8
 71
3
 72
8
 73
4
 74
0
 40
0
 40
0
 40
0
 40
0
 40
1
 40
1
 40
1
 40
1
 10
179.572960
 20
111.752034
 30
0.0
 10
178.922296
 20
111.935034
 30
0.0
 10
178.255104
 20
112.106594
 30
0.0
 10
177.571400
 20
112.266722
 30
0.0
  0
SPLINE
  5
23b
100
AcDbEntity
  8
Capa_1
 62
7
100
AcDbSpline
 70
8
 71
3
 72
8
 73
4
 74
0
 40
0
 40
0
 40
0
 40
0
 40
1
 40
1
 40
1
 40
1
 10
177.571400
 20
112.266722
 30
0.0
 10
176.887688
 20
112.426850
 30
0.0
 10
176.187464
 20
112.575530
 30
0.0
 10
175.470712
 20
112.712786
 30
0.0
  0
SPLINE
  5
23c
100
AcDbEntity
  8
Capa_1
 62
7
100
AcDbSpline
 70
8
 71
3
 72
8
 73
4
 74
0
 40
0
 40
0
 40
0
 40
0
 40
1
 40
1
 40
1
 40
1
 10
175.470712
 20
112.712786
 30
0.0
 10
174.753960
 20
112.850034
 30
0.0
 10
174.020688
 20
112.975850
 30
0.0
 10
173.270896
 20
113.090218
 30
0.0
  0
SPLINE
  5
23d
100
AcDbEntity
  8
Capa_1
 62
7
100
AcDbSpline
 70
8
 71
3
 72
8
 73
4
 74
0
 40
0
 40
0
 40
0
 40
0
 40
1
 40
1
 40
1
 40
1
 10
173.270896
 20
113.090218
 30
0.0
 10
172.521104
 20
113.204594
 30
0.0
 10
171.754792
 20
113.307530
 30
0.0
 10
170.971960
 20
113.399034
 30
0.0
  0
SPLINE
  5
23e
100
AcDbEntity
  8
Capa_1
 62
7
100
AcDbSpline
 70
8
 71
3
 72
8
 73
4
 74
0
 40
0
 40
0
 40
0
 40
0
 40
1
 40
1
 40
1
 40
1
 10
170.971960
 20
113.399034
 30
0.0
 10
170.189128
 20
113.490530
 30
0.0
 10
169.389776
 20
113.570594
 30
0.0
 10
168.573896
 20
113.639218
 30
0.0
  0
SPLINE
  5
23f
100
AcDbEntity
  8
Capa_1
 62
7
100
AcDbSpline
 70
8
 71
3
 72
8
 73
4
 74
0
 40
0
 40
0
 40
0
 40
0
 40
1
 40
1
 40
1
 40
1
 10
168.573896
 20
113.639218
 30
0.0
 10
167.758024
 20
113.707858
 30
0.0
 10
166.925624
 20
113.765034
 30
0.0
 10
166.076712
 20
113.810786
 30
0.0
  0
SPLINE
  5
240
100
AcDbEntity
  8
Capa_1
 62
7
100
AcDbSpline
 70
8
 71
3
 72
8
 73
4
 74
0
 40
0
 40
0
 40
0
 40
0
 40
1
 40
1
 40
1
 40
1
 10
166.076712
 20
113.810786
 30
0.0
 10
165.227792
 20
113.856546
 30
0.0
 10
164.362352
 20
113.890850
 30
0.0
 10
163.480400
 20
113.913722
 30
0.0
  0
SPLINE
  5
241
100
AcDbEntity
  8
Capa_1
 62
7
100
AcDbSpline
 70
8
 71
3
 72
8
 73
4
 74
0
 40
0
 40
0
 40
0
 40
0
 40
1
 40
1
 40
1
 40
1
 10
163.480400
 20
113.913722
 30
0.0
 10
162.598440
 20
113.936602
 30
0.0
 10
161.699960
 20
113.948042
 30
0.0
 10
160.784960
 20
113.948042
 30
0.0
  0
SPLINE
  5
242
100
AcDbEntity
  8
Capa_1
 62
7
100
AcDbSpline
 70
8
 71
3
 72
8
 73
4
 74
0
 40
0
 40
0
 40
0
 40
0
 40
1
 40
1
 40
1
 40
1
 10
160.784960
 20
113.948042
 30
0.0
 10
159.991960
 20
113.948042
 30
0.0
 10
159.211672
 20
113.927722
 30
0.0
 10
158.444088
 20
113.887002
 30
0.0
  0
SPLINE
  5
243
100
AcDbEntity
  8
Capa_1
 62
7
100
AcDbSpline
 70
8
 71
3
 72
8
 73
4
 74
0
 40
0
 40
0
 40
0
 40
0
 40
1
 40
1
 40
1
 40
1
 10
158.444088
 20
113.887002
 30
0.0
 10
157.676504
 20
113.846362
 30
0.0
 10
156.921624
 20
113.785338
 30
0.0
 10
156.179456
 20
113.704002
 30
0.0
  0
SPLINE
  5
244
100
AcDbEntity
  8
Capa_1
 62
7
100
AcDbSpline
 70
8
 71
3
 72
8
 73
4
 74
0
 40
0
 40
0
 40
0
 40
0
 40
1
 40
1
 40
1
 40
1
 10
156.179456
 20
113.704002
 30
0.0
 10
155.437296
 20
113.622666
 30
0.0
 10
154.707832
 20
113.521002
 30
0.0
 10
153.991088
 20
113.399002
 30
0.0
  0
SPLINE
  5
245
100
AcDbEntity
  8
Capa_1
 62
7
100
AcDbSpline
 70
8
 71
3
 72
8
 73
4
 74
0
 40
0
 40
0
 40
0
 40
0
 40
1
 40
1
 40
1
 40
1
 10
153.991088
 20
113.399002
 30
0.0
 10
153.274336
 20
113.277002
 30
0.0
 10
152.570296
 20
113.134666
 30
0.0
 10
151.878960
 20
112.972002
 30
0.0
  0
SPLINE
  5
246
100
AcDbEntity
  8
Capa_1
 62
7
100
AcDbSpline
 70
8
 71
3
 72
8
 73
4
 74
0
 40
0
 40
0
 40
0
 40
0
 40
1
 40
1
 40
1
 40
1
 10
151.878960
 20
112.972002
 30
0.0
 10
151.187624
 20
112.809338
 30
0.0
 10
150.509000
 20
112.626338
 30
0.0
 10
149.843088
 20
112.423002
 30
0.0
  0
SPLINE
  5
247
100
AcDbEntity
  8
Capa_1
 62
7
100
AcDbSpline
 70
8
 71
3
 72
8
 73
4
 74
0
 40
0
 40
0
 40
0
 40
0
 40
1
 40
1
 40
1
 40
1
 10
149.843088
 20
112.423002
 30
0.0
 10
149.177168
 20
112.219666
 30
0.0
 10
148.523960
 20
111.996002
 30
0.0
 10
147.883456
 20
111.752002
 30
0.0
  0
SPLINE
  5
248
100
AcDbEntity
  8
Capa_1
 62
7
100
AcDbSpline
 70
8
 71
3
 72
8
 73
4
 74
0
 40
0
 40
0
 40
0
 40
0
 40
1
 40
1
 40
1
 40
1
 10
147.883456
 20
111.752002
 30
0.0
 10
147.242960
 20
111.508002
 30
0.0
 10
146.615168
 20
111.243666
 30
0.0
 10
146.000088
 20
110.959002
 30
0.0
  0
SPLINE
  5
249
100
AcDbEntity
  8
Capa_1
 62
7
100
AcDbSpline
 70
8
 71
3
 72
8
 73
4
 74
0
 40
0
 40
0
 40
0
 40
0
 40
1
 40
1
 40
1
 40
1
 10
146.000088
 20
110.959002
 30
0.0
 10
145.385000
 20
110.674338
 30
0.0
 10
144.782624
 20
110.369338
 30
0.0
 10
144.192960
 20
110.044002
 30
0.0
  0
SPLINE
  5
24a
100
AcDbEntity
  8
Capa_1
 62
7
100
AcDbSpline
 70
8
 71
3
 72
8
 73
4
 74
0
 40
0
 40
0
 40
0
 40
0
 40
1
 40
1
 40
1
 40
1
 10
144.192960
 20
110.044002
 30
0.0
 10
143.603304
 20
109.739002
 30
0.0
 10
143.050504
 20
109.411130
 30
0.0
 10
142.534560
 20
109.060378
 30
0.0
  0
SPLINE
  5
24b
100
AcDbEntity
  8
Capa_1
 62
7
100
AcDbSpline
 70
8
 71
3
 72
8
 73
4
 74
0
 40
0
 40
0
 40
0
 40
0
 40
1
 40
1
 40
1
 40
1
 10
142.534560
 20
109.060378
 30
0.0
 10
142.018616
 20
108.709626
 30
0.0
 10
141.539520
 20
108.336002
 30
0.0
 10
141.097280
 20
107.939498
 30
0.0
  0
SPLINE
  5
24c
100
AcDbEntity
  8
Capa_1
 62
7
100
AcDbSpline
 70
8
 71
3
 72
8
 73
4
 74
0
 40
0
 40
0
 40
0
 40
0
 40
1
 40
1
 40
1
 40
1
 10
141.097280
 20
107.939498
 30
0.0
 10
140.655040
 20
107.543002
 30
0.0
 10
140.249656
 20
107.123626
 30
0.0
 10
139.881120
 20
106.681378
 30
0.0
  0
SPLINE
  5
24d
100
AcDbEntity
  8
Capa_1
 62
7
100
AcDbSpline
 70
8
 71
3
 72
8
 73
4
 74
0
 40
0
 40
0
 40
0
 40
0
 40
1
 40
1
 40
1
 40
1
 10
139.881120
 20
106.681378
 30
0.0
 10
139.512584
 20
106.239130
 30
0.0
 10
139.180904
 20
105.774002
 30
0.0
 10
138.886080
 20
105.286002
 30
0.0
  0
SPLINE
  5
24e
100
AcDbEntity
  8
Capa_1
 62
7
100
AcDbSpline
 70
8
 71
3
 72
8
 73
4
 74
0
 40
0
 40
0
 40
0
 40
0
 40
1
 40
1
 40
1
 40
1
 10
138.886080
 20
105.286002
 30
0.0
 10
138.591256
 20
104.798002
 30
0.0
 10
138.333280
 20
104.287130
 30
0.0
 10
138.112160
 20
103.753378
 30
0.0
  0
SPLINE
  5
24f
100
AcDbEntity
  8
Capa_1
 62
7
100
AcDbSpline
 70
8
 71
3
 72
8
 73
4
 74
0
 40
0
 40
0
 40
0
 40
0
 40
1
 40
1
 40
1
 40
1
 10
138.112160
 20
103.753378
 30
0.0
 10
137.891040
 20
103.219626
 30
0.0
 10
137.706776
 20
102.663002
 30
0.0
 10
137.559360
 20
102.083498
 30
0.0
  0
SPLINE
  5
250
100
AcDbEntity
  8
Capa_1
 62
7
100
AcDbSpline
 70
8
 71
3
 72
8
 73
4
 74
0
 40
0
 40
0
 40
0
 40
0
 40
1
 40
1
 40
1
 40
1
 10
137.559360
 20
102.083498
 30
0.0
 10
137.411944
 20
101.504002
 30
0.0
 10
137.301384
 20
100.901626
 30
0.0
 10
137.227680
 20
100.276378
 30
0.0
  0
SPLINE
  5
251
100
AcDbEntity
  8
Capa_1
 62
7
100
AcDbSpline
 70
8
 71
3
 72
8
 73
4
 74
0
 40
0
 40
0
 40
0
 40
0
 40
1
 40
1
 40
1
 40
1
 10
137.227680
 20
100.276378
 30
0.0
 10
137.154000
 20
99.651130
 30
0.0
 10
137.117120
 20
99.003002
 30
0.0
 10
137.117120
 20
98.332002
 30
0.0
  0
SPLINE
  5
252
100
AcDbEntity
  8
Capa_1
 62
7
100
AcDbSpline
 70
8
 71
3
 72
8
 73
4
 74
0
 40
0
 40
0
 40
0
 40
0
 40
1
 40
1
 40
1
 40
1
 10
137.117120
 20
98.332002
 30
0.0
 10
137.117120
 20
97.986338
 30
0.0
 10
137.125120
 20
97.645754
 30
0.0
 10
137.140000
 20
97.310250
 30
0.0
  0
SPLINE
  5
253
100
AcDbEntity
  8
Capa_1
 62
7
100
AcDbSpline
 70
8
 71
3
 72
8
 73
4
 74
0
 40
0
 40
0
 40
0
 40
0
 40
1
 40
1
 40
1
 40
1
 10
137.140000
 20
97.310250
 30
0.0
 10
137.155280
 20
96.974754
 30
0.0
 10
137.178160
 20
96.644338
 30
0.0
 10
137.208640
 20
96.319002
 30
0.0
  0
SPLINE
  5
254
100
AcDbEntity
  8
Capa_1
 62
7
100
AcDbSpline
 70
8
 71
3
 72
8
 73
4
 74
0
 40
0
 40
0
 40
0
 40
0
 40
1
 40
1
 40
1
 40
1
 10
137.208640
 20
96.319002
 30
0.0
 10
137.239120
 20
95.993666
 30
0.0
 10
137.277280
 20
95.673418
 30
0.0
 10
137.323008
 20
95.358250
 30
0.0
  0
SPLINE
  5
255
100
AcDbEntity
  8
Capa_1
 62
7
100
AcDbSpline
 70
8
 71
3
 72
8
 73
4
 74
0
 40
0
 40
0
 40
0
 40
0
 40
1
 40
1
 40
1
 40
1
 10
137.323008
 20
95.358250
 30
0.0
 10
137.368768
 20
95.043082
 30
0.0
 10
137.422136
 20
94.733002
 30
0.0
 10
137.483128
 20
94.428002
 30
0.0
  0
SPLINE
  5
256
100
AcDbEntity
  8
Capa_1
 62
7
100
AcDbSpline
 70
8
 71
3
 72
8
 73
4
 74
0
 40
0
 40
0
 40
0
 40
0
 40
1
 40
1
 40
1
 40
1
 10
137.483128
 20
94.428002
 30
0.0
 10
137.544088
 20
94.123002
 30
0.0
 10
137.612752
 20
93.823082
 30
0.0
 10
137.689000
 20
93.528250
 30
0.0
  0
SPLINE
  5
257
100
AcDbEntity
  8
Capa_1
 62
7
100
AcDbSpline
 70
8
 71
3
 72
8
 73
4
 74
0
 40
0
 40
0
 40
0
 40
0
 40
1
 40
1
 40
1
 40
1
 10
137.689000
 20
93.528250
 30
0.0
 10
137.765240
 20
93.233418
 30
0.0
 10
137.849112
 20
92.943666
 30
0.0
 10
137.940616
 20
92.659002
 30
0.0
  0
SPLINE
  5
258
100
AcDbEntity
  8
Capa_1
 62
7
100
AcDbSpline
 70
8
 71
3
 72
8
 73
4
 74
0
 40
0
 40
0
 40
0
 40
0
 40
1
 40
1
 40
1
 40
1
 10
137.940616
 20
92.659002
 30
0.0
 10
138.032112
 20
92.374338
 30
0.0
 10
138.131232
 20
92.094754
 30
0.0
 10
138.237976
 20
91.820250
 30
0.0
  0
SPLINE
  5
259
100
AcDbEntity
  8
Capa_1
 62
7
100
AcDbSpline
 70
8
 71
3
 72
8
 73
4
 74
0
 40
0
 40
0
 40
0
 40
0
 40
1
 40
1
 40
1
 40
1
 10
138.237976
 20
91.820250
 30
0.0
 10
138.344720
 20
91.545754
 30
0.0
 10
138.459096
 20
91.276338
 30
0.0
 10
138.581088
 20
91.012002
 30
0.0
  0
SPLINE
  5
25a
100
AcDbEntity
  8
Capa_1
 62
7
100
AcDbSpline
 70
8
 71
3
 72
8
 73
4
 74
0
 40
0
 40
0
 40
0
 40
0
 40
1
 40
1
 40
1
 40
1
 10
138.581088
 20
91.012002
 30
0.0
 10
138.723416
 20
90.747666
 30
0.0
 10
138.873360
 20
90.485874
 30
0.0
 10
139.030936
 20
90.226626
 30
0.0
  0
SPLINE
  5
25b
100
AcDbEntity
  8
Capa_1
 62
7
100
AcDbSpline
 70
8
 71
3
 72
8
 73
4
 74
0
 40
0
 40
0
 40
0
 40
0
 40
1
 40
1
 40
1
 40
1
 10
139.030936
 20
90.226626
 30
0.0
 10
139.188512
 20
89.967378
 30
0.0
 10
139.353712
 20
89.710666
 30
0.0
 10
139.526544
 20
89.456498
 30
0.0
  0
SPLINE
  5
25c
100
AcDbEntity
  8
Capa_1
 62
7
100
AcDbSpline
 70
8
 71
3
 72
8
 73
4
 74
0
 40
0
 40
0
 40
0
 40
0
 40
1
 40
1
 40
1
 40
1
 10
139.526544
 20
89.456498
 30
0.0
 10
139.699368
 20
89.202338
 30
0.0
 10
139.879824
 20
88.950714
 30
0.0
 10
140.067896
 20
88.701626
 30
0.0
  0
SPLINE
  5
25d
100
AcDbEntity
  8
Capa_1
 62
7
100
AcDbSpline
 70
8
 71
3
 72
8
 73
4
 74
0
 40
0
 40
0
 40
0
 40
0
 40
1
 40
1
 40
1
 40
1
 10
140.067896
 20
88.701626
 30
0.0
 10
140.255976
 20
88.452546
 30
0.0
 10
140.451680
 20
88.206002
 30
0.0
 10
140.655008
 20
87.962002
 30
0.0
  0
SPLINE
  5
25e
100
AcDbEntity
  8
Capa_1
 62
7
100
AcDbSpline
 70
8
 71
3
 72
8
 73
4
 74
0
 40
0
 40
0
 40
0
 40
0
 40
1
 40
1
 40
1
 40
1
 10
140.655008
 20
87.962002
 30
0.0
 10
140.858336
 20
87.718002
 30
0.0
 10
141.069296
 20
87.476546
 30
0.0
 10
141.287872
 20
87.237626
 30
0.0
  0
SPLINE
  5
25f
100
AcDbEntity
  8
Capa_1
 62
7
100
AcDbSpline
 70
8
 71
3
 72
8
 73
4
 74
0
 40
0
 40
0
 40
0
 40
0
 40
1
 40
1
 40
1
 40
1
 10
141.287872
 20
87.237626
 30
0.0
 10
141.506456
 20
86.998714
 30
0.0
 10
141.732656
 20
86.762338
 30
0.0
 10
141.966488
 20
86.528506
 30
0.0
  0
SPLINE
  5
260
100
AcDbEntity
  8
Capa_1
 62
7
100
AcDbSpline
 70
8
 71
3
 72
8
 73
4
 74
0
 40
0
 40
0
 40
0
 40
0
 40
1
 40
1
 40
1
 40
1
 10
141.966488
 20
86.528506
 30
0.0
 10
142.200320
 20
86.294666
 30
0.0
 10
142.441776
 20
86.063378
 30
0.0
 10
142.690864
 20
85.834626
 30
0.0
  0
SPLINE
  5
261
100
AcDbEntity
  8
Capa_1
 62
7
100
AcDbSpline
 70
8
 71
3
 72
8
 73
4
 74
0
 40
0
 40
0
 40
0
 40
0
 40
1
 40
1
 40
1
 40
1
 10
142.690864
 20
85.834626
 30
0.0
 10
142.939944
 20
85.605874
 30
0.0
 10
143.196648
 20
85.379666
 30
0.0
 10
143.460984
 20
85.156002
 30
0.0
  0
SPLINE
  5
262
100
AcDbEntity
  8
Capa_1
 62
7
100
AcDbSpline
 70
8
 71
3
 72
8
 73
4
 74
0
 40
0
 40
0
 40
0
 40
0
 40
1
 40
1
 40
1
 40
1
 10
143.460984
 20
85.156002
 30
0.0
 10
143.745648
 20
84.952666
 30
0.0
 10
144.037944
 20
84.750610
 30
0.0
 10
144.337856
 20
84.549818
 30
0.0
  0
SPLINE
  5
263
100
AcDbEntity
  8
Capa_1
 62
7
100
AcDbSpline
 70
8
 71
3
 72
8
 73
4
 74
0
 40
0
 40
0
 40
0
 40
0
 40
1
 40
1
 40
1
 40
1
 10
144.337856
 20
84.549818
 30
0.0
 10
144.637776
 20
84.349026
 30
0.0
 10
144.945320
 20
84.149498
 30
0.0
 10
145.260488
 20
83.951250
 30
0.0
  0
SPLINE
  5
264
100
AcDbEntity
  8
Capa_1
 62
7
100
AcDbSpline
 70
8
 71
3
 72
8
 73
4
 74
0
 40
0
 40
0
 40
0
 40
0
 40
1
 40
1
 40
1
 40
1
 10
145.260488
 20
83.951250
 30
0.0
 10
145.575648
 20
83.753002
 30
0.0
 10
145.898440
 20
83.556026
 30
0.0
 10
146.228856
 20
83.360314
 30
0.0
  0
SPLINE
  5
265
100
AcDbEntity
  8
Capa_1
 62
7
100
AcDbSpline
 70
8
 71
3
 72
8
 73
4
 74
0
 40
0
 40
0
 40
0
 40
0
 40
1
 40
1
 40
1
 40
1
 10
146.228856
 20
83.360314
 30
0.0
 10
146.559272
 20
83.164610
 30
0.0
 10
146.897320
 20
82.970170
 30
0.0
 10
147.242984
 20
82.777002
 30
0.0
  0
SPLINE
  5
266
100
AcDbEntity
  8
Capa_1
 62
7
100
AcDbSpline
 70
8
 71
3
 72
8
 73
4
 74
0
 40
0
 40
0
 40
0
 40
0
 40
1
 40
1
 40
1
 40
1
 10
147.242984
 20
82.777002
 30
0.0
 10
147.588648
 20
82.583834
 30
0.0
 10
147.941944
 20
82.391938
 30
0.0
 10
148.302856
 20
82.201314
 30
0.0
  0
SPLINE
  5
267
100
AcDbEntity
  8
Capa_1
 62
7
100
AcDbSpline
 70
8
 71
3
 72
8
 73
4
 74
0
 40
0
 40
0
 40
0
 40
0
 40
1
 40
1
 40
1
 40
1
 10
148.302856
 20
82.201314
 30
0.0
 10
148.663776
 20
82.010690
 30
0.0
 10
149.032320
 20
81.821338
 30
0.0
 10
149.408480
 20
81.633250
 30
0.0
  0
SPLINE
  5
268
100
AcDbEntity
  8
Capa_1
 62
7
100
AcDbSpline
 70
8
 71
3
 72
8
 73
4
 74
0
 40
0
 40
0
 40
0
 40
0
 40
1
 40
1
 40
1
 40
1
 10
149.408480
 20
81.633250
 30
0.0
 10
149.784648
 20
81.445170
 30
0.0
 10
150.168440
 20
81.258354
 30
0.0
 10
150.559856
 20
81.072818
 30
0.0
  0
SPLINE
  5
269
100
AcDbEntity
  8
Capa_1
 62
7
100
AcDbSpline
 70
8
 71
3
 72
8
 73
4
 74
0
 40
0
 40
0
 40
0
 40
0
 40
1
 40
1
 40
1
 40
1
 10
150.559856
 20
81.072818
 30
0.0
 10
150.951272
 20
80.887274
 30
0.0
 10
151.350320
 20
80.703002
 30
0.0
 10
151.756984
 20
80.520002
 30
0.0
  0
SPLINE
  5
26a
100
AcDbEntity
  8
Capa_1
 62
7
100
AcDbSpline
 70
8
 71
3
 72
8
 73
4
 74
0
 40
0
 40
0
 40
0
 40
0
 40
1
 40
1
 40
1
 40
1
 10
151.756984
 20
80.520002
 30
0.0
 10
152.163648
 20
80.337002
 30
0.0
 10
152.580480
 20
80.152730
 30
0.0
 10
153.007480
 20
79.967186
 30
0.0
  0
SPLINE
  5
26b
100
AcDbEntity
  8
Capa_1
 62
7
100
AcDbSpline
 70
8
 71
3
 72
8
 73
4
 74
0
 40
0
 40
0
 40
0
 40
0
 40
1
 40
1
 40
1
 40
1
 10
153.007480
 20
79.967186
 30
0.0
 10
153.434480
 20
79.781650
 30
0.0
 10
153.871648
 20
79.594834
 30
0.0
 10
154.318984
 20
79.406754
 30
0.0
  0
SPLINE
  5
26c
100
AcDbEntity
  8
Capa_1
 62
7
100
AcDbSpline
 70
8
 71
3
 72
8
 73
4
 74
0
 40
0
 40
0
 40
0
 40
0
 40
1
 40
1
 40
1
 40
1
 10
154.318984
 20
79.406754
 30
0.0
 10
154.766320
 20
79.218666
 30
0.0
 10
155.223816
 20
79.029314
 30
0.0
 10
155.691480
 20
78.838690
 30
0.0
  0
SPLINE
  5
26d
100
AcDbEntity
  8
Capa_1
 62
7
100
AcDbSpline
 70
8
 71
3
 72
8
 73
4
 74
0
 40
0
 40
0
 40
0
 40
0
 40
1
 40
1
 40
1
 40
1
 10
155.691480
 20
78.838690
 30
0.0
 10
156.159152
 20
78.648066
 30
0.0
 10
156.636984
 20
78.456170
 30
0.0
 10
157.124984
 20
78.263002
 30
0.0
  0
SPLINE
  5
26e
100
AcDbEntity
  8
Capa_1
 62
7
100
AcDbSpline
 70
8
 71
3
 72
8
 73
4
 74
0
 40
0
 40
0
 40
0
 40
0
 40
1
 40
1
 40
1
 40
1
 10
157.124984
 20
78.263002
 30
0.0
 10
157.612984
 20
78.069834
 30
0.0
 10
158.111152
 20
77.875394
 30
0.0
 10
158.619488
 20
77.679690
 30
0.0
  0
SPLINE
  5
26f
100
AcDbEntity
  8
Capa_1
 62
7
100
AcDbSpline
 70
8
 71
3
 72
8
 73
4
 74
0
 40
0
 40
0
 40
0
 40
0
 40
1
 40
1
 40
1
 40
1
 10
158.619488
 20
77.679690
 30
0.0
 10
159.127816
 20
77.483978
 30
0.0
 10
159.646320
 20
77.287002
 30
0.0
 10
160.174984
 20
77.088754
 30
0.0
  0
SPLINE
  5
270
100
AcDbEntity
  8
Capa_1
 62
7
100
AcDbSpline
 70
8
 71
3
 72
8
 73
4
 74
0
 40
0
 40
0
 40
0
 40
0
 40
1
 40
1
 40
1
 40
1
 10
160.174984
 20
77.088754
 30
0.0
 10
160.703648
 20
76.890498
 30
0.0
 10
161.242488
 20
76.690978
 30
0.0
 10
161.791488
 20
76.490186
 30
0.0
  0
SPLINE
  5
271
100
AcDbEntity
  8
Capa_1
 62
7
100
AcDbSpline
 70
8
 71
3
 72
8
 73
4
 74
0
 40
0
 40
0
 40
0
 40
0
 40
1
 40
1
 40
1
 40
1
 10
161.791488
 20
76.490186
 30
0.0
 10
162.340488
 20
76.289394
 30
0.0
 10
162.899648
 20
76.087338
 30
0.0
 10
163.468984
 20
75.884002
 30
0.0
  0
SPLINE
  5
272
100
AcDbEntity
  8
Capa_1
 62
7
100
AcDbSpline
 70
8
 71
3
 72
8
 73
4
 74
0
 40
0
 40
0
 40
0
 40
0
 40
1
 40
1
 40
1
 40
1
 10
163.468984
 20
75.884002
 30
0.0
 10
164.221320
 20
75.599338
 30
0.0
 10
164.963488
 20
75.314666
 30
0.0
 10
165.695488
 20
75.030002
 30
0.0
  0
SPLINE
  5
273
100
AcDbEntity
  8
Capa_1
 62
7
100
AcDbSpline
 70
8
 71
3
 72
8
 73
4
 74
0
 40
0
 40
0
 40
0
 40
0
 40
1
 40
1
 40
1
 40
1
 10
165.695488
 20
75.030002
 30
0.0
 10
166.427488
 20
74.745338
 30
0.0
 10
167.149320
 20
74.460666
 30
0.0
 10
167.860984
 20
74.176002
 30
0.0
  0
SPLINE
  5
274
100
AcDbEntity
  8
Capa_1
 62
7
100
AcDbSpline
 70
8
 71
3
 72
8
 73
4
 74
0
 40
0
 40
0
 40
0
 40
0
 40
1
 40
1
 40
1
 40
1
 10
167.860984
 20
74.176002
 30
0.0
 10
168.572648
 20
73.891338
 30
0.0
 10
169.274152
 20
73.606666
 30
0.0
 10
169.965488
 20
73.322002
 30
0.0
  0
SPLINE
  5
275
100
AcDbEntity
  8
Capa_1
 62
7
100
AcDbSpline
 70
8
 71
3
 72
8
 73
4
 74
0
 40
0
 40
0
 40
0
 40
0
 40
1
 40
1
 40
1
 40
1
 10
169.965488
 20
73.322002
 30
0.0
 10
170.656816
 20
73.037338
 30
0.0
 10
171.337984
 20
72.752666
 30
0.0
 10
172.008984
 20
72.468002
 30
0.0
  0
SPLINE
  5
276
100
AcDbEntity
  8
Capa_1
 62
7
100
AcDbSpline
 70
8
 71
3
 72
8
 73
4
 74
0
 40
0
 40
0
 40
0
 40
0
 40
1
 40
1
 40
1
 40
1
 10
172.008984
 20
72.468002
 30
0.0
 10
172.679984
 20
72.183338
 30
0.0
 10
173.340816
 20
71.898666
 30
0.0
 10
173.991480
 20
71.614002
 30
0.0
  0
SPLINE
  5
277
100
AcDbEntity
  8
Capa_1
 62
7
100
AcDbSpline
 70
8
 71
3
 72
8
 73
4
 74
0
 40
0
 40
0
 40
0
 40
0
 40
1
 40
1
 40
1
 40
1
 10
173.991480
 20
71.614002
 30
0.0
 10
174.642152
 20
71.329338
 30
0.0
 10
175.282648
 20
71.044666
 30
0.0
 10
175.912984
 20
70.760002
 30
0.0
  0
SPLINE
  5
278
100
AcDbEntity
  8
Capa_1
 62
7
100
AcDbSpline
 70
8
 71
3
 72
8
 73
4
 74
0
 40
0
 40
0
 40
0
 40
0
 40
1
 40
1
 40
1
 40
1
 10
175.912984
 20
70.760002
 30
0.0
 10
176.543320
 20
70.475338
 30
0.0
 10
177.163480
 20
70.190666
 30
0.0
 10
177.773480
 20
69.906002
 30
0.0
  0
SPLINE
  5
279
100
AcDbEntity
  8
Capa_1
 62
7
100
AcDbSpline
 70
8
 71
3
 72
8
 73
4
 74
0
 40
0
 40
0
 40
0
 40
0
 40
1
 40
1
 40
1
 40
1
 10
177.773480
 20
69.906002
 30
0.0
 10
178.383480
 20
69.621338
 30
0.0
 10
178.983320
 20
69.336666
 30
0.0
 10
179.572984
 20
69.052002
 30
0.0
  0
SPLINE
  5
27a
100
AcDbEntity
  8
Capa_1
 62
7
100
AcDbSpline
 70
8
 71
3
 72
8
 73
4
 74
0
 40
0
 40
0
 40
0
 40
0
 40
1
 40
1
 40
1
 40
1
 10
179.572984
 20
69.052002
 30
0.0
 10
180.162648
 20
68.787666
 30
0.0
 10
180.740880
 20
68.516978
 30
0.0
 10
181.307672
 20
68.239938
 30
0.0
  0
SPLINE
  5
27b
100
AcDbEntity
  8
Capa_1
 62
7
100
AcDbSpline
 70
8
 71
3
 72
8
 73
4
 74
0
 40
0
 40
0
 40
0
 40
0
 40
1
 40
1
 40
1
 40
1
 10
181.307672
 20
68.239938
 30
0.0
 10
181.874464
 20
67.962898
 30
0.0
 10
182.429816
 20
67.679498
 30
0.0
 10
182.973736
 20
67.389754
 30
0.0
  0
SPLINE
  5
27c
100
AcDbEntity
  8
Capa_1
 62
7
100
AcDbSpline
 70
8
 71
3
 72
8
 73
4
 74
0
 40
0
 40
0
 40
0
 40
0
 40
1
 40
1
 40
1
 40
1
 10
182.973736
 20
67.389754
 30
0.0
 10
183.517648
 20
67.100002
 30
0.0
 10
184.050128
 20
66.803898
 30
0.0
 10
184.571168
 20
66.501442
 30
0.0
  0
SPLINE
  5
27d
100
AcDbEntity
  8
Capa_1
 62
7
100
AcDbSpline
 70
8
 71
3
 72
8
 73
4
 74
0
 40
0
 40
0
 40
0
 40
0
 40
1
 40
1
 40
1
 40
1
 10
184.571168
 20
66.501442
 30
0.0
 10
185.092216
 20
66.198978
 30
0.0
 10
185.601816
 20
65.890170
 30
0.0
 10
186.099984
 20
65.575002
 30
0.0
  0
SPLINE
  5
27e
100
AcDbEntity
  8
Capa_1
 62
7
100
AcDbSpline
 70
8
 71
3
 72
8
 73
4
 74
0
 40
0
 40
0
 40
0
 40
0
 40
1
 40
1
 40
1
 40
1
 10
186.099984
 20
65.575002
 30
0.0
 10
186.598152
 20
65.259834
 30
0.0
 10
187.084880
 20
64.938314
 30
0.0
 10
187.560168
 20
64.610442
 30
0.0
  0
SPLINE
  5
27f
100
AcDbEntity
  8
Capa_1
 62
7
100
AcDbSpline
 70
8
 71
3
 72
8
 73
4
 74
0
 40
0
 40
0
 40
0
 40
0
 40
1
 40
1
 40
1
 40
1
 10
187.560168
 20
64.610442
 30
0.0
 10
188.035464
 20
64.282562
 30
0.0
 10
188.499320
 20
63.948338
 30
0.0
 10
188.951736
 20
63.607754
 30
0.0
  0
SPLINE
  5
280
100
AcDbEntity
  8
Capa_1
 62
7
100
AcDbSpline
 70
8
 71
3
 72
8
 73
4
 74
0
 40
0
 40
0
 40
0
 40
0
 40
1
 40
1
 40
1
 40
1
 10
188.951736
 20
63.607754
 30
0.0
 10
189.404152
 20
63.267170
 30
0.0
 10
189.845128
 20
62.920234
 30
0.0
 10
190.274672
 20
62.566938
 30
0.0
  0
SPLINE
  5
281
100
AcDbEntity
  8
Capa_1
 62
7
100
AcDbSpline
 70
8
 71
3
 72
8
 73
4
 74
0
 40
0
 40
0
 40
0
 40
0
 40
1
 40
1
 40
1
 40
1
 10
190.274672
 20
62.566938
 30
0.0
 10
190.704216
 20
62.213650
 30
0.0
 10
191.122320
 20
61.854002
 30
0.0
 10
191.528984
 20
61.488002
 30
0.0
  0
SPLINE
  5
282
100
AcDbEntity
  8
Capa_1
 62
7
100
AcDbSpline
 70
8
 71
3
 72
8
 73
4
 74
0
 40
0
 40
0
 40
0
 40
0
 40
1
 40
1
 40
1
 40
1
 10
191.528984
 20
61.488002
 30
0.0
 10
191.955984
 20
61.122002
 30
0.0
 10
192.370272
 20
60.745834
 30
0.0
 10
192.771856
 20
60.359506
 30
0.0
  0
SPLINE
  5
283
100
AcDbEntity
  8
Capa_1
 62
7
100
AcDbSpline
 70
8
 71
3
 72
8
 73
4
 74
0
 40
0
 40
0
 40
0
 40
0
 40
1
 40
1
 40
1
 40
1
 10
192.771856
 20
60.359506
 30
0.0
 10
193.173440
 20
59.973170
 30
0.0
 10
193.562320
 20
59.576666
 30
0.0
 10
193.938480
 20
59.170002
 30
0.0
  0
SPLINE
  5
284
100
AcDbEntity
  8
Capa_1
 62
7
100
AcDbSpline
 70
8
 71
3
 72
8
 73
4
 74
0
 40
0
 40
0
 40
0
 40
0
 40
1
 40
1
 40
1
 40
1
 10
193.938480
 20
59.170002
 30
0.0
 10
194.314648
 20
58.763338
 30
0.0
 10
194.678112
 20
58.346498
 30
0.0
 10
195.028856
 20
57.919498
 30
0.0
  0
SPLINE
  5
285
100
AcDbEntity
  8
Capa_1
 62
7
100
AcDbSpline
 70
8
 71
3
 72
8
 73
4
 74
0
 40
0
 40
0
 40
0
 40
0
 40
1
 40
1
 40
1
 40
1
 10
195.028856
 20
57.919498
 30
0.0
 10
195.379608
 20
57.492498
 30
0.0
 10
195.717648
 20
57.055338
 30
0.0
 10
196.042984
 20
56.608002
 30
0.0
  0
SPLINE
  5
286
100
AcDbEntity
  8
Capa_1
 62
7
100
AcDbSpline
 70
8
 71
3
 72
8
 73
4
 74
0
 40
0
 40
0
 40
0
 40
0
 40
1
 40
1
 40
1
 40
1
 10
196.042984
 20
56.608002
 30
0.0
 10
196.368320
 20
56.160666
 30
0.0
 10
196.680944
 20
55.703170
 30
0.0
 10
196.980856
 20
55.235498
 30
0.0
  0
SPLINE
  5
287
100
AcDbEntity
  8
Capa_1
 62
7
100
AcDbSpline
 70
8
 71
3
 72
8
 73
4
 74
0
 40
0
 40
0
 40
0
 40
0
 40
1
 40
1
 40
1
 40
1
 10
196.980856
 20
55.235498
 30
0.0
 10
197.280776
 20
54.767834
 30
0.0
 10
197.567984
 20
54.290002
 30
0.0
 10
197.842480
 20
53.802002
 30
0.0
  0
SPLINE
  5
288
100
AcDbEntity
  8
Capa_1
 62
7
100
AcDbSpline
 70
8
 71
3
 72
8
 73
4
 74
0
 40
0
 40
0
 40
0
 40
0
 40
1
 40
1
 40
1
 40
1
 10
197.842480
 20
53.802002
 30
0.0
 10
198.116984
 20
53.314002
 30
0.0
 10
198.378776
 20
52.815834
 30
0.0
 10
198.627856
 20
52.307498
 30
0.0
  0
SPLINE
  5
289
100
AcDbEntity
  8
Capa_1
 62
7
100
AcDbSpline
 70
8
 71
3
 72
8
 73
4
 74
0
 40
0
 40
0
 40
0
 40
0
 40
1
 40
1
 40
1
 40
1
 10
198.627856
 20
52.307498
 30
0.0
 10
198.876944
 20
51.799170
 30
0.0
 10
199.113320
 20
51.280666
 30
0.0
 10
199.336984
 20
50.752002
 30
0.0
  0
SPLINE
  5
28a
100
AcDbEntity
  8
Capa_1
 62
7
100
AcDbSpline
 70
8
 71
3
 72
8
 73
4
 74
0
 40
0
 40
0
 40
0
 40
0
 40
1
 40
1
 40
1
 40
1
 10
199.336984
 20
50.752002
 30
0.0
 10
199.560648
 20
50.243666
 30
0.0
 10
199.770336
 20
49.720082
 30
0.0
 10
199.966048
 20
49.181250
 30
0.0
  0
SPLINE
  5
28b
100
AcDbEntity
  8
Capa_1
 62
7
100
AcDbSpline
 70
8
 71
3
 72
8
 73
4
 74
0
 40
0
 40
0
 40
0
 40
0
 40
1
 40
1
 40
1
 40
1
 10
199.966048
 20
49.181250
 30
0.0
 10
200.161752
 20
48.642418
 30
0.0
 10
200.343488
 20
48.088338
 30
0.0
 10
200.511232
 20
47.519002
 30
0.0
  0
SPLINE
  5
28c
100
AcDbEntity
  8
Capa_1
 62
7
100
AcDbSpline
 70
8
 71
3
 72
8
 73
4
 74
0
 40
0
 40
0
 40
0
 40
0
 40
1
 40
1
 40
1
 40
1
 10
200.511232
 20
47.519002
 30
0.0
 10
200.678984
 20
46.949666
 30
0.0
 10
200.832752
 20
46.365082
 30
0.0
 10
200.972544
 20
45.765250
 30
0.0
  0
SPLINE
  5
28d
100
AcDbEntity
  8
Capa_1
 62
7
100
AcDbSpline
 70
8
 71
3
 72
8
 73
4
 74
0
 40
0
 40
0
 40
0
 40
0
 40
1
 40
1
 40
1
 40
1
 10
200.972544
 20
45.765250
 30
0.0
 10
201.112336
 20
45.165418
 30
0.0
 10
201.238152
 20
44.550338
 30
0.0
 10
201.349984
 20
43.920002
 30
0.0
  0
SPLINE
  5
28e
100
AcDbEntity
  8
Capa_1
 62
7
100
AcDbSpline
 70
8
 71
3
 72
8
 73
4
 74
0
 40
0
 40
0
 40
0
 40
0
 40
1
 40
1
 40
1
 40
1
 10
201.349984
 20
43.920002
 30
0.0
 10
201.461816
 20
43.289666
 30
0.0
 10
201.559672
 20
42.644082
 30
0.0
 10
201.643544
 20
41.983250
 30
0.0
  0
SPLINE
  5
28f
100
AcDbEntity
  8
Capa_1
 62
7
100
AcDbSpline
 70
8
 71
3
 72
8
 73
4
 74
0
 40
0
 40
0
 40
0
 40
0
 40
1
 40
1
 40
1
 40
1
 10
201.643544
 20
41.983250
 30
0.0
 10
201.727424
 20
41.322418
 30
0.0
 10
201.797320
 20
40.646338
 30
0.0
 10
201.853232
 20
39.955002
 30
0.0
  0
SPLINE
  5
290
100
AcDbEntity
  8
Capa_1
 62
7
100
AcDbSpline
 70
8
 71
3
 72
8
 73
4
 74
0
 40
0
 40
0
 40
0
 40
0
 40
1
 40
1
 40
1
 40
1
 10
201.853232
 20
39.955002
 30
0.0
 10
201.909152
 20
39.263666
 30
0.0
 10
201.951088
 20
38.557082
 30
0.0
 10
201.979048
 20
37.835250
 30
0.0
  0
SPLINE
  5
291
100
AcDbEntity
  8
Capa_1
 62
7
100
AcDbSpline
 70
8
 71
3
 72
8
 73
4
 74
0
 40
0
 40
0
 40
0
 40
0
 40
1
 40
1
 40
1
 40
1
 10
201.979048
 20
37.835250
 30
0.0
 10
202.006968
 20
37.113418
 30
0.0
 10
202.020968
 20
36.376338
 30
0.0
 10
202.020968
 20
35.624002
 30
0.0
  0
SPLINE
  5
292
100
AcDbEntity
  8
Capa_1
 62
7
100
AcDbSpline
 70
8
 71
3
 72
8
 73
4
 74
0
 40
0
 40
0
 40
0
 40
0
 40
1
 40
1
 40
1
 40
1
 10
202.020968
 20
35.624002
 30
0.0
 10
202.020968
 20
34.160002
 30
0.0
 10
201.952328
 20
32.740482
 30
0.0
 10
201.815096
 20
31.365442
 30
0.0
  0
SPLINE
  5
293
100
AcDbEntity
  8
Capa_1
 62
7
100
AcDbSpline
 70
8
 71
3
 72
8
 73
4
 74
0
 40
0
 40
0
 40
0
 40
0
 40
1
 40
1
 40
1
 40
1
 10
201.815096
 20
31.365442
 30
0.0
 10
201.677840
 20
29.990394
 30
0.0
 10
201.471968
 20
28.659834
 30
0.0
 10
201.197464
 20
27.373754
 30
0.0
  0
SPLINE
  5
294
100
AcDbEntity
  8
Capa_1
 62
7
100
AcDbSpline
 70
8
 71
3
 72
8
 73
4
 74
0
 40
0
 40
0
 40
0
 40
0
 40
1
 40
1
 40
1
 40
1
 10
201.197464
 20
27.373754
 30
0.0
 10
200.922968
 20
26.087666
 30
0.0
 10
200.579840
 20
24.846066
 30
0.0
 10
200.168096
 20
23.648938
 30
0.0
  0
SPLINE
  5
295
100
AcDbEntity
  8
Capa_1
 62
7
100
AcDbSpline
 70
8
 71
3
 72
8
 73
4
 74
0
 40
0
 40
0
 40
0
 40
0
 40
1
 40
1
 40
1
 40
1
 10
200.168096
 20
23.648938
 30
0.0
 10
199.756344
 20
22.451818
 30
0.0
 10
199.275968
 20
21.299170
 30
0.0
 10
198.726968
 20
20.191002
 30
0.0
  0
SPLINE
  5
296
100
AcDbEntity
  8
Capa_1
 62
7
100
AcDbSpline
 70
8
 71
3
 72
8
 73
4
 74
0
 40
0
 40
0
 40
0
 40
0
 40
1
 40
1
 40
1
 40
1
 10
198.726968
 20
20.191002
 30
0.0
 10
198.177968
 20
19.082834
 30
0.0
 10
197.560344
 20
18.019146
 30
0.0
 10
196.874096
 20
16.999938
 30
0.0
  0
SPLINE
  5
297
100
AcDbEntity
  8
Capa_1
 62
7
100
AcDbSpline
 70
8
 71
3
 72
8
 73
4
 74
0
 40
0
 40
0
 40
0
 40
0
 40
1
 40
1
 40
1
 40
1
 10
196.874096
 20
16.999938
 30
0.0
 10
196.187840
 20
15.980730
 30
0.0
 10
195.432968
 20
15.006002
 30
0.0
 10
194.609464
 20
14.075754
 30
0.0
  0
SPLINE
  5
298
100
AcDbEntity
  8
Capa_1
 62
7
100
AcDbSpline
 70
8
 71
3
 72
8
 73
4
 74
0
 40
0
 40
0
 40
0
 40
0
 40
1
 40
1
 40
1
 40
1
 10
194.609464
 20
14.075754
 30
0.0
 10
193.785968
 20
13.145506
 30
0.0
 10
192.893840
 20
12.259730
 30
0.0
 10
191.933096
 20
11.418442
 30
0.0
  0
SPLINE
  5
299
100
AcDbEntity
  8
Capa_1
 62
7
100
AcDbSpline
 70
8
 71
3
 72
8
 73
4
 74
0
 40
0
 40
0
 40
0
 40
0
 40
1
 40
1
 40
1
 40
1
 10
191.933096
 20
11.418442
 30
0.0
 10
190.972344
 20
10.577146
 30
0.0
 10
189.942968
 20
9.780338
 30
0.0
 10
188.844968
 20
9.028002
 30
0.0
  0
SPLINE
  5
29a
100
AcDbEntity
  8
Capa_1
 62
7
100
AcDbSpline
 70
8
 71
3
 72
8
 73
4
 74
0
 40
0
 40
0
 40
0
 40
0
 40
1
 40
1
 40
1
 40
1
 10
188.844968
 20
9.028002
 30
0.0
 10
187.767304
 20
8.275666
 30
0.0
 10
186.631176
 20
7.570354
 30
0.0
 10
185.436592
 20
6.912066
 30
0.0
  0
SPLINE
  5
29b
100
AcDbEntity
  8
Capa_1
 62
7
100
AcDbSpline
 70
8
 71
3
 72
8
 73
4
 74
0
 40
0
 40
0
 40
0
 40
0
 40
1
 40
1
 40
1
 40
1
 10
185.436592
 20
6.912066
 30
0.0
 10
184.242008
 20
6.253770
 30
0.0
 10
182.988968
 20
5.642498
 30
0.0
 10
181.677472
 20
5.078250
 30
0.0
  0
SPLINE
  5
29c
100
AcDbEntity
  8
Capa_1
 62
7
100
AcDbSpline
 70
8
 71
3
 72
8
 73
4
 74
0
 40
0
 40
0
 40
0
 40
0
 40
1
 40
1
 40
1
 40
1
 10
181.677472
 20
5.078250
 30
0.0
 10
180.365968
 20
4.514002
 30
0.0
 10
178.996008
 20
3.996770
 30
0.0
 10
177.567592
 20
3.526562
 30
0.0
  0
SPLINE
  5
29d
100
AcDbEntity
  8
Capa_1
 62
7
100
AcDbSpline
 70
8
 71
3
 72
8
 73
4
 74
0
 40
0
 40
0
 40
0
 40
0
 40
1
 40
1
 40
1
 40
1
 10
177.567592
 20
3.526562
 30
0.0
 10
176.139176
 20
3.056354
 30
0.0
 10
174.652304
 20
2.633170
 30
0.0
 10
173.106968
 20
2.257002
 30
0.0
  0
SPLINE
  5
29e
100
AcDbEntity
  8
Capa_1
 62
7
100
AcDbSpline
 70
8
 71
3
 72
8
 73
4
 74
0
 40
0
 40
0
 40
0
 40
0
 40
1
 40
1
 40
1
 40
1
 10
173.106968
 20
2.257002
 30
0.0
 10
171.561632
 20
1.880834
 30
0.0
 10
169.957840
 20
1.551690
 30
0.0
 10
168.295592
 20
1.269562
 30
0.0
  0
SPLINE
  5
29f
100
AcDbEntity
  8
Capa_1
 62
7
100
AcDbSpline
 70
8
 71
3
 72
8
 73
4
 74
0
 40
0
 40
0
 40
0
 40
0
 40
1
 40
1
 40
1
 40
1
 10
168.295592
 20
1.269562
 30
0.0
 10
166.633344
 20
0.987442
 30
0.0
 10
164.912632
 20
0.752338
 30
0.0
 10
163.133464
 20
0.564250
 30
0.0
  0
SPLINE
  5
2a0
100
AcDbEntity
  8
Capa_1
 62
7
100
AcDbSpline
 70
8
 71
3
 72
8
 73
4
 74
0
 40
0
 40
0
 40
0
 40
0
 40
1
 40
1
 40
1
 40
1
 10
163.133464
 20
0.564250
 30
0.0
 10
161.354304
 20
0.376170
 30
0.0
 10
159.516680
 20
0.235106
 30
0.0
 10
157.620592
 20
0.141066
 30
0.0
  0
SPLINE
  5
2a1
100
AcDbEntity
  8
Capa_1
 62
7
100
AcDbSpline
 70
8
 71
3
 72
8
 73
4
 74
0
 40
0
 40
0
 40
0
 40
0
 40
1
 40
1
 40
1
 40
1
 10
157.620592
 20
0.141066
 30
0.0
 10
155.724512
 20
0.047026
 30
0.0
 10
153.769968
 20
0.000002
 30
0.0
 10
151.756968
 20
0.000002
 30
0.0
  0
SPLINE
  5
2a2
100
AcDbEntity
  8
Capa_1
 62
7
100
AcDbSpline
 70
8
 71
3
 72
8
 73
4
 74
0
 40
0
 40
0
 40
0
 40
0
 40
1
 40
1
 40
1
 40
1
 10
151.756968
 20
0.000002
 30
0.0
 10
150.353992
 20
0.000002
 30
0.0
 10
148.989136
 20
0.015282
 30
0.0
 10
147.662400
 20
0.045762
 30
0.0
  0
SPLINE
  5
2a3
100
AcDbEntity
  8
Capa_1
 62
7
100
AcDbSpline
 70
8
 71
3
 72
8
 73
4
 74
0
 40
0
 40
0
 40
0
 40
0
 40
1
 40
1
 40
1
 40
1
 10
147.662400
 20
0.045762
 30
0.0
 10
146.335672
 20
0.076242
 30
0.0
 10
145.047064
 20
0.122002
 30
0.0
 10
143.796584
 20
0.183010
 30
0.0
  0
SPLINE
  5
2a4
100
AcDbEntity
  8
Capa_1
 62
7
100
AcDbSpline
 70
8
 71
3
 72
8
 73
4
 74
0
 40
0
 40
0
 40
0
 40
0
 40
1
 40
1
 40
1
 40
1
 10
143.796584
 20
0.183010
 30
0.0
 10
142.546096
 20
0.244050
 30
0.0
 10
141.333744
 20
0.320258
 30
0.0
 10
140.159504
 20
0.411762
 30
0.0
  0
SPLINE
  5
2a5
100
AcDbEntity
  8
Capa_1
 62
7
100
AcDbSpline
 70
8
 71
3
 72
8
 73
4
 74
0
 40
0
 40
0
 40
0
 40
0
 40
1
 40
1
 40
1
 40
1
 10
140.159504
 20
0.411762
 30
0.0
 10
138.985272
 20
0.503258
 30
0.0
 10
137.849168
 20
0.610010
 30
0.0
 10
136.751176
 20
0.732010
 30
0.0
  0
SPLINE
  5
2a6
100
AcDbEntity
  8
Capa_1
 62
7
100
AcDbSpline
 70
8
 71
3
 72
8
 73
4
 74
0
 40
0
 40
0
 40
0
 40
0
 40
1
 40
1
 40
1
 40
1
 10
136.751176
 20
0.732010
 30
0.0
 10
135.653192
 20
0.854010
 30
0.0
 10
134.593336
 20
0.991258
 30
0.0
 10
133.571600
 20
1.143762
 30
0.0
  0
SPLINE
  5
2a7
100
AcDbEntity
  8
Capa_1
 62
7
100
AcDbSpline
 70
8
 71
3
 72
8
 73
4
 74
0
 40
0
 40
0
 40
0
 40
0
 40
1
 40
1
 40
1
 40
1
 10
133.571600
 20
1.143762
 30
0.0
 10
132.549864
 20
1.296258
 30
0.0
 10
131.566248
 20
1.464010
 30
0.0
 10
130.620768
 20
1.647010
 30
0.0
  0
SPLINE
  5
2a8
100
AcDbEntity
  8
Capa_1
 62
7
100
AcDbSpline
 70
8
 71
3
 72
8
 73
4
 74
0
 40
0
 40
0
 40
0
 40
0
 40
1
 40
1
 40
1
 40
1
 10
130.620768
 20
1.647010
 30
0.0
 10
129.675280
 20
1.830010
 30
0.0
 10
128.767912
 20
2.028258
 30
0.0
 10
127.898680
 20
2.241762
 30
0.0
  0
SPLINE
  5
2a9
100
AcDbEntity
  8
Capa_1
 62
7
100
AcDbSpline
 70
8
 71
3
 72
8
 73
4
 74
0
 40
0
 40
0
 40
0
 40
0
 40
1
 40
1
 40
1
 40
1
 10
127.898680
 20
2.241762
 30
0.0
 10
127.029440
 20
2.455258
 30
0.0
 10
126.198328
 20
2.684010
 30
0.0
 10
125.405336
 20
2.928010
 30
0.0
  0
SPLINE
  5
2aa
100
AcDbEntity
  8
Capa_1
 62
7
100
AcDbSpline
 70
8
 71
3
 72
8
 73
4
 74
0
 40
0
 40
0
 40
0
 40
0
 40
1
 40
1
 40
1
 40
1
 10
125.405336
 20
2.928010
 30
0.0
 10
124.612352
 20
3.151674
 30
0.0
 10
123.851144
 20
3.368986
 30
0.0
 10
123.121696
 20
3.579946
 30
0.0
  0
SPLINE
  5
2ab
100
AcDbEntity
  8
Capa_1
 62
7
100
AcDbSpline
 70
8
 71
3
 72
8
 73
4
 74
0
 40
0
 40
0
 40
0
 40
0
 40
1
 40
1
 40
1
 40
1
 10
123.121696
 20
3.579946
 30
0.0
 10
122.392256
 20
3.790906
 30
0.0
 10
121.694584
 20
3.995506
 30
0.0
 10
121.028680
 20
4.193762
 30
0.0
  0
SPLINE
  5
2ac
100
AcDbEntity
  8
Capa_1
 62
7
100
AcDbSpline
 70
8
 71
3
 72
8
 73
4
 74
0
 40
0
 40
0
 40
0
 40
0
 40
1
 40
1
 40
1
 40
1
 10
121.028680
 20
4.193762
 30
0.0
 10
120.362776
 20
4.392010
 30
0.0
 10
119.728640
 20
4.583906
 30
0.0
 10
119.126280
 20
4.769450
 30
0.0
  0
SPLINE
  5
2ad
100
AcDbEntity
  8
Capa_1
 62
7
100
AcDbSpline
 70
8
 71
3
 72
8
 73
4
 74
0
 40
0
 40
0
 40
0
 40
0
 40
1
 40
1
 40
1
 40
1
 10
119.126280
 20
4.769450
 30
0.0
 10
118.523912
 20
4.954986
 30
0.0
 10
117.953320
 20
5.134178
 30
0.0
 10
117.414496
 20
5.307010
 30
0.0
  0
SPLINE
  5
2ae
100
AcDbEntity
  8
Capa_1
 62
7
100
AcDbSpline
 70
8
 71
3
 72
8
 73
4
 74
0
 40
0
 40
0
 40
0
 40
0
 40
1
 40
1
 40
1
 40
1
 10
117.414496
 20
5.307010
 30
0.0
 10
116.875672
 20
5.479842
 30
0.0
 10
116.368616
 20
5.646322
 30
0.0
 10
115.893328
 20
5.806450
 30
0.0
  0
SPLINE
  5
2af
100
AcDbEntity
  8
Capa_1
 62
7
100
AcDbSpline
 70
8
 71
3
 72
8
 73
4
 74
0
 40
0
 40
0
 40
0
 40
0
 40
1
 40
1
 40
1
 40
1
 10
115.893328
 20
5.806450
 30
0.0
 10
115.418048
 20
5.966570
 30
0.0
 10
114.974528
 20
6.120346
 30
0.0
 10
114.562784
 20
6.267762
 30
0.0
  0
SPLINE
  5
2b0
100
AcDbEntity
  8
Capa_1
 62
7
100
AcDbSpline
 70
8
 71
3
 72
8
 73
4
 74
0
 40
0
 40
0
 40
0
 40
0
 40
1
 40
1
 40
1
 40
1
 10
114.562784
 20
6.267762
 30
0.0
 10
114.151040
 20
6.415178
 30
0.0
 10
113.771064
 20
6.556242
 30
0.0
 10
113.422856
 20
6.690946
 30
0.0
  0
SPLINE
  5
2b1
100
AcDbEntity
  8
Capa_1
 62
7
100
AcDbSpline
 70
8
 71
3
 72
8
 73
4
 74
0
 40
0
 40
0
 40
0
 40
0
 40
1
 40
1
 40
1
 40
1
 10
113.422856
 20
6.690946
 30
0.0
 10
113.074656
 20
6.825658
 30
0.0
 10
112.758216
 20
6.954010
 30
0.0
 10
112.473552
 20
7.076010
 30
0.0
  0
LWPOLYLINE
  5
2b2
100
AcDbEntity
  8
Capa_1
 62
7
100
AcDbPolyline
 90
9
 70
1
 10
195.188960
 20
127.368034
 30
0.0
 10
194.670456
 20
124.928034
 30
0.0
 10
194.151960
 20
122.488034
 30
0.0
 10
193.633456
 20
120.048034
 30
0.0
 10
193.114960
 20
117.608034
 30
0.0
 10
192.596456
 20
115.168034
 30
0.0
 10
192.077960
 20
112.728034
 30
0.0
 10
191.559456
 20
110.288034
 30
0.0
 10
191.040960
 20
107.848034
 30
0.0
  0
SPLINE
  5
2b3
100
AcDbEntity
  8
Capa_1
 62
7
100
AcDbSpline
 70
8
 71
3
 72
8
 73
4
 74
0
 40
0
 40
0
 40
0
 40
0
 40
1
 40
1
 40
1
 40
1
 10
116.621584
 20
26.596010
 30
0.0
 10
116.946896
 20
26.474010
 30
0.0
 10
117.296360
 20
26.344386
 30
0.0
 10
117.669968
 20
26.207138
 30
0.0
  0
SPLINE
  5
2b4
100
AcDbEntity
  8
Capa_1
 62
7
100
AcDbSpline
 70
8
 71
3
 72
8
 73
4
 74
0
 40
0
 40
0
 40
0
 40
0
 40
1
 40
1
 40
1
 40
1
 10
117.669968
 20
26.207138
 30
0.0
 10
118.043584
 20
26.069882
 30
0.0
 10
118.441336
 20
25.925010
 30
0.0
 10
118.863248
 20
25.772514
 30
0.0
  0
SPLINE
  5
2b5
100
AcDbEntity
  8
Capa_1
 62
7
100
AcDbSpline
 70
8
 71
3
 72
8
 73
4
 74
0
 40
0
 40
0
 40
0
 40
0
 40
1
 40
1
 40
1
 40
1
 10
118.863248
 20
25.772514
 30
0.0
 10
119.285152
 20
25.620010
 30
0.0
 10
119.731208
 20
25.459882
 30
0.0
 10
120.201408
 20
25.292138
 30
0.0
  0
SPLINE
  5
2b6
100
AcDbEntity
  8
Capa_1
 62
7
100
AcDbSpline
 70
8
 71
3
 72
8
 73
4
 74
0
 40
0
 40
0
 40
0
 40
0
 40
1
 40
1
 40
1
 40
1
 10
120.201408
 20
25.292138
 30
0.0
 10
120.671608
 20
25.124386
 30
0.0
 10
121.165960
 20
24.949010
 30
0.0
 10
121.684456
 20
24.766010
 30
0.0
  0
SPLINE
  5
2b7
100
AcDbEntity
  8
Capa_1
 62
7
100
AcDbSpline
 70
8
 71
3
 72
8
 73
4
 74
0
 40
0
 40
0
 40
0
 40
0
 40
1
 40
1
 40
1
 40
1
 10
121.684456
 20
24.766010
 30
0.0
 10
122.202952
 20
24.583010
 30
0.0
 10
122.745592
 20
24.392386
 30
0.0
 10
123.312392
 20
24.194138
 30
0.0
  0
SPLINE
  5
2b8
100
AcDbEntity
  8
Capa_1
 62
7
100
AcDbSpline
 70
8
 71
3
 72
8
 73
4
 74
0
 40
0
 40
0
 40
0
 40
0
 40
1
 40
1
 40
1
 40
1
 10
123.312392
 20
24.194138
 30
0.0
 10
123.879184
 20
23.995882
 30
0.0
 10
124.470120
 20
23.790010
 30
0.0
 10
125.085208
 20
23.576506
 30
0.0
  0
SPLINE
  5
2b9
100
AcDbEntity
  8
Capa_1
 62
7
100
AcDbSpline
 70
8
 71
3
 72
8
 73
4
 74
0
 40
0
 40
0
 40
0
 40
0
 40
1
 40
1
 40
1
 40
1
 10
125.085208
 20
23.576506
 30
0.0
 10
125.700296
 20
23.363010
 30
0.0
 10
126.339536
 20
23.141882
 30
0.0
 10
127.002920
 20
22.913138
 30
0.0
  0
SPLINE
  5
2ba
100
AcDbEntity
  8
Capa_1
 62
7
100
AcDbSpline
 70
8
 71
3
 72
8
 73
4
 74
0
 40
0
 40
0
 40
0
 40
0
 40
1
 40
1
 40
1
 40
1
 10
127.002920
 20
22.913138
 30
0.0
 10
127.666304
 20
22.684386
 30
0.0
 10
128.353832
 20
22.448010
 30
0.0
 10
129.065512
 20
22.204010
 30
0.0
  0
SPLINE
  5
2bb
100
AcDbEntity
  8
Capa_1
 62
7
100
AcDbSpline
 70
8
 71
3
 72
8
 73
4
 74
0
 40
0
 40
0
 40
0
 40
0
 40
1
 40
1
 40
1
 40
1
 10
129.065512
 20
22.204010
 30
0.0
 10
129.777136
 20
21.960010
 30
0.0
 10
130.517992
 20
21.731258
 30
0.0
 10
131.288080
 20
21.517762
 30
0.0
  0
SPLINE
  5
2bc
100
AcDbEntity
  8
Capa_1
 62
7
100
AcDbSpline
 70
8
 71
3
 72
8
 73
4
 74
0
 40
0
 40
0
 40
0
 40
0
 40
1
 40
1
 40
1
 40
1
 10
131.288080
 20
21.517762
 30
0.0
 10
132.058168
 20
21.304258
 30
0.0
 10
132.857488
 20
21.106010
 30
0.0
 10
133.686040
 20
20.923010
 30
0.0
  0
SPLINE
  5
2bd
100
AcDbEntity
  8
Capa_1
 62
7
100
AcDbSpline
 70
8
 71
3
 72
8
 73
4
 74
0
 40
0
 40
0
 40
0
 40
0
 40
1
 40
1
 40
1
 40
1
 10
133.686040
 20
20.923010
 30
0.0
 10
134.514592
 20
20.740010
 30
0.0
 10
135.372376
 20
20.572258
 30
0.0
 10
136.259384
 20
20.419762
 30
0.0
  0
SPLINE
  5
2be
100
AcDbEntity
  8
Capa_1
 62
7
100
AcDbSpline
 70
8
 71
3
 72
8
 73
4
 74
0
 40
0
 40
0
 40
0
 40
0
 40
1
 40
1
 40
1
 40
1
 10
136.259384
 20
20.419762
 30
0.0
 10
137.146400
 20
20.267258
 30
0.0
 10
138.062648
 20
20.130010
 30
0.0
 10
139.008120
 20
20.008010
 30
0.0
  0
SPLINE
  5
2bf
100
AcDbEntity
  8
Capa_1
 62
7
100
AcDbSpline
 70
8
 71
3
 72
8
 73
4
 74
0
 40
0
 40
0
 40
0
 40
0
 40
1
 40
1
 40
1
 40
1
 10
139.008120
 20
20.008010
 30
0.0
 10
139.953600
 20
19.886010
 30
0.0
 10
140.928312
 20
19.779258
 30
0.0
 10
141.932248
 20
19.687762
 30
0.0
  0
SPLINE
  5
2c0
100
AcDbEntity
  8
Capa_1
 62
7
100
AcDbSpline
 70
8
 71
3
 72
8
 73
4
 74
0
 40
0
 40
0
 40
0
 40
0
 40
1
 40
1
 40
1
 40
1
 10
141.932248
 20
19.687762
 30
0.0
 10
142.936192
 20
19.596258
 30
0.0
 10
143.969360
 20
19.520010
 30
0.0
 10
145.031768
 20
19.459010
 30
0.0
  0
SPLINE
  5
2c1
100
AcDbEntity
  8
Capa_1
 62
7
100
AcDbSpline
 70
8
 71
3
 72
8
 73
4
 74
0
 40
0
 40
0
 40
0
 40
0
 40
1
 40
1
 40
1
 40
1
 10
145.031768
 20
19.459010
 30
0.0
 10
146.094168
 20
19.398050
 30
0.0
 10
147.185808
 20
19.352258
 30
0.0
 10
148.306672
 20
19.321762
 30
0.0
  0
SPLINE
  5
2c2
100
AcDbEntity
  8
Capa_1
 62
7
100
AcDbSpline
 70
8
 71
3
 72
8
 73
4
 74
0
 40
0
 40
0
 40
0
 40
0
 40
1
 40
1
 40
1
 40
1
 10
148.306672
 20
19.321762
 30
0.0
 10
149.427536
 20
19.291282
 30
0.0
 10
150.577640
 20
19.276002
 30
0.0
 10
151.756968
 20
19.276002
 30
0.0
  0
LWPOLYLINE
  5
2c3
100
AcDbEntity
  8
Capa_1
 62
7
100
AcDbPolyline
 90
9
 70
1
 10
112.473552
 20
7.076010
 30
0.0
 10
112.992056
 20
9.516010
 30
0.0
 10
113.510560
 20
11.956010
 30
0.0
 10
114.029064
 20
14.396010
 30
0.0
 10
114.547568
 20
16.836010
 30
0.0
 10
115.066072
 20
19.276010
 30
0.0
 10
115.584576
 20
21.716010
 30
0.0
 10
116.103080
 20
24.156010
 30
0.0
 10
116.621584
 20
26.596010
 30
0.0
  0
SPLINE
  5
2c4
100
AcDbEntity
  8
Capa_1
 62
7
100
AcDbSpline
 70
8
 71
3
 72
8
 73
4
 74
0
 40
0
 40
0
 40
0
 40
0
 40
1
 40
1
 40
1
 40
1
 10
239.502368
 20
1.409714
 30
0.0
 10
237.753704
 20
1.450354
 30
0.0
 10
236.068576
 20
1.532986
 30
0.0
 10
234.446992
 20
1.657530
 30
0.0
  0
SPLINE
  5
2c5
100
AcDbEntity
  8
Capa_1
 62
7
100
AcDbSpline
 70
8
 71
3
 72
8
 73
4
 74
0
 40
0
 40
0
 40
0
 40
0
 40
1
 40
1
 40
1
 40
1
 10
234.446992
 20
1.657530
 30
0.0
 10
232.825408
 20
1.782066
 30
0.0
 10
231.267368
 20
1.948546
 30
0.0
 10
229.772864
 20
2.156962
 30
0.0
  0
SPLINE
  5
2c6
100
AcDbEntity
  8
Capa_1
 62
7
100
AcDbSpline
 70
8
 71
3
 72
8
 73
4
 74
0
 40
0
 40
0
 40
0
 40
0
 40
1
 40
1
 40
1
 40
1
 10
229.772864
 20
2.156962
 30
0.0
 10
228.278368
 20
2.365378
 30
0.0
 10
226.847408
 20
2.615738
 30
0.0
 10
225.479992
 20
2.908026
 30
0.0
  0
SPLINE
  5
2c7
100
AcDbEntity
  8
Capa_1
 62
7
100
AcDbSpline
 70
8
 71
3
 72
8
 73
4
 74
0
 40
0
 40
0
 40
0
 40
0
 40
1
 40
1
 40
1
 40
1
 10
225.479992
 20
2.908026
 30
0.0
 10
224.112576
 20
3.200322
 30
0.0
 10
222.808704
 20
3.534546
 30
0.0
 10
221.568368
 20
3.910714
 30
0.0
  0
SPLINE
  5
2c8
100
AcDbEntity
  8
Capa_1
 62
7
100
AcDbSpline
 70
8
 71
3
 72
8
 73
4
 74
0
 40
0
 40
0
 40
0
 40
0
 40
1
 40
1
 40
1
 40
1
 10
221.568368
 20
3.910714
 30
0.0
 10
220.328032
 20
4.286882
 30
0.0
 10
219.151240
 20
4.704986
 30
0.0
 10
218.037992
 20
5.165026
 30
0.0
  0
SPLINE
  5
2c9
100
AcDbEntity
  8
Capa_1
 62
7
100
AcDbSpline
 70
8
 71
3
 72
8
 73
4
 74
0
 40
0
 40
0
 40
0
 40
0
 40
1
 40
1
 40
1
 40
1
 10
218.037992
 20
5.165026
 30
0.0
 10
216.924744
 20
5.625066
 30
0.0
 10
215.875032
 20
6.127050
 30
0.0
 10
214.888864
 20
6.670962
 30
0.0
  0
SPLINE
  5
2ca
100
AcDbEntity
  8
Capa_1
 62
7
100
AcDbSpline
 70
8
 71
3
 72
8
 73
4
 74
0
 40
0
 40
0
 40
0
 40
0
 40
1
 40
1
 40
1
 40
1
 10
214.888864
 20
6.670962
 30
0.0
 10
213.902704
 20
7.214882
 30
0.0
 10
212.980080
 20
7.800738
 30
0.0
 10
212.120992
 20
8.428530
 30
0.0
  0
SPLINE
  5
2cb
100
AcDbEntity
  8
Capa_1
 62
7
100
AcDbSpline
 70
8
 71
3
 72
8
 73
4
 74
0
 40
0
 40
0
 40
0
 40
0
 40
1
 40
1
 40
1
 40
1
 10
212.120992
 20
8.428530
 30
0.0
 10
211.261912
 20
9.056322
 30
0.0
 10
210.466368
 20
9.726050
 30
0.0
 10
209.734368
 20
10.437714
 30
0.0
  0
SPLINE
  5
2cc
100
AcDbEntity
  8
Capa_1
 62
7
100
AcDbSpline
 70
8
 71
3
 72
8
 73
4
 74
0
 40
0
 40
0
 40
0
 40
0
 40
1
 40
1
 40
1
 40
1
 10
209.734368
 20
10.437714
 30
0.0
 10
209.002368
 20
11.149378
 30
0.0
 10
208.316120
 20
11.910610
 30
0.0
 10
207.675616
 20
12.721402
 30
0.0
  0
SPLINE
  5
2cd
100
AcDbEntity
  8
Capa_1
 62
7
100
AcDbSpline
 70
8
 71
3
 72
8
 73
4
 74
0
 40
0
 40
0
 40
0
 40
0
 40
1
 40
1
 40
1
 40
1
 10
207.675616
 20
12.721402
 30
0.0
 10
207.035120
 20
13.532194
 30
0.0
 10
206.440368
 20
14.392546
 30
0.0
 10
205.891368
 20
15.302466
 30
0.0
  0
SPLINE
  5
2ce
100
AcDbEntity
  8
Capa_1
 62
7
100
AcDbSpline
 70
8
 71
3
 72
8
 73
4
 74
0
 40
0
 40
0
 40
0
 40
0
 40
1
 40
1
 40
1
 40
1
 10
205.891368
 20
15.302466
 30
0.0
 10
205.342368
 20
16.212378
 30
0.0
 10
204.839120
 20
17.171858
 30
0.0
 10
204.381616
 20
18.180898
 30
0.0
  0
SPLINE
  5
2cf
100
AcDbEntity
  8
Capa_1
 62
7
100
AcDbSpline
 70
8
 71
3
 72
8
 73
4
 74
0
 40
0
 40
0
 40
0
 40
0
 40
1
 40
1
 40
1
 40
1
 10
204.381616
 20
18.180898
 30
0.0
 10
203.924120
 20
19.189946
 30
0.0
 10
203.512368
 20
20.248546
 30
0.0
 10
203.146368
 20
21.356714
 30
0.0
  0
SPLINE
  5
2d0
100
AcDbEntity
  8
Capa_1
 62
7
100
AcDbSpline
 70
8
 71
3
 72
8
 73
4
 74
0
 40
0
 40
0
 40
0
 40
0
 40
1
 40
1
 40
1
 40
1
 10
203.146368
 20
21.356714
 30
0.0
 10
202.780368
 20
22.464882
 30
0.0
 10
202.460120
 20
23.622610
 30
0.0
 10
202.185616
 20
24.829898
 30
0.0
  0
SPLINE
  5
2d1
100
AcDbEntity
  8
Capa_1
 62
7
100
AcDbSpline
 70
8
 71
3
 72
8
 73
4
 74
0
 40
0
 40
0
 40
0
 40
0
 40
1
 40
1
 40
1
 40
1
 10
202.185616
 20
24.829898
 30
0.0
 10
201.911120
 20
26.037194
 30
0.0
 10
201.682368
 20
27.294050
 30
0.0
 10
201.499368
 20
28.600466
 30
0.0
  0
SPLINE
  5
2d2
100
AcDbEntity
  8
Capa_1
 62
7
100
AcDbSpline
 70
8
 71
3
 72
8
 73
4
 74
0
 40
0
 40
0
 40
0
 40
0
 40
1
 40
1
 40
1
 40
1
 10
201.499368
 20
28.600466
 30
0.0
 10
201.316368
 20
29.906882
 30
0.0
 10
201.179120
 20
31.262858
 30
0.0
 10
201.087616
 20
32.668402
 30
0.0
  0
SPLINE
  5
2d3
100
AcDbEntity
  8
Capa_1
 62
7
100
AcDbSpline
 70
8
 71
3
 72
8
 73
4
 74
0
 40
0
 40
0
 40
0
 40
0
 40
1
 40
1
 40
1
 40
1
 10
201.087616
 20
32.668402
 30
0.0
 10
200.996120
 20
34.073946
 30
0.0
 10
200.950368
 20
35.529050
 30
0.0
 10
200.950368
 20
37.033714
 30
0.0
  0
LWPOLYLINE
  5
2d4
100
AcDbEntity
  8
Capa_1
 62
7
100
AcDbPolyline
 90
2
 70
1
 10
151.756968
 20
19.276002
 30
0.0
 10
151.756968
 20
19.276042
 30
0.0
  0
SPLINE
  5
2d5
100
AcDbEntity
  8
Capa_1
 62
7
100
AcDbSpline
 70
8
 71
3
 72
8
 73
4
 74
0
 40
0
 40
0
 40
0
 40
0
 40
1
 40
1
 40
1
 40
1
 10
223.642368
 20
40.693714
 30
0.0
 10
223.642368
 20
40.226050
 30
0.0
 10
223.647168
 20
39.768546
 30
0.0
 10
223.657648
 20
39.321218
 30
0.0
  0
SPLINE
  5
2d6
100
AcDbEntity
  8
Capa_1
 62
7
100
AcDbSpline
 70
8
 71
3
 72
8
 73
4
 74
0
 40
0
 40
0
 40
0
 40
0
 40
1
 40
1
 40
1
 40
1
 10
223.657648
 20
39.321218
 30
0.0
 10
223.667808
 20
38.873882
 30
0.0
 10
223.683088
 20
38.436714
 30
0.0
 10
223.703408
 20
38.009714
 30
0.0
  0
SPLINE
  5
2d7
100
AcDbEntity
  8
Capa_1
 62
7
100
AcDbSpline
 70
8
 71
3
 72
8
 73
4
 74
0
 40
0
 40
0
 40
0
 40
0
 40
1
 40
1
 40
1
 40
1
 10
223.703408
 20
38.009714
 30
0.0
 10
223.723728
 20
37.582714
 30
0.0
 10
223.749168
 20
37.165882
 30
0.0
 10
223.779648
 20
36.759218
 30
0.0
  0
SPLINE
  5
2d8
100
AcDbEntity
  8
Capa_1
 62
7
100
AcDbSpline
 70
8
 71
3
 72
8
 73
4
 74
0
 40
0
 40
0
 40
0
 40
0
 40
1
 40
1
 40
1
 40
1
 10
223.779648
 20
36.759218
 30
0.0
 10
223.810128
 20
36.352546
 30
0.0
 10
223.845728
 20
35.956050
 30
0.0
 10
223.886400
 20
35.569714
 30
0.0
  0
SPLINE
  5
2d9
100
AcDbEntity
  8
Capa_1
 62
7
100
AcDbSpline
 70
8
 71
3
 72
8
 73
4
 74
0
 40
0
 40
0
 40
0
 40
0
 40
1
 40
1
 40
1
 40
1
 10
223.886400
 20
35.569714
 30
0.0
 10
223.927040
 20
35.183378
 30
0.0
 10
223.972816
 20
34.807218
 30
0.0
 10
224.023648
 20
34.441218
 30
0.0
  0
SPLINE
  5
2da
100
AcDbEntity
  8
Capa_1
 62
7
100
AcDbSpline
 70
8
 71
3
 72
8
 73
4
 74
0
 40
0
 40
0
 40
0
 40
0
 40
1
 40
1
 40
1
 40
1
 10
224.023648
 20
34.441218
 30
0.0
 10
224.074448
 20
34.075218
 30
0.0
 10
224.130400
 20
33.719378
 30
0.0
 10
224.191400
 20
33.373714
 30
0.0
  0
SPLINE
  5
2db
100
AcDbEntity
  8
Capa_1
 62
7
100
AcDbSpline
 70
8
 71
3
 72
8
 73
4
 74
0
 40
0
 40
0
 40
0
 40
0
 40
1
 40
1
 40
1
 40
1
 10
224.191400
 20
33.373714
 30
0.0
 10
224.252360
 20
33.028050
 30
0.0
 10
224.318480
 20
32.692546
 30
0.0
 10
224.389648
 20
32.367218
 30
0.0
  0
SPLINE
  5
2dc
100
AcDbEntity
  8
Capa_1
 62
7
100
AcDbSpline
 70
8
 71
3
 72
8
 73
4
 74
0
 40
0
 40
0
 40
0
 40
0
 40
1
 40
1
 40
1
 40
1
 10
224.389648
 20
32.367218
 30
0.0
 10
224.460848
 20
32.041882
 30
0.0
 10
224.537064
 20
31.726714
 30
0.0
 10
224.618400
 20
31.421714
 30
0.0
  0
SPLINE
  5
2dd
100
AcDbEntity
  8
Capa_1
 62
7
100
AcDbSpline
 70
8
 71
3
 72
8
 73
4
 74
0
 40
0
 40
0
 40
0
 40
0
 40
1
 40
1
 40
1
 40
1
 10
224.618400
 20
31.421714
 30
0.0
 10
224.699736
 20
31.116714
 30
0.0
 10
224.787424
 20
30.819338
 30
0.0
 10
224.881464
 20
30.529586
 30
0.0
  0
SPLINE
  5
2de
100
AcDbEntity
  8
Capa_1
 62
7
100
AcDbSpline
 70
8
 71
3
 72
8
 73
4
 74
0
 40
0
 40
0
 40
0
 40
0
 40
1
 40
1
 40
1
 40
1
 10
224.881464
 20
30.529586
 30
0.0
 10
224.975504
 20
30.239842
 30
0.0
 10
225.075896
 20
29.957714
 30
0.0
 10
225.182648
 20
29.683218
 30
0.0
  0
SPLINE
  5
2df
100
AcDbEntity
  8
Capa_1
 62
7
100
AcDbSpline
 70
8
 71
3
 72
8
 73
4
 74
0
 40
0
 40
0
 40
0
 40
0
 40
1
 40
1
 40
1
 40
1
 10
225.182648
 20
29.683218
 30
0.0
 10
225.289400
 20
29.408714
 30
0.0
 10
225.402504
 20
29.141842
 30
0.0
 10
225.521960
 20
28.882586
 30
0.0
  0
SPLINE
  5
2e0
100
AcDbEntity
  8
Capa_1
 62
7
100
AcDbSpline
 70
8
 71
3
 72
8
 73
4
 74
0
 40
0
 40
0
 40
0
 40
0
 40
1
 40
1
 40
1
 40
1
 10
225.521960
 20
28.882586
 30
0.0
 10
225.641424
 20
28.623338
 30
0.0
 10
225.767232
 20
28.371714
 30
0.0
 10
225.899400
 20
28.127714
 30
0.0
  0
SPLINE
  5
2e1
100
AcDbEntity
  8
Capa_1
 62
7
100
AcDbSpline
 70
8
 71
3
 72
8
 73
4
 74
0
 40
0
 40
0
 40
0
 40
0
 40
1
 40
1
 40
1
 40
1
 10
225.899400
 20
28.127714
 30
0.0
 10
226.031568
 20
27.883714
 30
0.0
 10
226.170088
 20
27.647338
 30
0.0
 10
226.314960
 20
27.418586
 30
0.0
  0
SPLINE
  5
2e2
100
AcDbEntity
  8
Capa_1
 62
7
100
AcDbSpline
 70
8
 71
3
 72
8
 73
4
 74
0
 40
0
 40
0
 40
0
 40
0
 40
1
 40
1
 40
1
 40
1
 10
226.314960
 20
27.418586
 30
0.0
 10
226.459840
 20
27.189842
 30
0.0
 10
226.611064
 20
26.968714
 30
0.0
 10
226.768648
 20
26.755218
 30
0.0
  0
SPLINE
  5
2e3
100
AcDbEntity
  8
Capa_1
 62
7
100
AcDbSpline
 70
8
 71
3
 72
8
 73
4
 74
0
 40
0
 40
0
 40
0
 40
0
 40
1
 40
1
 40
1
 40
1
 10
226.768648
 20
26.755218
 30
0.0
 10
226.926232
 20
26.541714
 30
0.0
 10
227.090168
 20
26.335842
 30
0.0
 10
227.260464
 20
26.137586
 30
0.0
  0
SPLINE
  5
2e4
100
AcDbEntity
  8
Capa_1
 62
7
100
AcDbSpline
 70
8
 71
3
 72
8
 73
4
 74
0
 40
0
 40
0
 40
0
 40
0
 40
1
 40
1
 40
1
 40
1
 10
227.260464
 20
26.137586
 30
0.0
 10
227.430752
 20
25.939338
 30
0.0
 10
227.607400
 20
25.748714
 30
0.0
 10
227.790400
 20
25.565714
 30
0.0
  0
SPLINE
  5
2e5
100
AcDbEntity
  8
Capa_1
 62
7
100
AcDbSpline
 70
8
 71
3
 72
8
 73
4
 74
0
 40
0
 40
0
 40
0
 40
0
 40
1
 40
1
 40
1
 40
1
 10
227.790400
 20
25.565714
 30
0.0
 10
227.973400
 20
25.382714
 30
0.0
 10
228.164024
 20
25.204794
 30
0.0
 10
228.362272
 20
25.031962
 30
0.0
  0
SPLINE
  5
2e6
100
AcDbEntity
  8
Capa_1
 62
7
100
AcDbSpline
 70
8
 71
3
 72
8
 73
4
 74
0
 40
0
 40
0
 40
0
 40
0
 40
1
 40
1
 40
1
 40
1
 10
228.362272
 20
25.031962
 30
0.0
 10
228.560528
 20
24.859130
 30
0.0
 10
228.766400
 20
24.691378
 30
0.0
 10
228.979904
 20
24.528714
 30
0.0
  0
SPLINE
  5
2e7
100
AcDbEntity
  8
Capa_1
 62
7
100
AcDbSpline
 70
8
 71
3
 72
8
 73
4
 74
0
 40
0
 40
0
 40
0
 40
0
 40
1
 40
1
 40
1
 40
1
 10
228.979904
 20
24.528714
 30
0.0
 10
229.193400
 20
24.366050
 30
0.0
 10
229.414528
 20
24.208466
 30
0.0
 10
229.643272
 20
24.055962
 30
0.0
  0
SPLINE
  5
2e8
100
AcDbEntity
  8
Capa_1
 62
7
100
AcDbSpline
 70
8
 71
3
 72
8
 73
4
 74
0
 40
0
 40
0
 40
0
 40
0
 40
1
 40
1
 40
1
 40
1
 10
229.643272
 20
24.055962
 30
0.0
 10
229.872024
 20
23.903466
 30
0.0
 10
230.108400
 20
23.756050
 30
0.0
 10
230.352400
 20
23.613714
 30
0.0
  0
SPLINE
  5
2e9
100
AcDbEntity
  8
Capa_1
 62
7
100
AcDbSpline
 70
8
 71
3
 72
8
 73
4
 74
0
 40
0
 40
0
 40
0
 40
0
 40
1
 40
1
 40
1
 40
1
 10
230.352400
 20
23.613714
 30
0.0
 10
230.596400
 20
23.471378
 30
0.0
 10
230.848024
 20
23.334130
 30
0.0
 10
231.107272
 20
23.201962
 30
0.0
  0
SPLINE
  5
2ea
100
AcDbEntity
  8
Capa_1
 62
7
100
AcDbSpline
 70
8
 71
3
 72
8
 73
4
 74
0
 40
0
 40
0
 40
0
 40
0
 40
1
 40
1
 40
1
 40
1
 10
231.107272
 20
23.201962
 30
0.0
 10
231.366528
 20
23.069794
 30
0.0
 10
231.633400
 20
22.942714
 30
0.0
 10
231.907904
 20
22.820714
 30
0.0
  0
SPLINE
  5
2eb
100
AcDbEntity
  8
Capa_1
 62
7
100
AcDbSpline
 70
8
 71
3
 72
8
 73
4
 74
0
 40
0
 40
0
 40
0
 40
0
 40
1
 40
1
 40
1
 40
1
 10
231.907904
 20
22.820714
 30
0.0
 10
232.182400
 20
22.698714
 30
0.0
 10
232.464528
 20
22.581794
 30
0.0
 10
232.754272
 20
22.469962
 30
0.0
  0
SPLINE
  5
2ec
100
AcDbEntity
  8
Capa_1
 62
7
100
AcDbSpline
 70
8
 71
3
 72
8
 73
4
 74
0
 40
0
 40
0
 40
0
 40
0
 40
1
 40
1
 40
1
 40
1
 10
232.754272
 20
22.469962
 30
0.0
 10
233.044024
 20
22.358130
 30
0.0
 10
233.341400
 20
22.251378
 30
0.0
 10
233.646400
 20
22.149714
 30
0.0
  0
SPLINE
  5
2ed
100
AcDbEntity
  8
Capa_1
 62
7
100
AcDbSpline
 70
8
 71
3
 72
8
 73
4
 74
0
 40
0
 40
0
 40
0
 40
0
 40
1
 40
1
 40
1
 40
1
 10
233.646400
 20
22.149714
 30
0.0
 10
233.951400
 20
22.068378
 30
0.0
 10
234.265296
 20
21.988322
 30
0.0
 10
234.588088
 20
21.909530
 30
0.0
  0
SPLINE
  5
2ee
100
AcDbEntity
  8
Capa_1
 62
7
100
AcDbSpline
 70
8
 71
3
 72
8
 73
4
 74
0
 40
0
 40
0
 40
0
 40
0
 40
1
 40
1
 40
1
 40
1
 10
234.588088
 20
21.909530
 30
0.0
 10
234.910880
 20
21.830730
 30
0.0
 10
235.242568
 20
21.753218
 30
0.0
 10
235.583152
 20
21.676962
 30
0.0
  0
SPLINE
  5
2ef
100
AcDbEntity
  8
Capa_1
 62
7
100
AcDbSpline
 70
8
 71
3
 72
8
 73
4
 74
0
 40
0
 40
0
 40
0
 40
0
 40
1
 40
1
 40
1
 40
1
 10
235.583152
 20
21.676962
 30
0.0
 10
235.923736
 20
21.600722
 30
0.0
 10
236.273216
 20
21.525738
 30
0.0
 10
236.631584
 20
21.452026
 30
0.0
  0
SPLINE
  5
2f0
100
AcDbEntity
  8
Capa_1
 62
7
100
AcDbSpline
 70
8
 71
3
 72
8
 73
4
 74
0
 40
0
 40
0
 40
0
 40
0
 40
1
 40
1
 40
1
 40
1
 10
236.631584
 20
21.452026
 30
0.0
 10
236.989960
 20
21.378346
 30
0.0
 10
237.357232
 20
21.305882
 30
0.0
 10
237.733400
 20
21.234714
 30
0.0
  0
SPLINE
  5
2f1
100
AcDbEntity
  8
Capa_1
 62
7
100
AcDbSpline
 70
8
 71
3
 72
8
 73
4
 74
0
 40
0
 40
0
 40
0
 40
0
 40
1
 40
1
 40
1
 40
1
 10
237.733400
 20
21.234714
 30
0.0
 10
238.109568
 20
21.163514
 30
0.0
 10
238.494632
 20
21.093650
 30
0.0
 10
238.888584
 20
21.025026
 30
0.0
  0
SPLINE
  5
2f2
100
AcDbEntity
  8
Capa_1
 62
7
100
AcDbSpline
 70
8
 71
3
 72
8
 73
4
 74
0
 40
0
 40
0
 40
0
 40
0
 40
1
 40
1
 40
1
 40
1
 10
238.888584
 20
21.025026
 30
0.0
 10
239.282544
 20
20.956386
 30
0.0
 10
239.685400
 20
20.889050
 30
0.0
 10
240.097152
 20
20.822962
 30
0.0
  0
SPLINE
  5
2f3
100
AcDbEntity
  8
Capa_1
 62
7
100
AcDbSpline
 70
8
 71
3
 72
8
 73
4
 74
0
 40
0
 40
0
 40
0
 40
0
 40
1
 40
1
 40
1
 40
1
 10
240.097152
 20
20.822962
 30
0.0
 10
240.508896
 20
20.756882
 30
0.0
 10
240.929544
 20
20.692066
 30
0.0
 10
241.359088
 20
20.628530
 30
0.0
  0
SPLINE
  5
2f4
100
AcDbEntity
  8
Capa_1
 62
7
100
AcDbSpline
 70
8
 71
3
 72
8
 73
4
 74
0
 40
0
 40
0
 40
0
 40
0
 40
1
 40
1
 40
1
 40
1
 10
241.359088
 20
20.628530
 30
0.0
 10
241.788632
 20
20.565010
 30
0.0
 10
242.227064
 20
20.502714
 30
0.0
 10
242.674400
 20
20.441714
 30
0.0
  0
LWPOLYLINE
  5
2f5
100
AcDbEntity
  8
Capa_1
 62
7
100
AcDbPolyline
 90
25
 70
1
 10
200.950368
 20
37.033714
 30
0.0
 10
200.950368
 20
56.065714
 30
0.0
 10
200.950368
 20
75.097714
 30
0.0
 10
200.950368
 20
94.129714
 30
0.0
 10
200.950368
 20
113.161714
 30
0.0
 10
200.950368
 20
132.193714
 30
0.0
 10
200.950368
 20
151.225714
 30
0.0
 10
200.950368
 20
170.257714
 30
0.0
 10
200.950368
 20
189.289714
 30
0.0
 10
203.786864
 20
189.777714
 30
0.0
 10
206.623368
 20
190.265714
 30
0.0
 10
209.459864
 20
190.753714
 30
0.0
 10
212.296368
 20
191.241714
 30
0.0
 10
215.132872
 20
191.729714
 30
0.0
 10
217.969368
 20
192.217714
 30
0.0
 10
220.805864
 20
192.705714
 30
0.0
 10
223.642368
 20
193.193714
 30
0.0
 10
223.642368
 20
174.131218
 30
0.0
 10
223.642368
 20
155.068714
 30
0.0
 10
223.642368
 20
136.006218
 30
0.0
 10
223.642368
 20
116.943714
 30
0.0
 10
223.642368
 20
97.881218
 30
0.0
 10
223.642368
 20
78.818714
 30
0.0
 10
223.642368
 20
59.756218
 30
0.0
 10
223.642368
 20
40.693714
 30
0.0
  0
LWPOLYLINE
  5
2f6
100
AcDbEntity
  8
Capa_1
 62
7
100
AcDbPolyline
 90
9
 70
1
 10
242.674400
 20
20.441714
 30
0.0
 10
242.277904
 20
18.062714
 30
0.0
 10
241.881400
 20
15.683714
 30
0.0
 10
241.484904
 20
13.304714
 30
0.0
 10
241.088400
 20
10.925714
 30
0.0
 10
240.691904
 20
8.546714
 30
0.0
 10
240.295400
 20
6.167714
 30
0.0
 10
239.898904
 20
3.788714
 30
0.0
 10
239.502368
 20
1.409714
 30
0.0
  0
ENDSEC
  0
SECTION
  2
OBJECTS
  0
DICTIONARY
  5
C
330
0
100
AcDbDictionary
  3
ACAD_GROUP
350
D
  3
ACAD_MLINESTYLE
350
17
  0
DICTIONARY
  5
D
330
C
100
AcDbDictionary
  0
DICTIONARY
  5
1A
330
C
100
AcDbDictionary
  0
DICTIONARY
  5
17
330
C
100
AcDbDictionary
  3
STANDARD
350
18
  0
DICTIONARY
  5
19
330
C
100
AcDbDictionary
  0
ENDSEC
  0
EOF
